<?xml version="1.0" standalone="no"?>
<!DOCTYPE svg PUBLIC "-//W3C//DTD SVG 20010904//EN"
 "http://www.w3.org/TR/2001/REC-SVG-20010904/DTD/svg10.dtd">
<svg version="1.0" xmlns="http://www.w3.org/2000/svg"
 width="970.000000pt" height="1280.000000pt" viewBox="0 0 970.000000 1280.000000"
 preserveAspectRatio="xMidYMid meet">
<metadata>
Created by potrace 1.15, written by Peter Selinger 2001-2017
</metadata>
<g transform="translate(0.000000,1280.000000) scale(0.100000,-0.100000)"
fill="#000000" stroke="none">
<path d="M2445 10228 c-31 -24 -48 -86 -43 -156 4 -52 19 -89 116 -283 62
-123 131 -255 154 -294 22 -38 48 -83 58 -100 10 -16 40 -65 66 -108 27 -43
56 -91 64 -105 66 -119 101 -176 142 -233 26 -37 48 -71 48 -76 0 -6 9 -18 20
-28 11 -10 20 -24 20 -31 0 -7 10 -25 23 -41 13 -15 26 -35 30 -43 4 -8 36
-60 72 -115 36 -55 78 -120 93 -145 15 -25 55 -72 88 -105 84 -81 119 -137
105 -163 -9 -17 -3 -34 40 -104 28 -46 57 -90 65 -99 8 -8 14 -19 14 -23 0 -4
17 -33 39 -64 21 -32 59 -88 84 -127 25 -38 69 -89 96 -113 43 -36 51 -49 51
-77 0 -21 9 -44 25 -63 14 -17 25 -33 25 -36 0 -18 93 -130 167 -202 46 -44
83 -85 83 -90 0 -5 14 -25 31 -44 48 -52 99 -130 99 -151 0 -11 -7 -35 -14
-54 -14 -32 -19 -35 -54 -35 -22 0 -45 -6 -51 -14 -9 -11 -49 -13 -209 -9
-147 4 -231 1 -332 -11 -282 -34 -297 -38 -609 -137 -102 -33 -171 -49 -206
-49 -55 0 -85 -19 -85 -54 0 -19 38 -36 78 -36 33 0 153 43 282 100 175 78
572 138 840 127 74 -3 142 -8 151 -12 14 -5 16 -21 15 -93 -1 -48 -5 -93 -9
-100 -12 -18 -85 -4 -128 24 -67 46 -136 21 -75 -27 14 -11 28 -28 31 -39 4
-11 12 -20 19 -20 24 0 38 -27 27 -48 -8 -15 -5 -24 14 -42 21 -20 24 -30 19
-59 -9 -49 -35 -134 -45 -146 -5 -5 -9 -19 -9 -30 0 -12 -11 -53 -24 -91 -13
-38 -27 -87 -31 -109 -12 -71 -64 -224 -89 -263 -38 -58 -51 -112 -36 -156 11
-35 14 -37 43 -31 18 4 35 10 39 14 4 3 18 56 32 116 14 61 41 169 60 240 19
72 50 190 69 264 19 73 39 136 44 140 5 3 16 18 26 34 14 22 25 27 55 27 21 0
43 -5 50 -12 19 -19 197 -15 327 7 52 9 60 0 75 -95 6 -41 18 -99 27 -127 10
-39 14 -93 11 -202 -3 -146 -2 -150 21 -175 47 -50 54 -38 47 87 -12 220 -16
456 -7 462 6 3 31 1 57 -5 35 -8 61 -8 95 0 53 13 67 8 133 -44 36 -30 42 -31
130 -31 50 0 96 -4 103 -8 7 -4 22 -40 33 -80 11 -40 32 -109 47 -155 18 -59
23 -95 19 -122 -8 -50 14 -115 40 -115 17 0 19 9 20 90 1 56 -5 118 -16 165
-28 117 -33 196 -14 225 10 16 15 42 13 72 -4 79 -1 89 42 133 47 48 76 49
113 2 50 -63 195 -196 236 -217 73 -37 90 -40 90 -16 0 15 -23 36 -83 75 -46
29 -99 73 -119 97 -41 51 -108 159 -108 175 0 18 70 104 85 104 8 0 25 -22 39
-49 24 -49 93 -120 147 -153 63 -39 306 -79 315 -53 8 23 -16 34 -88 43 -95
12 -207 61 -250 111 -37 42 -78 126 -78 162 0 29 27 59 55 59 15 0 107 25 285
77 122 36 408 187 450 238 7 8 19 15 26 15 7 0 21 11 30 25 11 17 25 25 45 25
18 0 32 6 36 16 3 9 29 27 57 41 28 13 70 35 92 47 23 13 52 27 64 31 13 4 44
28 69 54 26 25 77 74 114 109 37 34 67 66 67 70 0 12 64 72 76 72 6 0 34 22
62 49 37 36 52 58 52 76 0 19 18 45 60 89 54 57 60 67 60 106 0 44 17 118 32
134 4 6 8 18 8 28 0 11 16 44 35 74 19 30 35 58 35 63 0 5 14 14 30 21 20 8
32 22 36 39 15 75 29 114 46 137 14 17 18 33 14 50 -5 19 1 34 26 65 32 40 32
42 36 164 6 173 -13 218 -95 235 -21 5 -64 15 -96 24 -67 18 -114 20 -152 6
-17 -7 -33 -7 -45 0 -14 7 -37 2 -92 -20 -40 -17 -81 -35 -90 -40 -10 -6 -25
-10 -33 -10 -9 0 -33 -9 -55 -20 -22 -11 -48 -20 -58 -20 -11 0 -30 -8 -43
-18 -13 -10 -49 -24 -79 -31 -30 -7 -74 -24 -97 -37 -23 -13 -49 -24 -59 -24
-28 0 -94 -77 -94 -109 0 -38 -37 -55 -91 -41 -72 20 -80 82 -20 145 41 41
121 188 121 221 0 11 11 36 25 56 29 43 32 91 10 145 -8 19 -15 47 -15 60 0
14 -13 42 -29 62 -15 20 -32 47 -36 61 -12 39 -74 146 -99 172 -12 12 -35 40
-50 60 -15 20 -42 42 -60 48 -18 6 -50 28 -71 50 -22 22 -46 40 -55 40 -8 0
-31 10 -49 21 -26 16 -45 20 -74 16 -32 -4 -53 2 -125 40 -83 43 -90 45 -150
40 -57 -4 -71 -1 -145 31 -69 31 -93 37 -148 36 -36 -1 -80 -6 -98 -12 -26 -9
-40 -8 -68 3 -19 8 -77 18 -128 21 -96 7 -100 6 -195 -39 -13 -7 -44 -30 -67
-53 -35 -33 -43 -47 -43 -77 0 -51 -16 -86 -59 -132 -26 -28 -48 -69 -73 -135
-29 -79 -88 -258 -113 -347 -4 -14 -14 -23 -26 -23 -11 0 -49 -29 -86 -65 -36
-36 -74 -65 -84 -65 -28 0 -74 49 -94 100 -34 86 -37 95 -46 110 -5 8 -12 22
-15 30 -20 54 -38 82 -89 138 -32 34 -70 69 -86 77 -16 9 -36 24 -46 34 -10
10 -62 51 -117 90 -73 52 -107 71 -130 71 -37 0 -56 15 -56 45 0 47 -199 182
-293 199 -23 4 -56 23 -86 49 -46 40 -74 59 -145 99 -21 12 -53 18 -97 18 -51
0 -72 5 -92 20 -14 11 -30 20 -35 20 -6 0 -25 12 -42 26 -25 22 -49 29 -129
39 -54 7 -114 21 -132 32 -48 26 -311 27 -344 1z"/>
</g>
</svg>
