<?xml version="1.0" standalone="no"?>
<!DOCTYPE svg PUBLIC "-//W3C//DTD SVG 20010904//EN"
 "http://www.w3.org/TR/2001/REC-SVG-20010904/DTD/svg10.dtd">
<svg version="1.0" xmlns="http://www.w3.org/2000/svg"
 width="1280.000000pt" height="776.000000pt" viewBox="0 0 1280.000000 776.000000"
 preserveAspectRatio="xMidYMid meet">
<metadata>
Created by potrace 1.15, written by Peter Selinger 2001-2017
</metadata>
<g transform="translate(0.000000,776.000000) scale(0.100000,-0.100000)"
fill="#000000" stroke="none">
<path d="M7050 7735 c0 -24 3 -25 55 -25 52 0 55 1 55 25 0 24 -3 25 -55 25
-52 0 -55 -1 -55 -25z"/>
<path d="M6895 7743 c-11 -2 -30 -6 -42 -9 -15 -3 -23 -12 -23 -24 0 -22 11
-24 73 -14 31 6 37 11 37 30 0 24 -6 26 -45 17z"/>
<path d="M7270 7731 c0 -20 26 -31 78 -31 25 0 32 4 32 19 0 23 -19 31 -71 31
-32 0 -39 -4 -39 -19z"/>
<path d="M9726 7741 c-12 -18 7 -41 33 -41 46 0 71 11 71 31 0 16 -8 19 -49
19 -28 0 -52 -4 -55 -9z"/>
<path d="M9942 7728 c3 -20 10 -23 56 -26 50 -3 52 -2 52 22 0 25 -3 26 -56
26 -52 0 -55 -1 -52 -22z"/>
<path d="M9558 7713 c-36 -10 -48 -19 -48 -33 0 -10 3 -21 8 -23 13 -7 102 24
102 36 -1 30 -15 34 -62 20z"/>
<path d="M10160 7706 c0 -20 7 -25 50 -33 54 -11 60 -9 60 18 0 13 -13 20 -50
28 -28 6 -53 11 -55 11 -3 0 -5 -11 -5 -24z"/>
<path d="M7487 7701 c-6 -25 -5 -25 52 -41 35 -9 45 -9 52 2 17 27 5 37 -67
52 -26 6 -32 4 -37 -13z"/>
<path d="M6657 7692 c-40 -13 -46 -19 -41 -36 4 -12 7 -22 9 -23 1 -3 96 27
102 31 5 4 -10 46 -16 45 -3 0 -27 -8 -54 -17z"/>
<path d="M10376 7664 c-11 -27 -7 -32 40 -50 39 -15 47 -15 55 -3 14 22 7 30
-43 50 -41 16 -47 16 -52 3z"/>
<path d="M9347 7634 c-41 -22 -46 -27 -37 -44 10 -19 11 -19 55 2 28 14 45 29
45 39 0 28 -12 29 -63 3z"/>
<path d="M7697 7629 c-4 -16 3 -24 40 -42 45 -22 45 -22 59 -2 14 19 12 21
-33 42 -60 27 -60 27 -66 2z"/>
<path d="M6448 7609 c-39 -20 -49 -45 -24 -55 23 -9 99 35 92 52 -3 9 -6 18
-6 20 0 9 -27 2 -62 -17z"/>
<path d="M10576 7574 c-3 -9 -6 -17 -6 -19 0 -2 20 -15 45 -28 45 -25 45 -25
56 -5 6 11 9 21 7 22 -18 13 -81 46 -88 46 -4 0 -11 -7 -14 -16z"/>
<path d="M7893 7530 c-11 -17 -8 -23 33 -51 41 -28 48 -30 56 -16 5 9 9 19 9
23 0 5 -77 64 -84 64 -1 0 -8 -9 -14 -20z"/>
<path d="M9158 7522 c-39 -28 -45 -41 -27 -59 8 -8 23 -3 55 20 36 25 41 33
33 49 -13 23 -17 23 -61 -10z"/>
<path d="M6263 7499 c-46 -32 -50 -40 -29 -58 10 -8 23 -4 55 19 36 26 40 33
31 50 -6 11 -12 20 -13 20 -1 -1 -21 -14 -44 -31z"/>
<path d="M10763 7461 c-10 -16 -6 -23 29 -51 37 -30 41 -31 56 -16 16 16 14
19 -23 51 -47 40 -47 40 -62 16z"/>
<path d="M8069 7394 c-11 -13 -7 -21 24 -52 35 -34 38 -36 54 -19 16 16 15 19
-17 52 -38 40 -43 41 -61 19z"/>
<path d="M8987 7372 c-29 -30 -34 -41 -25 -50 19 -19 32 -15 68 23 28 29 31
37 20 50 -18 21 -21 20 -63 -23z"/>
<path d="M6087 7352 c-36 -37 -37 -39 -19 -55 17 -16 20 -15 54 21 32 32 35
39 24 55 -7 9 -15 17 -18 17 -2 0 -21 -17 -41 -38z"/>
<path d="M10927 7318 c-15 -12 -13 -17 19 -50 37 -41 44 -44 62 -26 8 8 4 20
-19 50 -34 42 -38 44 -62 26z"/>
<path d="M8220 7235 c-9 -11 -6 -22 21 -54 26 -33 35 -39 50 -30 25 13 24 14
-12 60 -34 43 -41 46 -59 24z"/>
<path d="M8842 7205 c-32 -44 -32 -44 -11 -55 11 -7 22 -10 23 -8 1 2 15 20
30 41 23 30 26 40 16 52 -18 21 -21 19 -58 -30z"/>
<path d="M5941 7184 c-31 -43 -32 -46 -15 -58 16 -12 22 -9 52 31 19 24 32 45
30 47 -1 1 -10 7 -19 14 -13 10 -21 5 -48 -34z"/>
<path d="M11062 7147 c-10 -12 8 -49 44 -95 1 -2 12 1 23 8 21 11 21 11 -9 55
-33 48 -41 53 -58 32z"/>
<path d="M8351 7061 c-12 -7 -9 -17 13 -55 28 -48 32 -51 55 -37 12 7 9 17
-13 55 -28 48 -32 51 -55 37z"/>
<path d="M8742 7057 c-5 -6 -17 -27 -27 -46 -17 -33 -17 -35 1 -48 9 -7 18
-12 19 -10 1 1 14 23 29 49 26 45 27 47 8 57 -15 8 -23 7 -30 -2z"/>
<path d="M5818 6994 c-19 -39 -20 -46 -8 -54 24 -16 29 -12 52 36 19 39 20 46
8 54 -24 16 -29 12 -52 -36z"/>
<path d="M11173 6963 c-17 -6 -16 -13 7 -68 17 -41 22 -45 40 -35 19 10 19 11
1 57 -19 48 -26 55 -48 46z"/>
<path d="M8458 6869 c-16 -9 -16 -13 5 -57 12 -26 22 -48 23 -50 1 -2 11 1 23
7 20 11 20 11 -2 61 -24 54 -24 54 -49 39z"/>
<path d="M8621 6828 c-12 -28 -20 -52 -19 -53 2 -2 12 -5 23 -9 16 -5 23 2 38
37 21 52 21 54 -2 66 -16 9 -21 4 -40 -41z"/>
<path d="M5726 6795 c-18 -46 -15 -65 10 -65 21 0 59 91 42 102 -25 15 -35 8
-52 -37z"/>
<path d="M11242 6751 c-10 -6 -11 -17 -1 -54 10 -40 15 -47 36 -47 18 0 23 4
19 18 -3 9 -8 34 -12 55 -6 37 -17 44 -42 28z"/>
<path d="M8534 6655 c-5 -12 3 -47 23 -105 3 -8 13 11 24 44 15 47 17 61 7 68
-21 12 -48 9 -54 -7z"/>
<path d="M5666 6613 c-3 -10 -8 -35 -12 -56 -6 -36 -5 -39 17 -35 18 2 25 13
35 50 6 26 9 49 6 52 -12 13 -41 5 -46 -11z"/>
<path d="M11270 6523 c0 -10 3 -35 7 -56 5 -31 9 -38 27 -35 12 2 20 6 19 11
-2 4 -3 27 -3 52 0 41 -2 45 -25 45 -17 0 -25 -5 -25 -17z"/>
<path d="M5626 6396 c-3 -11 -6 -38 -6 -58 0 -34 3 -38 25 -38 24 0 25 3 25
54 0 44 -3 55 -19 59 -14 3 -21 -2 -25 -17z"/>
<path d="M11280 6275 c0 -25 0 -48 0 -52 -1 -5 8 -9 18 -11 15 -2 21 5 26 29
12 62 8 79 -19 79 -23 0 -25 -4 -25 -45z"/>
<path d="M5620 6173 c0 -10 3 -35 7 -56 5 -31 9 -38 27 -35 12 2 21 9 20 16
-1 6 -2 30 -2 52 -2 36 -5 40 -27 40 -17 0 -25 -5 -25 -17z"/>
<path d="M11266 6098 c-3 -7 -6 -32 -9 -55 -4 -37 -2 -42 18 -46 21 -4 24 1
30 46 5 37 4 52 -6 58 -19 12 -29 11 -33 -3z"/>
<path d="M5667 5973 c-11 -3 -16 -11 -13 -21 3 -9 8 -34 12 -55 5 -33 9 -37
28 -31 11 4 22 7 23 8 4 3 -21 106 -26 105 -3 -1 -14 -3 -24 -6z"/>
<path d="M11226 5853 c-10 -61 -8 -73 13 -73 25 0 27 4 35 63 7 45 6 47 -17
47 -20 0 -25 -6 -31 -37z"/>
<path d="M5708 5754 c-9 -8 25 -104 36 -104 29 1 33 15 19 63 -10 33 -19 47
-32 47 -10 0 -20 -3 -23 -6z"/>
<path d="M11180 5638 c-6 -24 -12 -47 -13 -52 -1 -5 8 -12 20 -17 19 -7 22 -3
33 43 10 41 10 52 -1 59 -23 15 -28 11 -39 -33z"/>
<path d="M5787 5547 c-14 -11 -14 -16 1 -56 18 -46 29 -56 50 -43 9 7 9 18 -4
55 -18 54 -25 61 -47 44z"/>
<path d="M11125 5461 c-3 -6 -12 -28 -20 -50 -12 -35 -12 -40 2 -45 26 -10 30
-7 48 40 15 39 15 48 4 55 -18 11 -26 11 -34 0z"/>
<path d="M5862 5341 c-11 -7 -10 -17 8 -52 28 -55 25 -52 48 -45 20 7 20 7 -1
56 -21 50 -30 57 -55 41z"/>
<path d="M11030 5223 c-24 -55 -24 -50 0 -63 18 -10 22 -6 40 35 25 58 25 61
0 68 -16 4 -24 -4 -40 -40z"/>
<path d="M5960 5140 c-13 -8 -12 -16 9 -55 25 -48 28 -50 51 -35 12 8 11 15
-8 54 -23 48 -28 52 -52 36z"/>
<path d="M10931 5023 c-18 -37 -20 -48 -9 -54 21 -14 25 -11 53 37 22 37 25
48 14 55 -25 16 -35 9 -58 -38z"/>
<path d="M6067 4948 c-14 -12 -14 -17 10 -55 25 -43 49 -55 59 -29 4 12 -39
96 -49 96 -2 0 -11 -6 -20 -12z"/>
<path d="M10819 4836 c-26 -42 -26 -43 -6 -55 21 -14 18 -17 59 48 17 27 18
35 7 42 -24 15 -33 10 -60 -35z"/>
<path d="M6181 4757 c-8 -10 -3 -24 20 -55 26 -36 33 -40 49 -30 20 13 19 16
-18 66 -27 35 -34 38 -51 19z"/>
<path d="M10694 4659 c-27 -39 -27 -42 -10 -55 17 -12 22 -9 51 29 24 30 30
46 23 55 -18 21 -34 13 -64 -29z"/>
<path d="M6311 4581 c-11 -7 -7 -18 19 -55 28 -39 36 -44 49 -34 9 7 18 13 20
15 5 3 -59 83 -67 83 -4 0 -13 -4 -21 -9z"/>
<path d="M10562 4497 c-36 -37 -40 -52 -15 -62 26 -9 89 60 72 81 -16 20 -21
18 -57 -19z"/>
<path d="M1389 4412 c-88 -57 -190 -193 -234 -315 -61 -167 -78 -467 -37 -621
12 -44 31 -95 42 -113 27 -46 25 -52 -8 -21 -15 14 -42 28 -59 30 -30 4 -32 3
-26 -20 5 -23 3 -24 -21 -20 -20 4 -24 2 -17 -5 6 -6 11 -21 11 -32 0 -12 11
-32 25 -45 31 -29 27 -35 -12 -15 -136 68 -454 52 -688 -35 -83 -31 -182 -97
-254 -169 -59 -59 -111 -143 -111 -179 0 -29 38 -58 141 -106 53 -25 139 -74
191 -109 106 -72 163 -91 230 -75 46 10 112 55 173 117 21 23 42 41 46 41 3 0
4 -31 1 -70 -4 -56 0 -85 22 -153 40 -131 130 -219 251 -248 28 -6 70 -23 94
-36 43 -25 47 -25 136 -15 81 9 103 16 179 58 60 32 95 58 112 83 13 20 34 48
46 64 21 26 21 30 9 95 -7 37 -16 85 -20 107 -8 45 -45 126 -115 253 -26 45
-43 82 -39 82 5 0 50 -36 100 -80 101 -87 133 -108 133 -89 0 7 -46 58 -102
115 -56 57 -99 104 -95 104 4 0 45 -18 92 -40 47 -22 117 -51 157 -64 70 -23
216 -44 268 -38 45 6 125 99 170 199 36 81 40 99 40 169 0 77 -1 82 -66 212
-59 119 -73 139 -121 177 -60 47 -93 59 -204 76 -62 10 -83 9 -127 -3 -28 -9
-52 -13 -52 -11 0 3 24 36 54 72 65 80 84 117 92 175 9 60 -25 131 -106 221
-34 39 -78 97 -97 130 -113 195 -120 200 -204 147z"/>
<path d="M6449 4404 c-11 -13 -7 -21 24 -52 33 -32 38 -35 52 -21 13 13 12 19
-16 52 -34 41 -41 44 -60 21z"/>
<path d="M10410 4335 c-32 -33 -33 -36 -17 -52 16 -17 19 -15 54 19 31 31 35
39 24 52 -18 22 -23 21 -61 -19z"/>
<path d="M6600 4245 c-11 -13 -8 -21 20 -50 37 -39 55 -43 64 -18 4 11 -4 28
-26 50 -36 38 -41 39 -58 18z"/>
<path d="M10254 4186 c-37 -33 -38 -35 -21 -52 17 -18 19 -17 54 19 34 33 36
38 22 52 -14 14 -19 12 -55 -19z"/>
<path d="M6760 4095 c-11 -13 -8 -21 20 -50 37 -38 51 -42 69 -22 8 10 4 19
-17 38 -53 48 -58 51 -72 34z"/>
<path d="M10090 4035 c-30 -31 -32 -37 -19 -50 14 -14 19 -12 54 18 35 30 38
36 26 51 -18 22 -22 21 -61 -19z"/>
<path d="M6932 3958 c-20 -20 -14 -34 27 -63 67 -46 87 -7 23 44 -30 23 -42
27 -50 19z"/>
<path d="M9930 3885 c-30 -31 -32 -37 -19 -50 14 -14 19 -12 54 18 35 30 38
36 26 51 -18 22 -22 21 -61 -19z"/>
<path d="M880 3893 c0 -4 12 -25 28 -47 15 -21 39 -76 54 -120 15 -45 27 -76
27 -70 2 22 -49 185 -65 209 -15 23 -44 41 -44 28z"/>
<path d="M7100 3815 c-7 -9 -11 -17 -9 -18 2 -2 22 -17 45 -35 31 -24 44 -28
52 -20 19 19 14 31 -27 61 -46 32 -45 31 -61 12z"/>
<path d="M9777 3732 c-34 -35 -36 -40 -22 -52 14 -12 21 -8 53 23 33 33 35 38
21 52 -13 13 -19 11 -52 -23z"/>
<path d="M7282 3688 c-18 -18 -15 -24 29 -59 38 -30 42 -31 57 -15 16 15 15
18 -13 41 -47 40 -61 45 -73 33z"/>
<path d="M991 3624 c0 -11 3 -14 6 -6 3 7 2 16 -1 19 -3 4 -6 -2 -5 -13z"/>
<path d="M9621 3573 c-28 -33 -29 -39 -16 -52 14 -14 19 -11 52 21 31 31 35
39 24 52 -19 23 -26 20 -60 -21z"/>
<path d="M7450 3545 c-11 -13 -8 -21 20 -50 37 -38 51 -42 69 -21 9 11 3 21
-29 50 -46 42 -44 41 -60 21z"/>
<path d="M1021 3504 c0 -11 3 -14 6 -6 3 7 2 16 -1 19 -3 4 -6 -2 -5 -13z"/>
<path d="M492 3458 c6 -18 70 -48 115 -54 l38 -4 -42 13 c-22 8 -55 24 -71 36
-34 24 -45 26 -40 9z"/>
<path d="M9481 3415 c-35 -40 -37 -48 -18 -64 10 -8 19 -4 38 17 50 55 52 60
31 71 -17 9 -25 5 -51 -24z"/>
<path d="M7610 3395 c-8 -9 -9 -19 -4 -23 5 -4 23 -20 41 -36 27 -25 35 -27
48 -16 14 12 12 17 -22 52 -42 43 -45 44 -63 23z"/>
<path d="M663 3393 c9 -2 23 -2 30 0 6 3 -1 5 -18 5 -16 0 -22 -2 -12 -5z"/>
<path d="M723 3383 c9 -2 25 -2 35 0 9 3 1 5 -18 5 -19 0 -27 -2 -17 -5z"/>
<path d="M820 3370 c51 -13 133 -22 98 -11 -15 5 -51 12 -80 15 -43 4 -46 4
-18 -4z"/>
<path d="M9333 3241 c-24 -29 -29 -41 -20 -50 19 -19 32 -13 65 28 23 28 28
41 19 50 -18 18 -30 13 -64 -28z"/>
<path d="M7771 3244 c-12 -14 -8 -21 25 -55 29 -29 41 -36 51 -28 7 7 13 14
13 18 0 7 -67 81 -72 81 -2 -1 -9 -8 -17 -16z"/>
<path d="M9203 3080 c-33 -41 -37 -56 -16 -64 24 -10 87 62 71 81 -16 19 -31
15 -55 -17z"/>
<path d="M7927 3083 c-14 -17 -13 -21 20 -57 32 -34 37 -37 51 -23 13 14 12
20 -17 56 -18 23 -34 41 -35 41 -2 0 -10 -8 -19 -17z"/>
<path d="M9065 2900 c-23 -33 -25 -42 -15 -55 18 -21 22 -19 53 26 23 32 27
43 17 54 -18 22 -24 19 -55 -25z"/>
<path d="M8070 2915 c-9 -11 -6 -22 21 -54 27 -34 35 -39 48 -29 9 7 18 13 20
15 5 3 -61 83 -69 83 -4 0 -13 -7 -20 -15z"/>
<path d="M8937 2728 c-28 -40 -30 -68 -4 -68 13 0 67 67 67 83 0 3 -8 10 -17
16 -15 7 -24 1 -46 -31z"/>
<path d="M8210 2745 c-10 -12 -6 -22 20 -55 27 -34 35 -38 51 -29 19 10 18 12
-12 54 -36 49 -41 52 -59 30z"/>
<path d="M1701 2737 c-17 -21 23 -55 44 -37 14 12 14 15 -1 31 -20 23 -28 23
-43 6z"/>
<path d="M1820 2625 c-11 -14 -8 -21 25 -56 35 -35 41 -38 54 -24 14 14 11 20
-25 56 -36 36 -42 39 -54 24z"/>
<path d="M8348 2573 c-16 -15 -15 -19 14 -59 26 -37 34 -42 47 -32 9 7 18 13
20 15 2 1 -59 93 -64 93 0 0 -8 -7 -17 -17z"/>
<path d="M8807 2549 c-23 -32 -27 -43 -17 -54 18 -22 24 -19 55 25 23 33 25
42 15 55 -18 21 -22 19 -53 -26z"/>
<path d="M1971 2467 c-8 -10 -1 -22 29 -52 37 -36 41 -38 56 -23 15 14 13 19
-22 52 -44 40 -47 41 -63 23z"/>
<path d="M8477 2395 c-18 -13 -17 -16 13 -60 27 -40 34 -44 48 -33 10 7 19 13
21 15 2 1 -34 55 -58 85 -4 4 -14 1 -24 -7z"/>
<path d="M8680 2368 c-29 -40 -30 -43 -13 -56 16 -11 21 -9 41 15 41 50 44 61
22 73 -17 9 -24 5 -50 -32z"/>
<path d="M2130 2315 c-11 -13 -8 -21 20 -50 36 -38 49 -42 68 -23 9 9 4 20
-25 50 -42 43 -45 44 -63 23z"/>
<path d="M8556 2189 c-26 -38 -27 -43 -11 -58 15 -15 17 -14 36 9 l19 25 21
-27 c17 -23 24 -26 40 -17 18 9 19 12 4 37 -28 47 -39 59 -61 66 -17 5 -26 -2
-48 -35z"/>
<path d="M2290 2165 c-11 -13 -8 -21 20 -50 36 -38 49 -42 68 -23 9 9 4 20
-25 50 -42 43 -45 44 -63 23z"/>
<path d="M8430 2006 c-30 -45 -30 -45 -9 -56 22 -12 28 -7 64 52 15 25 14 28
-4 38 -17 9 -24 4 -51 -34z"/>
<path d="M8719 2028 c-15 -10 -14 -16 13 -59 26 -43 31 -47 49 -36 10 6 18 14
17 17 -15 28 -54 90 -58 89 -3 0 -12 -5 -21 -11z"/>
<path d="M2452 2018 c-18 -18 -15 -24 29 -59 36 -29 42 -30 56 -17 14 14 11
19 -23 52 -44 40 -45 41 -62 24z"/>
<path d="M2611 1867 c-8 -10 -1 -22 29 -52 39 -38 40 -38 55 -19 13 17 12 21
-23 51 -42 37 -45 38 -61 20z"/>
<path d="M8305 1830 c-23 -33 -25 -42 -15 -55 18 -21 22 -19 53 26 23 32 27
43 17 54 -18 22 -24 19 -55 -25z"/>
<path d="M8837 1839 c-16 -9 -15 -14 13 -55 27 -39 34 -43 51 -33 18 9 19 13
6 32 -8 12 -20 32 -28 45 -16 25 -17 25 -42 11z"/>
<path d="M2779 1724 c-10 -13 -7 -21 24 -51 30 -31 38 -35 51 -24 23 19 20 26
-23 60 -34 27 -40 29 -52 15z"/>
<path d="M8170 1659 c-30 -37 -31 -42 -16 -57 14 -15 18 -13 50 24 41 46 42
50 17 63 -15 9 -24 3 -51 -30z"/>
<path d="M8960 1655 c-13 -15 -9 -24 35 -80 14 -18 16 -18 31 -3 15 15 14 19
-12 57 -32 45 -36 47 -54 26z"/>
<path d="M2943 1581 c-11 -18 -8 -24 25 -50 42 -35 45 -36 61 -17 10 12 5 21
-26 50 -21 20 -40 36 -43 36 -3 0 -11 -9 -17 -19z"/>
<path d="M8025 1500 c-37 -38 -38 -41 -22 -57 16 -17 19 -15 58 23 38 39 39
41 21 57 -17 16 -20 15 -57 -23z"/>
<path d="M9101 1487 c-8 -10 -1 -22 29 -52 37 -36 41 -38 56 -23 15 14 13 19
-22 52 -44 40 -47 41 -63 23z"/>
<path d="M3110 1441 c-8 -16 -4 -24 31 -52 38 -30 42 -31 57 -15 16 15 15 18
-13 41 -52 44 -63 47 -75 26z"/>
<path d="M7867 1342 c-33 -33 -36 -41 -23 -51 18 -15 40 -5 75 33 20 21 22 28
11 41 -18 21 -21 20 -63 -23z"/>
<path d="M9261 1336 c-16 -19 67 -90 86 -74 19 16 16 25 -19 58 -37 33 -50 36
-67 16z"/>
<path d="M3279 1304 c-11 -13 -8 -19 17 -40 51 -43 62 -46 74 -25 8 16 4 24
-29 50 -45 36 -45 36 -62 15z"/>
<path d="M7707 1204 c-32 -29 -36 -38 -27 -55 11 -19 13 -18 56 17 42 35 44
38 28 55 -10 11 -18 19 -18 19 -1 0 -18 -16 -39 -36z"/>
<path d="M9442 1208 c-20 -20 -14 -34 29 -64 40 -27 42 -28 55 -9 8 10 13 19
11 20 -1 1 -20 15 -43 33 -31 24 -44 28 -52 20z"/>
<path d="M3456 1171 c-15 -16 -13 -20 30 -51 41 -29 48 -31 56 -17 13 24 12
26 -31 57 -37 27 -40 28 -55 11z"/>
<path d="M7532 1070 c-37 -27 -41 -32 -30 -49 13 -22 23 -19 73 23 27 22 29
26 14 41 -14 14 -19 13 -57 -15z"/>
<path d="M9611 1066 c-10 -12 -4 -20 33 -45 53 -36 52 -36 65 -12 9 16 4 23
-29 45 -46 30 -53 31 -69 12z"/>
<path d="M3631 1041 c-10 -17 -6 -24 32 -50 33 -23 47 -27 56 -18 18 18 13 31
-27 57 -50 34 -49 34 -61 11z"/>
<path d="M7361 954 c-19 -13 -39 -25 -44 -27 -6 -2 -5 -12 2 -25 l11 -21 45
27 c46 28 54 42 33 60 -9 7 -23 3 -47 -14z"/>
<path d="M9796 943 c-7 -19 -5 -22 45 -51 27 -16 38 -19 47 -10 18 18 15 25
-25 53 -44 29 -58 31 -67 8z"/>
<path d="M3809 914 c-8 -10 -9 -18 -3 -22 71 -48 86 -54 95 -41 15 24 10 33
-31 57 -46 26 -44 26 -61 6z"/>
<path d="M7158 837 c-41 -24 -42 -25 -28 -47 8 -12 15 -11 55 8 33 16 45 28
43 40 -5 25 -28 24 -70 -1z"/>
<path d="M9986 834 c-8 -22 -1 -31 46 -55 33 -17 42 -18 49 -7 14 21 11 26
-34 53 -51 30 -53 30 -61 9z"/>
<path d="M4002 808 c-20 -20 -14 -33 33 -58 39 -22 47 -23 55 -10 14 21 13 23
-12 39 -13 8 -32 20 -44 27 -16 11 -23 11 -32 2z"/>
<path d="M6968 742 c-36 -16 -50 -44 -28 -57 5 -3 29 4 52 16 53 27 50 23 42
43 -7 19 -18 19 -66 -2z"/>
<path d="M10180 725 c-15 -18 -17 -17 39 -45 43 -21 45 -22 58 -4 12 17 9 21
-29 41 -52 27 -52 27 -68 8z"/>
<path d="M4185 689 c-8 -24 -11 -21 44 -49 35 -18 45 -19 52 -8 14 21 11 26
-34 53 -53 30 -54 30 -62 4z"/>
<path d="M6759 652 c-32 -15 -36 -20 -28 -39 l8 -23 48 21 c57 24 55 22 47 43
-8 20 -28 19 -75 -2z"/>
<path d="M10380 629 c-14 -24 -16 -21 37 -48 51 -26 50 -26 63 -1 9 17 5 22
-39 45 l-50 25 -11 -21z"/>
<path d="M4380 591 c-9 -18 -5 -22 36 -40 57 -26 60 -26 67 -1 4 16 -4 24 -40
40 -55 24 -50 24 -63 1z"/>
<path d="M6568 582 c-47 -15 -55 -25 -40 -48 12 -19 102 12 102 36 0 27 -9 29
-62 12z"/>
<path d="M10579 539 c-13 -25 -16 -21 43 -47 l48 -21 11 20 c13 25 16 21 -43
47 l-48 21 -11 -20z"/>
<path d="M4585 509 c-8 -24 -10 -22 41 -37 57 -17 66 -15 62 9 -2 16 -15 25
-48 35 -25 8 -46 14 -47 14 -1 0 -5 -9 -8 -21z"/>
<path d="M6348 518 c-26 -7 -38 -16 -38 -27 0 -27 8 -30 58 -17 36 9 47 17 47
32 0 22 -17 26 -67 12z"/>
<path d="M6140 471 c-27 -5 -36 -11 -38 -30 -4 -23 -2 -24 35 -18 21 4 46 7
56 7 13 0 17 6 15 22 -3 25 -16 29 -68 19z"/>
<path d="M10790 471 c0 -5 -2 -16 -5 -24 -4 -9 8 -19 37 -30 58 -22 70 -21 66
4 -2 15 -17 27 -50 40 -27 10 -48 15 -48 10z"/>
<path d="M4796 454 c-9 -24 1 -31 55 -39 41 -6 47 -5 52 14 5 22 -1 25 -64 36
-29 5 -38 3 -43 -11z"/>
<path d="M5912 433 c-27 -4 -33 -8 -30 -26 2 -12 9 -22 16 -21 6 1 30 2 52 3
36 1 40 4 40 26 0 26 -3 27 -78 18z"/>
<path d="M5010 411 c0 -21 15 -28 70 -33 29 -2 35 0 38 18 2 17 -4 23 -29 28
-57 11 -79 8 -79 -13z"/>
<path d="M5712 412 c-49 -3 -53 -5 -46 -25 9 -30 7 -30 61 -20 43 7 48 11 44
28 -5 17 -13 20 -59 17z"/>
<path d="M5230 386 c0 -25 3 -26 56 -26 52 0 55 1 52 23 -3 19 -10 22 -55 25
-51 3 -53 2 -53 -22z"/>
<path d="M10995 392 c-9 -25 -5 -30 42 -46 60 -21 63 -20 63 7 0 19 -9 26 -50
38 -42 13 -50 13 -55 1z"/>
<path d="M5450 374 c0 -25 2 -26 38 -20 20 3 45 6 55 6 10 0 17 8 17 20 0 18
-7 20 -55 20 -53 0 -55 -1 -55 -26z"/>
<path d="M11206 323 c-4 -9 -3 -19 1 -23 8 -7 96 -31 99 -27 1 1 4 12 8 23 6
19 1 23 -38 33 -58 14 -63 14 -70 -6z"/>
<path d="M11420 268 c0 -21 7 -26 47 -35 53 -13 63 -10 63 16 0 12 -10 20 -29
24 -16 3 -40 9 -55 13 -23 5 -26 3 -26 -18z"/>
<path d="M11635 220 c-4 -12 -5 -23 -3 -24 4 -3 103 -25 104 -23 1 1 4 12 8
23 5 18 2 22 -23 27 -16 3 -40 9 -54 12 -20 5 -27 2 -32 -15z"/>
<path d="M11850 172 c0 -26 4 -28 63 -37 43 -7 47 -6 47 13 0 26 -4 28 -62 37
-44 7 -48 6 -48 -13z"/>
<path d="M12070 135 c0 -8 0 -18 -1 -22 0 -5 22 -13 50 -19 42 -10 51 -9 55 3
11 27 6 31 -44 42 -63 14 -60 14 -60 -4z"/>
<path d="M12285 90 c-9 -28 -9 -27 51 -35 46 -7 52 -5 57 14 4 17 -1 21 -32
27 -20 3 -44 8 -53 10 -10 3 -19 -3 -23 -16z"/>
<path d="M12500 50 c0 -20 6 -22 78 -34 29 -5 32 -3 32 18 0 26 -21 36 -77 36
-26 0 -33 -4 -33 -20z"/>
<path d="M12720 25 c0 -21 5 -25 30 -25 25 0 30 4 30 25 0 21 -5 25 -30 25
-25 0 -30 -4 -30 -25z"/>
</g>
</svg>
