<?xml version="1.0" standalone="no"?>
<!DOCTYPE svg PUBLIC "-//W3C//DTD SVG 20010904//EN"
 "http://www.w3.org/TR/2001/REC-SVG-20010904/DTD/svg10.dtd">
<svg version="1.0" xmlns="http://www.w3.org/2000/svg"
 width="1280.000000pt" height="1061.000000pt" viewBox="0 0 1280.000000 1061.000000"
 preserveAspectRatio="xMidYMid meet">
<metadata>
Created by potrace 1.15, written by Peter Selinger 2001-2017
</metadata>
<g transform="translate(0.000000,1061.000000) scale(0.100000,-0.100000)"
fill="#000000" stroke="none">
<path d="M3495 10593 c-128 -38 -165 -46 -267 -59 -61 -8 -123 -21 -138 -29
-16 -8 -63 -48 -105 -90 -41 -41 -80 -75 -86 -75 -20 0 -130 -122 -156 -173
-19 -38 -27 -70 -28 -117 -2 -36 -11 -96 -20 -135 -10 -38 -21 -106 -24 -150
-5 -64 -11 -85 -28 -104 -12 -13 -25 -37 -29 -53 -3 -17 -23 -55 -45 -85 -48
-69 -119 -248 -119 -301 0 -106 139 -162 275 -111 31 11 62 18 70 15 8 -3 28
0 45 6 28 9 33 7 66 -26 19 -20 39 -36 44 -36 21 0 59 -80 81 -169 l23 -93
-22 -18 c-17 -14 -39 -18 -87 -18 -46 0 -73 -5 -94 -18 -86 -56 -139 -95 -166
-124 -16 -18 -66 -56 -110 -85 -145 -97 -197 -145 -233 -214 -18 -35 -59 -94
-91 -130 -82 -93 -85 -100 -126 -256 -136 -519 -289 -928 -405 -1080 -52 -67
-60 -93 -60 -187 l0 -80 -79 -131 c-163 -272 -199 -334 -236 -405 l-38 -73
-42 6 c-50 8 -55 3 -85 -90 -12 -38 -45 -124 -72 -189 -41 -97 -49 -126 -44
-156 l6 -38 -68 -15 c-37 -8 -89 -20 -117 -26 -27 -6 -75 -18 -105 -26 -50
-14 -61 -14 -129 2 l-74 17 -65 -35 c-69 -36 -116 -86 -110 -116 5 -26 54 -21
123 11 91 43 140 23 61 -25 -50 -30 -86 -98 -106 -196 -7 -32 -21 -75 -31 -95
-20 -39 -25 -83 -11 -92 14 -9 79 44 98 80 19 35 34 44 34 22 0 -7 -10 -41
-22 -75 -38 -105 -4 -99 78 15 29 40 55 89 59 109 7 42 30 73 53 73 12 0 10
-6 -7 -24 -23 -24 -23 -28 -16 -146 7 -116 6 -125 -18 -189 -20 -49 -28 -93
-33 -173 -4 -82 -9 -108 -20 -108 -16 0 -21 21 -27 114 -6 89 -21 105 -68 73
-29 -19 -35 -31 -42 -76 -5 -29 -6 -62 -3 -74 4 -14 38 -41 88 -72 71 -44 83
-55 95 -92 18 -54 54 -89 128 -125 33 -16 76 -38 95 -49 43 -23 96 -24 149 -3
54 21 60 45 28 108 -14 28 -29 59 -32 70 -3 10 -11 16 -18 13 -6 -3 -41 -18
-77 -33 -36 -14 -75 -35 -87 -46 l-22 -20 -33 20 c-43 26 -84 71 -93 100 -8
26 -7 26 53 7 40 -13 54 -13 92 -2 48 14 49 16 64 130 4 37 2 49 -9 53 -22 9
-123 -35 -161 -68 -32 -28 -33 -28 -43 -9 -16 29 -13 135 5 198 9 30 29 70 46
89 24 28 37 34 68 34 31 0 43 6 58 28 22 30 90 58 162 66 77 9 181 68 248 142
33 36 69 84 80 107 39 83 92 103 183 69 30 -10 71 -22 91 -26 48 -9 58 6 104
154 20 63 58 157 85 209 27 52 49 99 49 106 0 7 -10 19 -22 28 l-23 15 31 43
c78 109 190 311 221 399 71 198 85 252 80 300 -5 43 -2 50 83 180 48 74 107
171 130 215 24 44 69 125 101 180 31 55 64 127 73 159 8 33 22 66 31 75 15 15
16 13 10 -24 -4 -22 -22 -98 -40 -170 -19 -71 -50 -224 -70 -340 -21 -115 -46
-232 -57 -260 -11 -29 -22 -87 -25 -137 l-6 -88 84 0 c46 0 90 -4 96 -8 10 -6
11 -28 3 -93 -28 -262 -31 -331 -29 -849 1 -300 2 -612 2 -695 0 -159 5 -128
-87 -560 -15 -66 -31 -176 -37 -245 -14 -170 -30 -232 -81 -320 l-43 -74 -6
-131 -5 -130 -77 -151 c-42 -84 -77 -157 -77 -163 0 -16 -235 -604 -266 -668
-21 -41 -24 -56 -15 -67 13 -15 57 -35 221 -100 102 -40 105 -42 103 -71 -1
-17 2 -45 7 -64 6 -23 5 -60 -5 -115 -7 -44 -23 -155 -35 -246 -26 -198 -32
-226 -69 -310 -16 -36 -34 -78 -40 -93 -9 -23 -14 -26 -30 -17 -33 17 -45 12
-92 -48 -26 -31 -75 -88 -110 -126 l-63 -68 29 -53 c38 -70 223 -294 259 -315
32 -17 229 -297 220 -311 -7 -13 -311 -11 -335 1 -10 6 -19 17 -19 24 0 8 -6
19 -14 25 -10 9 -16 7 -27 -5 -12 -14 -14 -13 -22 8 l-8 23 -19 -25 -20 -25 0
30 c0 17 -5 37 -10 45 -9 13 -12 12 -25 -5 -9 -11 -18 -36 -22 -57 -5 -35 -8
-38 -38 -38 -36 0 -40 6 -50 72 -9 57 -18 73 -40 64 -15 -5 -16 -15 -10 -71 5
-53 4 -65 -8 -65 -22 0 -34 20 -40 73 -8 57 -22 87 -43 87 -12 0 -14 -14 -12
-77 l3 -78 -67 -3 c-103 -4 -102 -6 -115 150 -7 84 -19 155 -32 192 -24 68
-28 73 -42 59 -7 -7 -5 -34 6 -89 9 -44 19 -106 22 -140 6 -60 5 -61 -22 -68
-15 -4 -31 -3 -36 1 -4 4 -11 80 -16 167 -8 165 -17 191 -46 144 -12 -18 -13
-37 -6 -93 5 -38 10 -124 11 -190 l3 -120 -39 -3 c-21 -2 -36 0 -34 5 2 4 12
24 22 44 22 43 16 93 -15 133 -19 24 -24 25 -82 20 -103 -9 -124 -14 -161 -39
-41 -27 -43 -22 -22 46 40 128 40 168 6 354 -37 203 -38 197 26 170 59 -24 72
0 27 47 -14 15 -24 30 -21 34 4 3 25 8 47 11 70 10 42 53 -33 53 -43 0 -46 16
-9 46 17 14 24 26 20 37 -9 25 -22 21 -62 -18 -39 -40 -55 -38 -55 4 0 15 -6
36 -14 47 -12 15 -18 17 -33 8 -14 -9 -18 -24 -18 -65 0 -69 -20 -75 -75 -25
-43 38 -59 43 -78 24 -23 -23 -12 -39 46 -65 50 -22 55 -27 38 -37 -49 -30
-96 -67 -96 -76 0 -6 12 -15 26 -20 21 -8 34 -5 69 16 53 31 71 25 50 -17 -20
-37 -12 -51 28 -47 31 3 32 2 43 -57 33 -166 46 -319 35 -399 -6 -43 -14 -82
-17 -87 -3 -5 -39 21 -81 58 -74 67 -75 68 -70 110 4 42 -12 73 -40 73 -5 0
-23 6 -39 14 -16 8 -44 17 -61 21 -29 6 -34 4 -43 -20 -12 -33 20 -150 48
-171 21 -16 57 -18 84 -3 18 10 26 6 61 -29 l40 -41 -86 -43 c-50 -24 -90 -50
-93 -61 -8 -25 -54 -42 -70 -25 -16 17 -40 95 -59 193 -9 44 -29 109 -46 144
-16 35 -29 67 -29 72 0 33 -69 188 -98 221 -34 37 -70 52 -59 24 3 -8 9 -31
13 -51 5 -28 13 -39 33 -46 27 -10 61 -74 61 -115 0 -12 14 -51 30 -88 32 -70
74 -227 85 -320 l7 -56 -108 -1 c-60 0 -118 -3 -129 -5 -11 -2 -37 -7 -58 -10
-21 -3 -41 -14 -46 -23 -4 -9 -6 -51 -3 -93 l4 -78 6379 0 6378 0 0 93 c0 51
-4 99 -8 105 -5 8 -109 12 -380 12 -261 1 -379 5 -392 13 -13 8 -24 8 -43 -2
-35 -19 -56 -8 -56 29 0 42 -26 39 -47 -5 -23 -47 -56 -46 -61 3 -4 40 -26 42
-46 3 -9 -16 -23 -31 -31 -35 -25 -9 -93 -7 -99 3 -3 5 7 38 24 72 16 35 37
93 46 129 32 126 65 155 74 64 5 -52 18 -62 66 -50 25 7 57 58 69 113 9 46
-28 83 -85 83 -52 0 -52 13 1 110 54 100 126 190 151 190 4 0 8 -26 9 -57 0
-32 6 -78 12 -103 13 -50 22 -53 92 -27 50 19 56 51 23 117 -24 47 -82 94
-105 86 -22 -9 -15 3 26 39 66 60 138 115 151 115 8 0 9 -10 5 -30 -7 -34 13
-136 29 -149 15 -12 135 26 143 45 18 48 -85 194 -137 194 -30 0 -99 -49 -217
-152 -64 -57 -78 -63 -140 -59 -39 3 -109 -32 -118 -58 -10 -31 5 -69 37 -96
l29 -25 -25 -55 c-23 -52 -27 -55 -61 -55 -79 0 -149 -54 -143 -111 4 -49 30
-49 88 0 27 23 53 41 59 41 5 0 -8 -42 -30 -94 -21 -52 -39 -99 -39 -106 0
-25 -74 -170 -86 -170 -8 0 -14 5 -14 11 0 7 -20 30 -45 53 -38 35 -45 48 -45
79 0 28 -4 37 -16 37 -26 0 -13 -91 19 -137 29 -40 24 -57 -14 -51 -19 2 -25
10 -27 38 -1 19 -8 45 -14 58 -15 29 2 98 37 150 14 20 25 40 25 45 0 4 12 26
27 48 27 40 27 42 8 56 -54 39 -115 18 -115 -41 0 -29 -34 -120 -100 -271 -40
-92 -70 -108 -95 -49 -19 47 -51 44 -49 -4 2 -28 -1 -32 -25 -32 l-26 0 7 102
c5 57 5 127 2 156 l-5 52 38 16 c21 9 55 19 76 22 44 6 65 33 42 55 -23 23
-135 31 -180 13 -21 -9 -64 -16 -97 -16 -67 0 -81 -14 -53 -56 14 -22 21 -25
54 -19 l37 6 1 -58 c0 -32 -4 -100 -9 -150 -17 -152 -49 -164 -95 -34 -15 45
-31 81 -34 81 -12 0 -22 -34 -28 -100 -6 -64 -6 -65 -36 -65 -30 0 -30 0 -25
50 8 90 6 148 -7 152 -22 8 -47 -59 -49 -132 -1 -40 -6 -71 -13 -73 -7 -2 -9
28 -4 106 7 132 0 142 -59 81 -39 -40 -42 -48 -48 -114 -6 -77 -21 -90 -27
-23 -6 57 -20 74 -44 52 -13 -12 -19 -31 -19 -61 0 -36 -3 -43 -19 -43 -12 0
-23 11 -30 30 -7 21 -17 30 -31 30 -25 0 -30 -17 57 225 65 182 76 205 153
329 63 103 140 265 140 296 0 37 -32 75 -99 118 -46 30 -67 37 -115 39 -32 1
-68 9 -80 16 -19 13 -57 74 -127 204 -15 28 -35 63 -44 76 -14 22 -14 26 5 50
11 14 42 33 69 42 91 30 183 108 289 245 95 124 139 167 212 210 36 21 72 51
81 67 10 15 33 78 52 139 55 174 74 201 129 182 26 -9 33 -5 104 58 54 48 85
86 106 128 17 33 48 84 70 114 101 137 103 220 6 421 l-41 84 18 34 c29 53
142 180 192 214 45 31 73 77 73 121 0 26 -146 351 -183 407 -14 20 -36 59 -50
86 -14 28 -50 84 -81 125 -61 83 -166 266 -166 291 0 17 121 71 138 60 5 -3
20 -44 34 -91 22 -75 28 -85 48 -85 13 0 26 7 30 15 30 62 35 92 33 203 -1 64
2 117 7 117 20 0 51 -39 58 -75 6 -30 13 -40 27 -40 18 0 20 7 20 55 0 51 -7
66 -71 175 -47 80 -73 135 -77 165 -3 25 -27 97 -53 160 -113 280 -164 440
-199 633 -27 145 -100 288 -233 451 -96 117 -139 189 -158 258 -23 89 -19 124
20 161 36 34 56 66 56 91 0 21 -71 56 -115 56 -48 0 -52 18 -21 80 14 28 30
79 36 112 5 34 19 90 31 126 36 108 18 234 -41 287 -12 11 -40 50 -62 86 -52
88 -143 175 -192 185 -45 8 -118 -1 -145 -18 -27 -17 -37 -4 -22 28 8 18 9 30
2 37 -6 6 -56 12 -113 14 -132 6 -205 29 -316 102 -93 62 -147 115 -138 138 4
8 6 55 6 105 l0 90 33 -8 c17 -3 45 -17 60 -30 32 -27 36 -28 71 -14 37 14 34
51 -7 97 -43 49 -82 113 -68 113 6 0 15 -9 21 -20 6 -10 31 -33 55 -50 57 -39
102 -38 125 2 13 25 13 29 -3 45 -17 17 -19 17 -36 -6 -11 -15 -24 -22 -34
-18 -18 7 -41 72 -33 94 6 14 12 11 41 -17 27 -26 37 -31 48 -21 19 15 37 109
37 196 0 39 3 75 7 78 3 4 17 -2 29 -14 26 -25 38 -12 24 26 -14 36 -13 45 5
45 19 0 57 83 57 125 0 17 -9 53 -20 80 -11 30 -22 88 -25 145 -7 105 -36 216
-72 271 -13 20 -37 65 -53 100 -16 35 -40 76 -54 90 -40 43 -140 102 -182 108
-34 5 -43 12 -66 51 -36 63 -83 79 -178 62 -38 -6 -83 -19 -100 -29 -30 -17
-32 -17 -61 5 -37 27 -61 28 -68 2 -7 -28 -22 -25 -34 6 -9 26 -10 26 -24 8
-19 -27 -49 -7 -53 35 -5 50 -35 38 -43 -17 -8 -61 -16 -65 -82 -42 -31 11
-71 20 -89 20 -43 0 -138 -45 -138 -64 0 -9 25 -28 57 -43 65 -32 76 -49 39
-63 -15 -5 -31 -21 -37 -34 -11 -22 -17 -24 -73 -24 -35 1 -68 -2 -74 -6 -18
-11 -14 -41 8 -61 20 -18 27 -44 13 -46 -5 0 -40 -1 -80 -3 -70 -3 -109 -18
-97 -38 4 -6 27 -7 58 -4 37 5 56 3 71 -8 20 -14 19 -15 -8 -25 -16 -6 -45
-11 -64 -11 -20 0 -45 -8 -55 -17 -10 -9 -38 -19 -61 -22 -41 -6 -42 -7 -42
-46 0 -36 4 -42 35 -58 27 -14 48 -17 96 -12 85 7 90 -2 53 -90 -21 -49 -28
-79 -24 -101 6 -35 -19 -79 -91 -156 -59 -63 -58 -84 7 -142 48 -43 51 -49 40
-72 -15 -34 -14 -69 4 -84 8 -7 15 -25 15 -41 0 -19 11 -38 32 -58 l33 -30
-25 -71 c-23 -66 -23 -71 -7 -87 18 -18 65 -32 197 -60 58 -12 86 -13 125 -5
28 5 54 7 58 2 12 -11 10 -105 -2 -129 -7 -11 -17 -21 -24 -21 -7 0 -74 -27
-151 -60 -157 -68 -199 -74 -291 -39 -52 19 -58 20 -80 5 -13 -9 -37 -32 -52
-51 -32 -40 -45 -43 -80 -15 -19 15 -41 20 -86 20 -59 0 -60 -1 -111 -52 -28
-29 -80 -73 -115 -98 -72 -51 -96 -89 -113 -177 -10 -56 -9 -63 18 -122 l28
-64 -24 -19 c-12 -10 -49 -26 -81 -36 -73 -21 -77 -41 -14 -78 59 -34 60 -60
3 -106 -102 -83 -178 -99 -222 -47 -14 17 -26 35 -26 41 0 14 -51 78 -135 169
-61 66 -78 93 -132 215 -34 76 -79 184 -102 239 -58 145 -148 307 -210 377
-29 33 -32 42 -23 62 14 30 5 177 -15 239 -8 26 -12 59 -9 72 5 18 0 28 -16
39 -34 24 -53 20 -103 -24 -44 -38 -75 -44 -75 -13 0 15 74 129 88 135 19 7
72 92 72 115 0 36 -18 63 -41 63 -34 0 -167 -145 -258 -280 -87 -129 -113
-150 -119 -95 -4 36 -19 55 -42 55 -24 0 -43 -25 -42 -58 0 -15 -8 -41 -18
-57 -11 -17 -26 -64 -34 -104 -9 -41 -26 -91 -39 -110 -34 -52 -39 -68 -46
-145 -4 -52 -11 -72 -24 -80 -16 -9 -22 -7 -35 13 -46 68 -39 68 -123 13 -42
-27 -106 -77 -144 -111 -37 -34 -79 -64 -94 -68 -31 -7 -141 -61 -141 -69 0
-3 7 -19 16 -35 18 -35 6 -59 -30 -59 -11 0 -41 -10 -66 -22 -37 -17 -62 -21
-141 -19 -78 1 -105 -3 -144 -20 -62 -27 -91 -21 -168 38 -107 83 -254 238
-533 563 -293 341 -385 435 -467 476 -28 15 -63 34 -77 44 -14 9 -56 28 -95
40 -38 13 -97 36 -130 52 -69 32 -111 35 -178 11 -36 -13 -50 -14 -59 -5 -9 9
-8 12 8 12 45 0 199 209 222 302 17 66 32 81 65 69 36 -14 117 -14 117 -1 0 6
6 10 13 10 6 0 26 11 42 25 l30 24 -26 1 c-14 0 -48 -7 -75 -15 -55 -17 -74
-19 -74 -7 0 4 20 13 44 20 28 7 61 27 87 52 23 22 44 40 46 40 1 0 3 -13 3
-30 0 -34 19 -40 44 -14 10 10 16 33 16 66 0 49 -1 50 -26 44 -22 -6 -25 -4
-20 9 3 9 6 21 6 26 0 5 7 9 15 9 8 0 15 2 15 4 0 20 -35 178 -54 246 -31 109
-56 243 -56 300 0 46 -23 118 -79 253 -39 91 -52 107 -92 107 -43 0 -73 24
-117 95 -55 88 -96 109 -242 129 -63 9 -117 16 -120 15 -3 0 -27 -8 -55 -16z
m-701 -415 c-3 -12 -13 -37 -22 -57 -12 -28 -17 -32 -20 -17 -5 21 26 96 40
96 5 0 6 -10 2 -22z m6937 -438 c19 -15 20 -19 8 -20 -9 0 -27 9 -40 20 -19
15 -20 19 -8 20 9 0 27 -9 40 -20z m373 -372 c22 -31 21 -61 0 -33 -9 11 -20
28 -25 38 -14 25 7 22 25 -5z m-1446 -99 c62 -15 76 -29 30 -29 -43 0 -88 15
-88 30 0 13 1 12 58 -1z m-6058 -106 c0 -22 -29 -27 -50 -8 -11 10 -20 26 -20
36 0 18 2 18 35 2 19 -9 35 -23 35 -30z m7359 -897 c-9 -10 -49 25 -49 42 0
13 6 11 27 -10 15 -15 25 -30 22 -32z m-3018 -423 c55 -60 151 -206 185 -280
20 -43 40 -105 45 -138 19 -134 162 -553 223 -653 20 -34 60 -81 88 -104 28
-24 75 -67 103 -97 l53 -53 143 57 c79 31 206 86 281 121 86 40 151 64 173 64
26 0 39 6 51 26 25 37 68 30 72 -11 7 -58 37 -59 97 -4 58 54 78 50 85 -16 3
-28 9 -55 13 -62 10 -16 -84 -215 -122 -258 -16 -19 -42 -55 -56 -79 -40 -68
-207 -446 -290 -656 -91 -230 -265 -696 -265 -709 0 -5 -15 -27 -33 -49 -43
-52 -52 -78 -65 -187 -6 -49 -28 -164 -50 -255 -67 -275 -121 -579 -153 -860
-6 -47 -19 -134 -29 -195 -42 -237 -45 -286 -45 -630 0 -264 4 -371 18 -480
30 -236 43 -261 160 -297 104 -31 229 -86 248 -108 13 -15 15 -36 12 -112 -3
-60 0 -108 9 -136 12 -41 18 -46 80 -72 37 -16 124 -45 195 -65 166 -47 173
-54 173 -173 0 -48 7 -145 15 -217 8 -71 18 -213 22 -315 6 -174 5 -187 -15
-226 -15 -30 -32 -45 -64 -59 -124 -53 -153 -68 -241 -128 -55 -37 -110 -67
-133 -71 -68 -13 -198 -53 -249 -78 -34 -16 -51 -30 -53 -45 -5 -35 -27 -46
-79 -39 -27 3 -63 6 -81 5 -24 0 -41 9 -62 31 -34 37 -45 37 -67 3 l-17 -26
-6 24 c-3 13 -18 30 -32 37 -14 7 -35 28 -47 47 -32 55 -48 55 -97 -1 -39 -45
-44 -48 -59 -33 -8 8 -29 65 -44 125 -16 60 -41 142 -55 183 -31 88 -33 130
-8 161 16 19 22 21 40 11 31 -16 52 -63 52 -113 0 -24 8 -59 18 -78 14 -29 22
-35 46 -33 15 1 39 9 53 18 28 19 26 46 -9 103 -29 48 -134 132 -164 132 -36
0 -38 20 -9 93 19 47 41 79 75 111 27 25 56 46 64 46 13 0 13 -4 0 -35 -12
-29 -12 -44 -3 -78 20 -76 32 -87 99 -87 l59 0 7 36 c15 83 -34 224 -79 224
-31 -1 -95 -32 -141 -69 -21 -17 -42 -28 -47 -25 -5 3 -16 20 -23 39 -18 42
-40 54 -113 61 -83 8 -98 -5 -98 -88 0 -62 0 -63 29 -66 17 -2 46 5 68 18 87
49 123 2 72 -94 -15 -28 -29 -53 -30 -55 -2 -2 -36 -5 -76 -5 -80 -1 -134 -25
-165 -72 -14 -22 -13 -26 4 -56 32 -56 109 -50 178 13 51 47 69 51 54 12 -15
-40 -1 -125 38 -233 57 -158 83 -239 83 -258 0 -33 -22 -42 -102 -42 -89 0
-83 -7 -96 119 -8 87 -29 108 -34 34 -3 -45 -6 -49 -41 -66 -21 -10 -46 -31
-55 -47 -22 -38 -39 -44 -68 -25 -27 17 -60 20 -69 5 -4 -7 -17 -4 -36 7 -28
17 -29 17 -45 -5 -15 -21 -21 -23 -72 -16 -32 3 -60 9 -64 13 -4 3 5 29 20 56
21 39 33 51 55 53 22 3 31 -3 45 -28 28 -49 82 -53 82 -6 0 41 -32 69 -86 75
l-48 6 2 45 c2 36 -3 55 -28 93 -21 34 -28 55 -24 72 5 19 0 27 -25 39 -46 24
-57 53 -34 85 11 14 29 30 41 36 12 5 21 14 19 20 -6 18 -39 17 -66 -2 -38
-28 -52 -19 -45 28 4 25 3 39 -4 39 -14 0 -32 -33 -32 -59 0 -27 -24 -27 -57
-1 -20 15 -29 17 -39 9 -22 -18 -17 -41 17 -82 l30 -37 -26 -10 c-14 -5 -33
-10 -41 -10 -9 0 -14 -7 -12 -17 2 -13 14 -19 41 -21 20 -2 37 -6 37 -9 0 -2
-9 -16 -20 -30 -26 -33 -25 -60 2 -69 17 -5 27 0 44 21 19 24 24 26 43 15 32
-17 51 -6 51 30 0 29 13 40 25 20 3 -5 1 -10 -4 -10 -20 0 -11 -21 18 -45 36
-31 55 -77 47 -111 -6 -24 -10 -26 -44 -20 -89 17 -122 18 -137 6 -24 -20 -17
-39 21 -55 48 -20 73 -19 108 4 35 24 46 19 46 -18 0 -33 -39 -73 -94 -96 -36
-15 -186 -30 -261 -27 -16 1 -62 2 -101 2 -66 0 -71 1 -82 25 -15 32 -29 32
-44 -1 -12 -25 -12 -26 -20 -4 -8 21 -9 22 -34 5 -34 -22 -40 -13 -27 37 l11
42 -66 63 c-37 35 -83 72 -103 83 -47 25 -102 87 -135 152 -15 29 -67 120
-116 202 -94 155 -172 303 -181 346 -3 14 -7 176 -8 360 -3 315 -2 337 16 375
19 39 22 40 80 46 68 6 100 20 116 51 12 22 8 75 -32 398 -29 246 -39 386 -69
965 -13 261 -28 454 -42 535 -5 36 -54 198 -108 360 -102 306 -191 583 -281
875 -51 168 -52 172 -54 315 -4 171 -14 242 -60 409 -45 162 -59 263 -59 449
l-1 154 30 21 c37 26 71 60 110 110 22 27 47 43 90 59 33 11 66 25 73 31 21
17 13 53 -22 103 -92 130 -170 265 -318 547 -32 59 -19 71 44 42 29 -14 60
-25 69 -25 21 0 50 -34 84 -97 34 -64 141 -199 213 -271 29 -29 77 -65 105
-80 47 -24 62 -27 152 -27 119 1 156 12 385 120 165 77 211 94 330 119 44 10
100 31 135 51 131 76 142 80 178 67 57 -21 77 -16 84 19 4 20 16 38 34 48 16
9 29 22 29 29 0 15 158 248 202 298 42 48 39 67 -22 117 -12 10 -20 23 -17 30
5 17 78 57 103 57 11 0 33 13 47 29 16 19 41 33 64 37 21 4 45 10 53 14 18 10
37 0 71 -37z m3221 -1118 c19 -16 42 -25 64 -25 20 0 45 -5 56 -11 17 -9 19
-17 14 -51 -4 -22 -13 -50 -21 -61 -20 -28 -19 -66 1 -74 9 -3 31 2 50 11 46
21 71 20 79 -4 3 -10 21 -28 40 -40 66 -41 119 -114 198 -273 43 -86 89 -188
102 -228 29 -83 59 -138 111 -200 84 -100 159 -222 240 -389 45 -92 52 -136
30 -190 -9 -22 -16 -65 -16 -94 0 -30 -5 -76 -11 -103 -11 -46 -6 -106 16
-218 4 -19 1 -37 -8 -49 -13 -18 -18 -19 -56 -8 -22 7 -76 39 -120 72 -99 75
-115 82 -231 89 -79 6 -107 12 -165 40 -81 38 -95 53 -95 97 0 17 -9 60 -19
95 -11 35 -45 161 -75 279 -31 118 -65 247 -76 285 -10 39 -47 187 -81 330
-35 145 -73 282 -87 310 -14 28 -39 77 -55 110 -16 33 -40 74 -53 92 -31 41
-30 55 4 95 15 18 45 57 66 86 21 28 45 52 53 52 8 0 28 -11 45 -25z m-9201
-1605 c28 -16 23 -29 -18 -47 -48 -20 -126 -27 -120 -10 3 10 100 67 114 67 2
0 13 -5 24 -10z m10302 -309 c34 -41 26 -74 -28 -111 -23 -16 -45 -27 -47 -25
-3 3 1 29 8 58 7 28 15 64 18 80 8 35 18 34 49 -2z m-7474 -81 c12 -44 28
-114 36 -156 8 -42 22 -88 30 -102 20 -36 87 -193 129 -300 67 -172 145 -343
224 -491 l81 -151 -14 -41 c-24 -67 -19 -113 24 -208 86 -191 83 -254 -32
-706 -20 -77 -48 -223 -62 -325 -15 -102 -33 -214 -41 -249 -17 -76 -13 -83
58 -100 65 -15 167 -14 266 5 46 8 89 13 96 11 7 -3 16 -31 19 -65 4 -33 17
-89 30 -124 33 -85 49 -186 50 -316 2 -132 -14 -172 -83 -212 -56 -32 -102
-91 -130 -167 -27 -71 -37 -162 -21 -191 6 -12 69 -59 139 -105 173 -114 305
-222 445 -366 65 -67 138 -135 162 -150 25 -16 42 -31 38 -35 -12 -12 -128 -5
-153 9 -14 8 -35 14 -47 15 -18 0 -23 6 -23 26 0 29 -49 84 -75 84 -22 0 -65
-45 -65 -69 0 -37 -19 -31 -51 16 -73 106 -118 140 -146 112 -8 -8 -17 -8 -32
0 -25 14 -36 34 -45 84 -4 23 -13 37 -21 37 -13 0 -15 -27 -15 -160 l0 -160
-85 0 c-84 0 -85 0 -91 28 -24 106 -100 314 -120 329 -21 15 -38 7 -28 -16 3
-9 15 -45 24 -81 10 -36 30 -105 44 -155 25 -85 26 -90 9 -103 -21 -15 -121
-7 -140 12 -7 6 -18 38 -23 71 -23 130 -88 267 -106 222 -3 -9 4 -36 15 -60
12 -24 26 -84 33 -132 14 -108 8 -115 -94 -115 -81 0 -91 11 -59 66 21 36 22
72 1 59 -6 -4 -24 -33 -40 -64 -29 -59 -55 -80 -74 -61 -7 7 -6 20 3 43 18 43
42 196 35 224 -3 12 -12 27 -19 33 -19 16 -31 -7 -39 -71 -3 -30 -10 -69 -16
-86 -11 -32 -64 -78 -79 -68 -5 2 -17 40 -26 82 -19 84 -30 113 -45 113 -13 0
-13 -41 1 -94 7 -28 8 -68 2 -112 l-8 -69 -34 -3 c-23 -2 -40 3 -56 18 -15 14
-25 18 -30 11 -10 -18 -23 -12 -27 11 -2 16 -18 30 -50 45 -25 12 -49 31 -53
43 -3 11 -11 20 -17 20 -5 0 -8 -6 -5 -14 3 -8 9 -43 13 -77 6 -50 4 -61 -7
-57 -8 3 -19 30 -25 64 -6 32 -20 78 -32 101 -12 23 -22 47 -22 53 0 6 20 19
45 30 54 23 75 62 75 137 0 56 -15 82 -73 124 -101 73 -220 -1 -219 -137 0
-69 22 -108 70 -127 59 -24 88 -65 108 -154 16 -73 16 -77 -2 -90 -24 -18 -31
-17 -52 8 -54 67 -75 89 -87 89 -27 0 -25 -19 5 -53 16 -19 30 -37 30 -41 0
-3 -15 -6 -33 -6 -23 0 -41 8 -57 25 -29 31 -33 31 -45 3 -8 -18 -20 -24 -52
-26 -41 -3 -103 19 -103 37 0 5 -43 36 -96 68 l-96 58 -39 85 c-38 81 -119
363 -119 414 0 14 -9 45 -20 71 -11 26 -20 62 -20 81 0 40 33 167 62 239 11
28 25 73 31 100 5 28 30 138 54 245 45 196 69 270 94 286 8 5 61 14 118 20 78
9 108 16 117 29 16 22 22 79 29 295 7 210 21 374 39 455 55 244 88 334 151
404 83 91 123 228 125 421 1 112 10 155 59 279 22 57 50 142 62 190 26 106
110 361 178 536 49 127 93 243 113 298 6 15 14 27 18 27 4 0 18 -36 29 -80z
m6148 -3241 c41 -15 73 -48 95 -99 11 -25 46 -82 80 -128 75 -104 109 -186
116 -278 4 -60 -2 -97 -42 -256 -58 -236 -101 -345 -162 -410 -25 -27 -50 -63
-56 -80 -10 -28 -12 -30 -19 -12 -4 10 -5 61 -1 113 5 88 4 93 -14 89 -17 -3
-19 -13 -18 -116 1 -86 -1 -112 -11 -112 -9 0 -15 24 -20 78 -8 94 -13 114
-28 109 -13 -4 -13 -30 -2 -119 8 -56 7 -57 -16 -51 -13 3 -31 12 -40 20 -11
9 -26 12 -44 7 -30 -7 -45 6 -45 41 0 12 -5 26 -12 33 -19 19 -44 -4 -68 -63
-23 -58 -46 -65 -37 -11 5 30 3 33 -36 45 -37 11 -43 11 -55 -6 -7 -10 -12
-31 -10 -48 l3 -30 -105 -2 c-116 -2 -120 0 -120 60 0 48 -17 47 -38 -3 -9
-22 -21 -38 -27 -37 -5 2 -13 29 -16 61 -7 64 -14 75 -32 57 -7 -7 -12 -38
-11 -77 1 -79 -21 -90 -31 -16 -15 102 -20 117 -40 117 -13 0 -22 -10 -29 -32
-13 -47 -26 -41 -26 12 0 32 -4 45 -14 45 -19 0 -28 -25 -32 -85 -4 -56 -30
-98 -63 -103 -24 -4 -26 6 -10 61 8 31 8 42 -4 55 -8 10 -17 47 -20 84 -3 50
-12 80 -36 121 -78 137 -86 204 -74 627 l8 275 35 3 c19 2 89 -4 155 -13 l120
-17 250 31 c138 18 304 40 370 50 144 22 194 25 232 10z m-6616 -868 c45 -44
49 -52 49 -94 0 -60 -28 -82 -89 -72 -56 9 -86 36 -101 89 -16 59 -7 96 24 96
13 0 29 7 36 15 19 23 29 19 81 -34z m8123 -136 c-4 -8 -8 -15 -10 -15 -2 0
-4 7 -4 15 0 8 4 15 10 15 5 0 7 -7 4 -15z m-69 -210 c-6 -54 -10 -65 -24 -63
-11 3 -15 13 -14 33 2 32 33 108 40 101 3 -2 2 -34 -2 -71z m-978 -73 c-40 -5
-46 6 -18 29 24 19 24 19 35 -3 11 -21 9 -23 -17 -26z m-9539 26 c7 -7 12 -16
12 -20 0 -15 -15 -8 -28 12 -13 22 -3 27 16 8z m9832 -9 c0 -5 -7 -9 -15 -9
-15 0 -20 12 -9 23 8 8 24 -1 24 -14z m377 -5 c-9 -9 -28 6 -21 18 4 6 10 6
17 -1 6 -6 8 -13 4 -17z m-6290 -30 c-12 -13 -37 6 -37 28 l0 22 22 -21 c12
-13 19 -25 15 -29z m2423 17 c0 -12 -20 -25 -27 -18 -7 7 6 27 18 27 5 0 9 -4
9 -9z m-80 -11 c0 -5 -4 -10 -10 -10 -5 0 -10 5 -10 10 0 6 5 10 10 10 6 0 10
-4 10 -10z"/>
<path d="M6391 692 c-57 -28 -50 -41 19 -40 66 1 76 7 60 38 -13 25 -34 25
-79 2z"/>
<path d="M6521 447 c-45 -23 -71 -51 -59 -63 4 -3 20 3 35 14 16 11 44 24 63
29 35 9 48 35 20 41 -9 1 -35 -8 -59 -21z"/>
<path d="M3243 603 c-13 -5 -18 -60 -7 -87 7 -19 45 -21 62 -4 18 18 14 56 -8
78 -21 21 -26 22 -47 13z"/>
<path d="M6870 10105 c-16 -19 -5 -80 31 -168 31 -74 38 -127 17 -127 -7 0
-40 7 -73 15 -76 18 -105 19 -105 1 0 -23 28 -39 103 -59 176 -47 161 -39 169
-87 10 -56 52 -120 78 -120 37 0 35 34 -8 132 -9 19 35 5 96 -32 78 -46 126
-64 148 -56 25 9 -1 43 -43 56 -21 7 -54 22 -73 34 -19 12 -48 27 -64 34 -21
10 -26 16 -18 24 8 8 29 8 79 -1 99 -18 171 -17 189 1 21 21 8 95 -23 126 -22
22 -31 24 -101 20 -69 -3 -84 -8 -144 -45 -38 -23 -68 -37 -68 -32 0 5 18 45
40 89 22 44 40 90 40 102 -1 38 -49 84 -102 97 -68 16 -153 14 -168 -4z"/>
<path d="M541 9092 c-14 -9 -36 -35 -51 -58 -14 -23 -51 -69 -81 -103 -51 -56
-58 -60 -70 -45 -8 10 -14 40 -14 73 0 55 0 56 -29 56 -24 0 -32 -6 -43 -32
-11 -27 -10 -34 3 -47 20 -20 14 -60 -9 -64 -10 -2 -49 15 -87 37 -70 42 -106
49 -141 30 -19 -10 -20 -18 -15 -142 4 -129 5 -132 32 -155 25 -22 34 -24 91
-18 58 6 63 5 63 -13 0 -11 -10 -41 -22 -66 l-22 -46 44 -44 c51 -51 97 -66
123 -41 15 15 39 83 52 149 12 61 45 21 69 -85 8 -38 17 -54 30 -56 17 -4 18
1 11 57 l-7 62 55 -27 c60 -30 87 -27 87 9 0 13 9 50 20 82 26 76 26 85 -7 85
-16 0 -34 4 -42 9 -25 16 -1 31 48 31 70 0 85 21 78 106 -4 54 -14 84 -58 170
-33 63 -60 104 -69 103 -8 0 -26 -8 -39 -17z m133 -299 c-5 -15 -17 -29 -26
-31 -16 -3 -16 -1 -3 25 8 15 15 35 15 43 0 11 3 11 12 2 8 -8 9 -20 2 -39z
m-374 -333 c0 -5 -5 -10 -11 -10 -5 0 -7 5 -4 10 3 6 8 10 11 10 2 0 4 -4 4
-10z"/>
</g>
</svg>
