<?xml version="1.0" standalone="no"?>
<!DOCTYPE svg PUBLIC "-//W3C//DTD SVG 20010904//EN"
 "http://www.w3.org/TR/2001/REC-SVG-20010904/DTD/svg10.dtd">
<svg version="1.0" xmlns="http://www.w3.org/2000/svg"
 width="1280.000000pt" height="1280.000000pt" viewBox="0 0 1280.000000 1280.000000"
 preserveAspectRatio="xMidYMid meet">
<metadata>
Created by potrace 1.15, written by Peter Selinger 2001-2017
</metadata>
<g transform="translate(0.000000,1280.000000) scale(0.100000,-0.100000)"
fill="#000000" stroke="none">
<path d="M3817 12764 c-20 -20 -43 -57 -51 -82 -18 -52 -21 -155 -6 -231 15
-79 3 -86 -94 -55 -103 32 -196 33 -268 1 -64 -29 -86 -52 -71 -75 5 -10 20
-19 33 -20 13 -2 56 -37 97 -78 75 -77 79 -78 120 -41 28 25 37 18 23 -19 -6
-15 -8 -39 -5 -51 6 -25 39 -63 55 -63 5 0 14 -9 20 -20 6 -11 16 -20 22 -20
6 0 16 -7 22 -15 7 -9 30 -16 58 -17 55 -3 81 16 99 70 15 46 6 164 -15 197
-9 14 -12 25 -6 25 6 0 8 5 5 10 -4 6 11 2 32 -9 44 -23 188 -41 226 -28 17 5
27 17 30 35 9 49 7 91 -3 97 -5 3 -19 25 -30 48 -36 75 -70 102 -117 91 l-27
-7 23 32 c24 33 23 37 -17 79 -36 39 -68 89 -82 130 -8 25 -20 47 -26 49 -5 2
-27 -13 -47 -33z"/>
<path d="M9983 12777 c-6 -12 -16 -35 -24 -50 -7 -16 -38 -52 -69 -80 -31 -29
-59 -57 -63 -63 -3 -6 5 -26 18 -44 33 -44 31 -52 -5 -33 -44 22 -72 10 -121
-49 -23 -29 -49 -58 -57 -65 -8 -6 -12 -18 -9 -25 2 -7 1 -20 -4 -29 -16 -30
12 -77 56 -95 55 -22 158 -19 208 7 21 11 36 15 32 9 -3 -5 -1 -10 5 -10 6 0
5 -9 -4 -22 -20 -31 -40 -168 -32 -213 5 -26 14 -39 32 -45 32 -13 104 -13
104 -1 0 5 21 20 46 33 74 37 97 63 91 104 -5 32 5 46 18 24 3 -5 14 -14 24
-20 15 -7 30 1 80 44 41 35 77 58 106 65 24 6 47 16 51 22 11 18 -29 62 -82
91 -43 24 -60 28 -139 28 -49 0 -109 -5 -133 -10 -66 -16 -76 0 -49 76 31 87
31 232 -1 296 -13 25 -33 53 -46 62 -22 14 -24 13 -33 -7z"/>
<path d="M11046 12614 c-3 -9 -6 -25 -6 -36 0 -28 -28 -85 -67 -137 -18 -24
-33 -49 -33 -55 0 -6 17 -25 37 -43 l38 -31 -46 5 c-44 5 -48 3 -73 -29 -14
-19 -26 -39 -26 -45 0 -5 -10 -29 -22 -54 -43 -88 -12 -152 80 -164 37 -5 147
32 180 60 30 25 58 21 42 -5 -20 -31 -3 -193 25 -236 14 -22 62 -37 71 -23 3
5 14 9 26 9 25 0 133 110 142 145 4 14 2 34 -4 45 -15 29 -13 30 24 15 34 -14
34 -14 60 20 14 18 26 37 26 42 1 15 45 58 88 86 24 16 42 34 39 40 -6 20 -79
56 -125 63 -57 9 -141 -9 -222 -47 -38 -18 -66 -26 -68 -20 -2 6 -9 11 -15 11
-9 0 -12 35 -12 118 -1 136 -18 185 -86 246 -42 39 -63 45 -73 20z"/>
<path d="M1931 12473 c6 -16 9 -59 7 -97 l-3 -70 35 -9 35 -9 -32 -16 c-35
-17 -40 -34 -35 -114 5 -65 39 -100 84 -87 35 9 104 72 114 101 7 22 34 24 34
3 0 -19 47 -94 73 -117 44 -39 86 -9 110 78 18 65 16 88 -11 100 -13 6 -10 8
13 13 27 6 31 11 36 56 4 28 15 67 25 87 9 21 14 41 10 45 -15 15 -89 3 -129
-21 -23 -13 -60 -47 -81 -74 -24 -31 -45 -48 -53 -45 -8 3 -26 29 -40 57 -14
28 -34 63 -45 79 -24 34 -87 67 -127 67 -29 0 -30 -1 -20 -27z"/>
<path d="M1393 12300 c-40 -24 -69 -80 -85 -164 -7 -36 -19 -68 -26 -71 -7 -3
-28 6 -46 20 -77 59 -196 84 -241 51 -18 -13 -18 -15 12 -49 18 -20 41 -57 52
-82 21 -48 26 -50 65 -35 29 10 35 0 11 -20 -22 -18 -18 -50 11 -95 53 -80 93
-94 138 -46 21 22 28 41 32 87 8 83 12 94 29 70 18 -24 110 -66 145 -66 15 0
33 7 40 15 7 8 9 15 6 15 -4 0 -3 7 2 16 6 11 4 37 -5 73 -17 65 -28 81 -54
81 -23 0 -25 16 -4 24 20 7 18 32 -5 81 -11 22 -19 57 -20 78 0 43 -10 46 -57
17z"/>
<path d="M2608 12093 c7 -3 16 -2 19 1 4 3 -2 6 -13 5 -11 0 -14 -3 -6 -6z"/>
<path d="M3050 12096 c0 -2 13 -6 29 -8 17 -2 28 -1 25 4 -5 8 -54 12 -54 4z"/>
<path d="M2641 12087 c2 -2 18 -11 34 -21 l30 -17 -24 20 c-13 12 -28 21 -34
21 -6 0 -8 -1 -6 -3z"/>
<path d="M3000 12080 c-8 -5 -10 -10 -5 -10 6 0 17 5 25 10 8 5 11 10 5 10 -5
0 -17 -5 -25 -10z"/>
<path d="M2550 12071 c0 -6 4 -13 10 -16 6 -3 7 1 4 9 -7 18 -14 21 -14 7z"/>
<path d="M2939 12033 l-34 -38 38 34 c20 19 37 36 37 38 0 8 -8 0 -41 -34z"/>
<path d="M2572 12020 c0 -14 2 -19 5 -12 2 6 2 18 0 25 -3 6 -5 1 -5 -13z"/>
<path d="M2730 12016 c0 -2 8 -10 18 -17 15 -13 16 -12 3 4 -13 16 -21 21 -21
13z"/>
<path d="M3071 12004 c0 -11 3 -14 6 -6 3 7 2 16 -1 19 -3 4 -6 -2 -5 -13z"/>
<path d="M2581 11974 c0 -11 3 -14 6 -6 3 7 2 16 -1 19 -3 4 -6 -2 -5 -13z"/>
<path d="M2893 11978 c-15 -20 -25 -38 -20 -38 3 0 12 11 21 25 17 26 16 35
-1 13z"/>
<path d="M3071 11954 c0 -11 3 -14 6 -6 3 7 2 16 -1 19 -3 4 -6 -2 -5 -13z"/>
<path d="M2581 11934 c0 -11 3 -14 6 -6 3 7 2 16 -1 19 -3 4 -6 -2 -5 -13z"/>
<path d="M2790 11930 c6 -11 13 -20 16 -20 2 0 0 9 -6 20 -6 11 -13 20 -16 20
-2 0 0 -9 6 -20z"/>
<path d="M10590 11891 c0 -17 2 -31 4 -31 8 0 13 51 5 56 -5 3 -9 -9 -9 -25z"/>
<path d="M10641 11874 c13 -17 26 -30 28 -27 3 2 -8 16 -24 31 l-28 27 24 -31z"/>
<path d="M2618 11883 c6 -2 18 -2 25 0 6 3 1 5 -13 5 -14 0 -19 -2 -12 -5z"/>
<path d="M3032 11853 c9 -2 21 -16 27 -31 5 -15 10 -21 10 -14 2 24 -19 52
-37 51 -16 -1 -16 -2 0 -6z"/>
<path d="M10576 11833 c-6 -14 -5 -15 5 -6 7 7 10 15 7 18 -3 3 -9 -2 -12 -12z"/>
<path d="M12059 11812 c-15 -15 -49 -38 -78 -51 -53 -25 -53 -26 -33 -79 3 -8
-6 -6 -27 5 -30 18 -31 17 -74 -6 -68 -37 -78 -47 -84 -85 -4 -27 -1 -42 12
-56 23 -26 115 -53 149 -44 25 6 37 -8 17 -21 -15 -9 -70 -129 -68 -146 8 -49
54 -63 130 -41 62 17 77 28 77 55 0 19 1 19 18 4 24 -22 30 -21 83 3 24 11 61
20 82 20 41 0 45 9 21 50 -26 42 -88 77 -164 91 -41 7 -71 18 -74 26 -3 8 7
33 23 56 56 82 74 190 39 235 -15 17 -20 16 -49 -16z"/>
<path d="M10682 11775 c0 -16 2 -22 5 -12 2 9 2 23 0 30 -3 6 -5 -1 -5 -18z"/>
<path d="M3056 11775 c-3 -9 -6 -24 -5 -33 0 -9 5 -4 10 12 9 32 6 48 -5 21z"/>
<path d="M10550 11783 c0 -6 8 -17 18 -24 16 -13 16 -13 2 6 -8 11 -16 22 -17
24 -2 2 -3 0 -3 -6z"/>
<path d="M2603 11730 c5 -29 18 -57 31 -67 21 -18 21 -18 4 2 -9 11 -20 40
-24 63 -4 23 -10 44 -14 47 -4 2 -3 -18 3 -45z"/>
<path d="M2796 11743 c-6 -14 -5 -15 5 -6 7 7 10 15 7 18 -3 3 -9 -2 -12 -12z"/>
<path d="M2860 11756 c0 -2 8 -10 18 -17 15 -13 16 -12 3 4 -13 16 -21 21 -21
13z"/>
<path d="M10828 11743 c7 -3 16 -2 19 1 4 3 -2 6 -13 5 -11 0 -14 -3 -6 -6z"/>
<path d="M10890 11743 c8 -2 21 -7 29 -9 11 -3 11 -7 0 -22 -12 -15 -11 -15 7
1 16 15 17 19 4 27 -8 5 -24 9 -35 9 -14 0 -15 -2 -5 -6z"/>
<path d="M10765 11720 c-3 -6 1 -7 9 -4 18 7 21 14 7 14 -6 0 -13 -4 -16 -10z"/>
<path d="M2769 11703 c-13 -16 -12 -17 4 -4 16 13 21 21 13 21 -2 0 -10 -8
-17 -17z"/>
<path d="M2910 11695 c13 -14 26 -25 28 -25 3 0 -5 11 -18 25 -13 14 -26 25
-28 25 -3 0 5 -11 18 -25z"/>
<path d="M3032 11692 c-11 -25 -11 -25 4 -10 9 9 15 21 13 27 -2 6 -10 -2 -17
-17z"/>
<path d="M10880 11675 c-7 -9 -11 -17 -9 -20 3 -2 10 5 17 15 14 24 10 26 -8
5z"/>
<path d="M573 11658 c-64 -73 -63 -186 3 -336 15 -34 21 -58 14 -60 -5 -2 -10
-9 -10 -15 0 -9 -35 -12 -118 -12 -134 0 -182 -15 -245 -79 -49 -49 -49 -73 1
-81 49 -8 98 -30 142 -64 55 -43 65 -44 99 -5 17 18 32 34 34 34 3 0 3 -19 0
-42 -2 -26 2 -49 9 -58 13 -16 99 -60 117 -60 5 0 14 -7 21 -15 8 -9 22 -12
43 -9 36 7 87 26 87 34 1 3 5 25 9 49 7 35 4 58 -14 113 -12 38 -33 80 -45 93
-25 27 -15 37 25 27 23 -7 101 -1 185 12 47 7 84 65 59 90 -5 6 -9 19 -9 29 0
10 -28 46 -62 78 -64 61 -95 72 -139 49 -23 -13 -24 -7 -3 25 22 34 15 46 -51
90 -36 23 -69 56 -88 86 -16 27 -33 49 -37 49 -3 0 -16 -10 -27 -22z"/>
<path d="M2734 11664 c-18 -14 -18 -15 4 -4 12 6 22 13 22 15 0 8 -5 6 -26
-11z"/>
<path d="M7310 11634 c-11 -26 -20 -56 -21 -68 0 -11 -8 -33 -17 -47 -54 -83
-73 -109 -90 -121 -35 -24 -112 -121 -112 -141 0 -10 26 -46 58 -79 47 -50 53
-60 32 -54 -108 29 -119 30 -159 11 -23 -10 -43 -26 -46 -36 -4 -11 -15 -24
-26 -29 -10 -6 -19 -20 -19 -31 0 -12 -13 -34 -30 -49 -16 -15 -30 -36 -30
-47 0 -10 -14 -29 -30 -43 -28 -23 -30 -28 -20 -56 7 -20 8 -39 1 -56 -7 -20
-4 -36 15 -75 23 -45 29 -51 82 -67 31 -10 67 -22 79 -27 15 -5 61 -1 130 11
150 27 146 26 198 66 39 29 46 32 40 15 -7 -24 4 -27 24 -8 7 6 0 -13 -17 -43
-27 -50 -30 -64 -32 -165 -1 -60 -2 -118 -1 -127 0 -10 1 -33 2 -50 2 -51 35
-118 59 -118 12 0 32 -7 45 -16 21 -14 27 -14 45 -1 13 9 36 13 63 10 39 -4
43 -2 59 26 10 19 25 31 37 31 11 0 25 9 31 20 6 11 26 26 45 34 18 8 38 24
45 35 6 12 17 21 24 21 7 0 21 20 31 46 16 41 16 49 2 92 -9 26 -15 48 -14 49
2 1 22 -11 46 -28 24 -16 53 -29 63 -29 11 0 46 28 78 63 91 97 144 147 155
147 6 0 40 14 78 32 77 37 84 56 41 107 -57 69 -193 121 -312 121 -81 0 -234
-28 -327 -60 -57 -20 -60 -20 -73 -3 -7 10 -20 17 -28 15 -18 -4 -18 -5 5 86
28 110 38 226 29 334 -10 123 -62 233 -141 302 -28 25 -57 46 -64 46 -7 0 -21
-21 -33 -46z"/>
<path d="M2985 11650 c-13 -6 -15 -9 -5 -9 8 0 22 4 30 9 18 12 2 12 -25 0z"/>
<path d="M2670 11636 c4 -4 16 -4 26 2 16 9 14 10 -8 9 -15 -1 -23 -6 -18 -11z"/>
<path d="M10195 11605 c-16 -8 -56 -13 -88 -12 -61 1 -76 -8 -77 -48 -1 -17
-3 -16 -16 8 -14 27 -20 30 -59 29 -86 -1 -145 -30 -145 -72 0 -46 74 -130
114 -130 9 0 16 -7 16 -15 0 -8 -5 -15 -11 -15 -13 0 -85 -54 -111 -84 -10
-10 -18 -25 -18 -32 0 -20 44 -67 66 -70 102 -16 124 -16 130 0 9 23 22 20 26
-6 3 -21 10 -24 68 -28 36 -3 75 -11 88 -18 12 -7 27 -10 32 -7 14 9 12 57 -4
97 -15 34 -84 106 -125 127 -35 19 -25 44 32 78 70 42 106 82 121 134 12 43
11 80 -2 78 -4 0 -20 -7 -37 -14z"/>
<path d="M10682 11600 c0 -14 2 -19 5 -12 2 6 2 18 0 25 -3 6 -5 1 -5 -13z"/>
<path d="M10817 11590 c3 -11 -1 -28 -8 -38 -13 -15 -12 -16 4 -3 18 14 23 46
8 55 -5 4 -7 -3 -4 -14z"/>
<path d="M10519 11587 c5 -5 24 -7 42 -5 33 3 33 4 -8 8 -23 3 -39 2 -34 -3z"/>
<path d="M10691 11544 c0 -11 3 -14 6 -6 3 7 2 16 -1 19 -3 4 -6 -2 -5 -13z"/>
<path d="M8152 11515 c0 -16 2 -22 5 -12 2 9 2 23 0 30 -3 6 -5 -1 -5 -18z"/>
<path d="M10700 11513 c0 -6 8 -17 18 -24 16 -13 16 -13 2 6 -8 11 -16 22 -17
24 -2 2 -3 0 -3 -6z"/>
<path d="M10754 11494 c-18 -14 -18 -15 4 -4 12 6 22 13 22 15 0 8 -5 6 -26
-11z"/>
<path d="M8216 11477 c3 -10 9 -15 12 -12 3 3 0 11 -7 18 -10 9 -11 8 -5 -6z"/>
<path d="M8242 11395 c0 -16 2 -22 5 -12 2 9 2 23 0 30 -3 6 -5 -1 -5 -18z"/>
<path d="M8110 11401 c0 -6 4 -13 10 -16 6 -3 7 1 4 9 -7 18 -14 21 -14 7z"/>
<path d="M3124 11390 c-53 -20 -106 -119 -116 -215 -4 -41 -28 -43 -79 -5 -77
55 -170 71 -233 38 -17 -9 -16 -12 12 -41 16 -18 42 -56 56 -84 24 -49 28 -52
52 -43 41 16 46 12 23 -20 l-22 -29 31 -51 c18 -28 32 -54 32 -58 0 -14 46
-27 74 -22 40 7 68 56 70 123 0 29 5 55 9 58 5 4 31 -9 58 -27 92 -61 152 -54
153 18 1 87 -29 148 -71 148 -11 0 -8 6 8 19 l23 18 -22 51 c-12 28 -22 66
-22 86 0 40 -7 47 -36 36z"/>
<path d="M8360 11360 c-8 -5 -10 -10 -5 -10 6 0 17 5 25 10 8 5 11 10 5 10 -5
0 -17 -5 -25 -10z"/>
<path d="M8478 11338 c-10 -10 -14 -18 -9 -18 10 0 36 29 30 34 -2 1 -12 -6
-21 -16z"/>
<path d="M8314 11334 c-18 -14 -18 -15 4 -4 12 6 22 13 22 15 0 8 -5 6 -26
-11z"/>
<path d="M8072 11293 c-15 -48 -8 -55 8 -8 7 20 10 38 8 41 -3 2 -10 -13 -16
-33z"/>
<path d="M8435 11289 c-4 -6 -5 -12 -2 -15 2 -3 7 2 10 11 7 17 1 20 -8 4z"/>
<path d="M9085 11255 c-3 -14 -7 -37 -10 -51 -3 -14 -17 -44 -32 -67 l-26 -41
27 -22 c33 -29 33 -36 1 -28 -34 8 -49 -6 -75 -75 -20 -54 -20 -61 -6 -95 13
-32 19 -36 51 -36 39 0 135 37 135 51 0 5 7 9 15 9 11 0 15 -12 15 -48 0 -70
26 -140 53 -144 33 -5 70 17 106 63 28 34 32 47 28 75 -5 31 -4 33 14 24 24
-14 35 -7 55 33 9 18 34 48 57 68 l41 36 -29 19 c-46 30 -126 26 -206 -12 -37
-18 -71 -29 -76 -25 -6 3 -12 43 -15 87 -5 94 -38 163 -88 189 -29 15 -30 15
-35 -10z"/>
<path d="M8405 11250 c-16 -7 -17 -9 -3 -9 9 -1 20 4 23 9 7 11 7 11 -20 0z"/>
<path d="M8175 11229 c-16 -10 -25 -19 -19 -19 7 0 22 9 35 20 30 24 23 24
-16 -1z"/>
<path d="M8242 11220 c0 -14 2 -19 5 -12 2 6 2 18 0 25 -3 6 -5 1 -5 -13z"/>
<path d="M8377 11209 c4 -13 8 -18 11 -10 2 7 -1 18 -6 23 -8 8 -9 4 -5 -13z"/>
<path d="M8093 11203 c9 -2 25 -2 35 0 9 3 1 5 -18 5 -19 0 -27 -2 -17 -5z"/>
<path d="M8251 11164 c0 -11 3 -14 6 -6 3 7 2 16 -1 19 -3 4 -6 -2 -5 -13z"/>
<path d="M8360 11165 c-7 -9 -11 -17 -9 -20 3 -2 10 5 17 15 14 24 10 26 -8 5z"/>
<path d="M8260 11131 c0 -6 4 -13 10 -16 6 -3 7 1 4 9 -7 18 -14 21 -14 7z"/>
<path d="M1105 10930 c10 -11 20 -20 23 -20 3 0 -3 9 -13 20 -10 11 -20 20
-23 20 -3 0 3 -9 13 -20z"/>
<path d="M1061 10924 c0 -11 3 -14 6 -6 3 7 2 16 -1 19 -3 4 -6 -2 -5 -13z"/>
<path d="M10113 10890 c0 -25 2 -35 4 -22 2 12 2 32 0 45 -2 12 -4 2 -4 -23z"/>
<path d="M10075 10910 c-3 -6 1 -7 9 -4 18 7 21 14 7 14 -6 0 -13 -4 -16 -10z"/>
<path d="M2095 10883 c4 -16 10 -62 14 -103 6 -73 7 -75 36 -80 l29 -5 -28
-18 c-27 -18 -28 -22 -24 -85 3 -58 7 -71 31 -94 15 -16 32 -28 38 -28 36 0
120 75 134 119 9 28 21 26 29 -3 7 -27 96 -126 113 -126 19 0 66 46 68 66 2
10 7 38 13 62 8 36 7 45 -9 66 -19 24 -19 25 3 28 20 3 24 10 28 63 3 33 11
70 18 82 21 38 15 53 -22 53 -19 0 -47 -5 -63 -11 -33 -12 -96 -71 -124 -116
-27 -44 -50 -42 -73 6 -42 89 -119 151 -187 151 -29 0 -31 -2 -24 -27z"/>
<path d="M1171 10888 c9 -7 14 -19 12 -25 -6 -18 4 -16 11 2 3 9 -3 19 -17 25
-19 10 -20 9 -6 -2z"/>
<path d="M12450 10889 c-8 -5 -49 -8 -90 -7 l-75 3 -3 -32 c-3 -31 -22 -48
-22 -20 0 7 -6 21 -13 31 -11 15 -27 18 -83 17 -38 0 -70 -5 -72 -11 -2 -5
-10 -10 -17 -10 -21 0 -28 -55 -11 -88 18 -35 81 -92 101 -92 8 0 15 -7 15
-15 0 -8 -9 -15 -19 -15 -26 0 -107 -55 -128 -87 -15 -23 -15 -26 4 -51 37
-50 183 -76 183 -32 0 23 19 8 22 -17 3 -25 8 -29 53 -34 28 -4 65 -14 82 -23
46 -23 53 -20 53 24 0 62 -21 100 -89 161 -33 31 -61 61 -61 67 0 6 19 20 43
31 100 46 148 97 162 174 8 39 -4 48 -35 26z"/>
<path d="M9923 10883 c9 -2 23 -2 30 0 6 3 -1 5 -18 5 -16 0 -22 -2 -12 -5z"/>
<path d="M9988 10883 c7 -3 16 -2 19 1 4 3 -2 6 -13 5 -11 0 -14 -3 -6 -6z"/>
<path d="M1061 10854 c0 -11 3 -14 6 -6 3 7 2 16 -1 19 -3 4 -6 -2 -5 -13z"/>
<path d="M9854 10854 c9 -8 16 -20 16 -26 0 -6 3 -9 6 -6 8 9 -14 48 -27 48
-6 0 -3 -7 5 -16z"/>
<path d="M9902 10845 c0 -16 2 -22 5 -12 2 9 2 23 0 30 -3 6 -5 -1 -5 -18z"/>
<path d="M9695 10850 c-3 -6 1 -7 9 -4 18 7 21 14 7 14 -6 0 -13 -4 -16 -10z"/>
<path d="M1230 10846 c0 -2 7 -7 16 -10 8 -3 12 -2 9 4 -6 10 -25 14 -25 6z"/>
<path d="M1080 10801 c0 -6 4 -13 10 -16 6 -3 7 1 4 9 -7 18 -14 21 -14 7z"/>
<path d="M9655 10799 c-4 -6 -5 -12 -2 -15 2 -3 7 2 10 11 7 17 1 20 -8 4z"/>
<path d="M10045 10748 l-40 -43 43 40 c23 21 42 40 42 42 0 8 -9 0 -45 -39z"/>
<path d="M1106 10757 c3 -10 9 -15 12 -12 3 3 0 11 -7 18 -10 9 -11 8 -5 -6z"/>
<path d="M9660 10761 c0 -6 4 -13 10 -16 6 -3 7 1 4 9 -7 18 -14 21 -14 7z"/>
<path d="M1306 10743 c-6 -14 -5 -15 5 -6 7 7 10 15 7 18 -3 3 -9 -2 -12 -12z"/>
<path d="M9680 10726 c0 -2 8 -10 18 -17 15 -13 16 -12 3 4 -13 16 -21 21 -21
13z"/>
<path d="M1053 10713 c9 -2 25 -2 35 0 9 3 1 5 -18 5 -19 0 -27 -2 -17 -5z"/>
<path d="M1238 10713 c7 -3 16 -2 19 1 4 3 -2 6 -13 5 -11 0 -14 -3 -6 -6z"/>
<path d="M10856 10713 c-4 -5 -42 -10 -84 -13 l-77 -5 -12 -35 c-7 -19 -12
-28 -12 -19 -1 9 -10 24 -20 33 -16 14 -30 16 -82 10 -92 -10 -128 -53 -98
-116 11 -25 89 -88 107 -88 25 0 10 -19 -38 -50 -52 -33 -90 -73 -90 -95 0
-24 47 -62 92 -73 66 -17 84 -15 108 10 l20 22 0 -27 c0 -24 4 -27 33 -28 17
-1 37 -1 44 0 6 1 34 -7 61 -18 27 -11 53 -17 56 -14 13 13 5 76 -14 113 -19
37 -110 120 -131 120 -5 0 -9 8 -9 18 0 11 25 34 65 60 35 24 73 55 83 70 24
32 43 98 35 118 -6 15 -25 19 -37 7z"/>
<path d="M970 10700 c-18 -12 -2 -12 25 0 13 6 15 9 5 9 -8 0 -22 -4 -30 -9z"/>
<path d="M9970 10689 c-22 -18 -22 -19 -3 -10 12 6 25 16 28 21 9 15 3 12 -25
-11z"/>
<path d="M9720 10696 c0 -2 8 -10 18 -17 15 -13 16 -12 3 4 -13 16 -21 21 -21
13z"/>
<path d="M919 10663 l-24 -28 28 24 c25 23 32 31 24 31 -2 0 -14 -12 -28 -27z"/>
<path d="M1184 10665 c8 -8 18 -24 21 -36 4 -11 9 -18 12 -16 7 8 -26 67 -38
67 -6 0 -4 -7 5 -15z"/>
<path d="M9788 10653 c7 -3 16 -2 19 1 4 3 -2 6 -13 5 -11 0 -14 -3 -6 -6z"/>
<path d="M2772 10608 l1 -43 4 38 c4 36 6 38 31 33 20 -5 23 -4 12 4 -8 5 -23
10 -32 10 -15 0 -18 -8 -16 -42z"/>
<path d="M3016 10590 c8 -43 14 -51 14 -19 0 13 -5 31 -10 39 -7 11 -8 5 -4
-20z"/>
<path d="M1073 10586 c1 -17 9 -31 17 -33 10 -3 11 -2 4 4 -7 4 -14 19 -17 33
-4 22 -5 21 -4 -4z"/>
<path d="M3073 10586 c-15 -13 -26 -26 -23 -28 3 -2 18 9 34 24 35 34 27 37
-11 4z"/>
<path d="M9749 10583 l-24 -28 30 25 c17 14 32 26 34 28 2 1 0 2 -6 2 -5 0
-20 -12 -34 -27z"/>
<path d="M1221 10577 c-1 -19 -8 -30 -26 -37 -30 -11 -33 -20 -5 -13 28 7 42
28 37 55 -4 20 -4 20 -6 -5z"/>
<path d="M3128 10593 c6 -2 18 -2 25 0 6 3 1 5 -13 5 -14 0 -19 -2 -12 -5z"/>
<path d="M9960 10597 c0 -3 12 -12 26 -22 15 -9 23 -12 20 -6 -7 11 -46 35
-46 28z"/>
<path d="M3178 10583 c6 -2 18 -2 25 0 6 3 1 5 -13 5 -14 0 -19 -2 -12 -5z"/>
<path d="M9699 10543 c-13 -16 -12 -17 4 -4 9 7 17 15 17 17 0 8 -8 3 -21 -13z"/>
<path d="M10020 10556 c0 -2 8 -10 18 -17 15 -13 16 -12 3 4 -13 16 -21 21
-21 13z"/>
<path d="M3305 10505 c0 -13 3 -21 8 -18 4 2 7 10 7 18 0 8 -3 16 -7 18 -5 3
-8 -5 -8 -18z"/>
<path d="M10081 10493 c7 -12 15 -20 18 -17 3 2 -3 12 -13 22 -17 16 -18 16
-5 -5z"/>
<path d="M506 10466 c-19 -19 -41 -56 -50 -82 -18 -54 -21 -167 -5 -234 7 -31
7 -46 0 -48 -6 -2 -11 -10 -11 -17 0 -10 -19 -7 -77 12 -143 45 -277 30 -341
-39 l-23 -25 23 -15 c13 -8 33 -18 44 -22 22 -7 110 -90 126 -120 13 -23 42
-20 76 9 40 33 45 32 25 -9 -24 -51 -11 -80 57 -133 33 -25 60 -51 60 -56 0
-5 9 -7 19 -4 10 2 24 1 31 -3 20 -12 67 9 87 38 26 38 25 183 0 231 -10 18
-14 30 -8 27 6 -4 11 -2 11 4 0 6 9 5 23 -4 31 -20 165 -41 210 -32 26 5 40
14 46 29 12 32 12 95 1 102 -6 4 -19 25 -29 48 -11 23 -31 55 -46 71 -22 24
-32 28 -61 23 -39 -7 -43 2 -14 28 11 10 20 21 20 24 0 4 -22 33 -49 65 -27
32 -58 81 -68 109 -10 28 -24 52 -31 55 -7 2 -28 -12 -46 -32z"/>
<path d="M2840 10455 c19 -19 36 -35 39 -35 3 0 -10 16 -29 35 -19 19 -36 35
-39 35 -3 0 10 -16 29 -35z"/>
<path d="M9660 10484 c0 -6 7 -19 16 -30 14 -18 14 -18 3 6 -14 31 -19 36 -19
24z"/>
<path d="M3266 10433 c-6 -14 -5 -15 5 -6 7 7 10 15 7 18 -3 3 -9 -2 -12 -12z"/>
<path d="M9866 10423 c-6 -14 -5 -15 5 -6 7 7 10 15 7 18 -3 3 -9 -2 -12 -12z"/>
<path d="M10113 10395 c0 -22 2 -30 4 -17 2 12 2 30 0 40 -3 9 -5 -1 -4 -23z"/>
<path d="M2890 10416 c0 -2 8 -10 18 -17 15 -13 16 -12 3 4 -13 16 -21 21 -21
13z"/>
<path d="M3224 10398 l-19 -23 23 19 c21 18 27 26 19 26 -2 0 -12 -10 -23 -22z"/>
<path d="M9770 10410 c25 -8 87 -13 79 -6 -2 2 -26 6 -54 9 -34 4 -42 3 -25
-3z"/>
<path d="M9910 10398 c0 -4 21 -8 48 -7 52 1 48 6 -10 11 -21 2 -38 0 -38 -4z"/>
<path d="M10045 10385 c50 -18 57 -18 25 0 -14 8 -34 14 -45 14 -11 0 -2 -6
20 -14z"/>
<path d="M2930 10386 c0 -3 9 -10 20 -16 11 -6 20 -8 20 -6 0 3 -9 10 -20 16
-11 6 -20 8 -20 6z"/>
<path d="M3170 10360 c-9 -6 -10 -10 -3 -10 6 0 15 5 18 10 8 12 4 12 -15 0z"/>
<path d="M3138 10303 c7 -3 16 -2 19 1 4 3 -2 6 -13 5 -11 0 -14 -3 -6 -6z"/>
<path d="M2968 10284 c-38 -20 -36 -28 2 -9 17 9 30 18 30 20 0 7 -1 6 -32
-11z"/>
<path d="M3200 10286 c0 -2 8 -10 18 -17 15 -13 16 -12 3 4 -13 16 -21 21 -21
13z"/>
<path d="M12081 10264 c0 -11 3 -14 6 -6 3 7 2 16 -1 19 -3 4 -6 -2 -5 -13z"/>
<path d="M1187 10264 c-3 -4 0 -22 8 -41 8 -20 15 -64 15 -99 l0 -64 30 0 c17
0 30 -4 30 -10 0 -5 -6 -10 -14 -10 -23 0 -44 -38 -39 -73 2 -18 5 -44 7 -60
3 -32 39 -77 60 -77 46 0 106 49 132 108 13 30 34 36 34 11 0 -14 48 -78 79
-106 29 -28 42 -29 72 -5 40 34 66 166 34 178 -22 9 -18 22 8 26 19 3 23 10
27 63 3 33 11 70 18 82 21 38 15 53 -22 53 -18 0 -49 -6 -68 -14 -34 -15 -106
-84 -127 -125 -18 -33 -44 -25 -69 22 -30 57 -87 114 -130 133 -36 15 -74 18
-85 8z"/>
<path d="M12045 10260 c-3 -6 1 -7 9 -4 18 7 21 14 7 14 -6 0 -13 -4 -16 -10z"/>
<path d="M3240 10256 c0 -2 8 -10 18 -17 15 -13 16 -12 3 4 -13 16 -21 21 -21
13z"/>
<path d="M2874 10218 l-19 -23 23 19 c21 18 27 26 19 26 -2 0 -12 -10 -23 -22z"/>
<path d="M11874 10226 c-3 -8 -4 -25 -1 -38 3 -18 5 -16 6 9 1 31 2 32 54 36
l52 3 -53 2 c-38 1 -54 -2 -58 -12z"/>
<path d="M11758 10213 c6 -2 18 -2 25 0 6 3 1 5 -13 5 -14 0 -19 -2 -12 -5z"/>
<path d="M11808 10213 c7 -3 16 -2 19 1 4 3 -2 6 -13 5 -11 0 -14 -3 -6 -6z"/>
<path d="M12081 10213 c-1 -6 -4 -20 -7 -30 -5 -17 -5 -17 6 0 6 10 9 23 6 30
-3 9 -5 9 -5 0z"/>
<path d="M11836 10187 c3 -10 9 -15 12 -12 3 3 0 11 -7 18 -10 9 -11 8 -5 -6z"/>
<path d="M2814 10158 l-19 -23 23 19 c21 18 27 26 19 26 -2 0 -12 -10 -23 -22z"/>
<path d="M11635 10169 c-4 -6 -5 -12 -2 -15 2 -3 7 2 10 11 7 17 1 20 -8 4z"/>
<path d="M12051 10137 c-13 -21 -12 -21 5 -5 10 10 16 20 13 22 -3 3 -11 -5
-18 -17z"/>
<path d="M1888 10133 c12 -2 30 -2 40 0 9 3 -1 5 -23 4 -22 0 -30 -2 -17 -4z"/>
<path d="M8012 10121 c-126 -43 -215 -138 -299 -318 -33 -71 -52 -101 -62 -98
-7 3 -20 0 -28 -6 -7 -7 -15 -10 -17 -8 -1 2 -17 25 -35 51 -85 127 -231 246
-331 273 -58 16 -137 19 -189 9 -38 -8 -40 -28 -7 -77 47 -68 63 -120 72 -227
2 -25 6 -54 8 -65 3 -11 5 -25 5 -32 1 -6 9 -19 18 -28 14 -14 29 -16 87 -11
59 5 68 4 52 -7 -77 -51 -94 -67 -99 -96 -9 -42 3 -118 19 -132 8 -6 14 -27
14 -45 0 -19 5 -34 10 -34 6 0 10 -18 10 -39 0 -31 4 -41 20 -46 11 -3 28 -17
38 -30 11 -14 39 -29 64 -35 50 -13 78 -3 145 47 47 36 132 191 140 255 4 29
8 47 11 40 6 -18 22 -15 23 6 0 9 7 -2 16 -25 10 -31 39 -65 100 -123 47 -44
92 -80 98 -80 7 0 15 -6 18 -12 2 -7 25 -19 51 -27 40 -12 49 -11 64 1 9 8 25
18 35 21 9 4 17 14 17 24 0 9 10 27 22 40 17 18 23 38 25 86 1 34 4 91 7 127
5 92 -22 141 -86 155 -39 9 -35 21 10 28 74 12 76 18 62 149 -12 110 -12 119
9 197 18 65 20 85 10 97 -16 19 -63 17 -127 -5z"/>
<path d="M1970 10120 c8 -5 20 -10 25 -10 6 0 3 5 -5 10 -8 5 -19 10 -25 10
-5 0 -3 -5 5 -10z"/>
<path d="M2340 10120 c-18 -12 -2 -12 25 0 13 6 15 9 5 9 -8 0 -22 -4 -30 -9z"/>
<path d="M11160 10105 c-14 -15 -51 -40 -83 -57 -46 -23 -57 -33 -52 -46 4 -9
10 -26 13 -37 5 -18 4 -18 -22 2 -31 25 -49 21 -115 -23 -41 -26 -61 -73 -48
-108 10 -24 66 -48 129 -53 32 -3 58 -7 58 -9 0 -2 -11 -19 -24 -39 -33 -48
-60 -121 -52 -140 3 -8 14 -18 23 -21 10 -3 26 -10 35 -15 10 -5 19 -5 23 0 3
5 24 12 48 16 49 8 77 29 77 59 0 20 1 20 19 -4 l19 -24 39 18 c21 10 60 21
87 25 27 3 51 11 53 17 7 21 -43 80 -89 102 -25 13 -71 26 -102 29 -69 7 -75
22 -36 82 59 93 73 185 37 235 -11 16 -15 15 -37 -9z"/>
<path d="M1880 10111 c0 -6 4 -13 10 -16 6 -3 7 1 4 9 -7 18 -14 21 -14 7z"/>
<path d="M11630 10111 c0 -6 4 -13 10 -16 6 -3 7 1 4 9 -7 18 -14 21 -14 7z"/>
<path d="M2045 10070 c21 -22 41 -40 44 -40 3 0 -13 18 -34 40 -21 22 -41 40
-44 40 -3 0 13 -18 34 -40z"/>
<path d="M3023 10075 c0 -22 2 -30 4 -17 2 12 2 30 0 40 -3 9 -5 -1 -4 -23z"/>
<path d="M3051 10105 c0 -5 6 -21 14 -35 8 -14 14 -20 14 -15 0 6 -6 21 -14
35 -8 14 -14 21 -14 15z"/>
<path d="M2269 10073 l-24 -28 28 24 c25 23 32 31 24 31 -2 0 -14 -12 -28 -27z"/>
<path d="M3270 10075 c-7 -9 -11 -17 -9 -20 3 -2 10 5 17 15 14 24 10 26 -8 5z"/>
<path d="M6502 10078 c-7 -7 -12 -20 -12 -31 0 -10 -34 -53 -75 -94 -42 -43
-72 -80 -68 -87 4 -6 18 -26 31 -43 27 -37 24 -40 -20 -17 -45 23 -73 11 -125
-56 -25 -33 -51 -60 -56 -60 -5 0 -7 -10 -4 -22 4 -12 2 -27 -3 -33 -19 -23
11 -73 55 -91 55 -22 158 -19 208 7 21 11 36 15 32 9 -3 -5 -1 -10 5 -10 6 0
5 -8 -4 -22 -31 -49 -43 -225 -17 -251 13 -13 121 -23 121 -10 0 5 20 19 43
31 24 12 56 33 72 48 23 21 26 31 22 60 -7 40 -4 41 30 14 28 -22 26 -23 106
45 26 22 69 47 94 55 26 8 48 20 50 26 7 20 -40 66 -91 90 -58 27 -166 32
-255 13 -42 -9 -53 -8 -65 4 -13 13 -12 21 6 68 29 77 36 214 14 271 -16 39
-61 98 -76 98 -3 0 -11 -5 -18 -12z"/>
<path d="M2406 10065 c-3 -9 -6 -24 -5 -33 0 -9 5 -4 10 12 9 32 6 48 -5 21z"/>
<path d="M11665 10060 c10 -11 20 -20 23 -20 3 0 -3 9 -13 20 -10 11 -20 20
-23 20 -3 0 3 -9 13 -20z"/>
<path d="M11979 10063 c-13 -16 -12 -17 4 -4 9 7 17 15 17 17 0 8 -8 3 -21
-13z"/>
<path d="M3170 10054 l-55 -13 49 5 c27 3 58 9 70 14 31 13 -1 10 -64 -6z"/>
<path d="M2233 10028 c-15 -20 -25 -38 -20 -38 3 0 12 11 21 25 17 26 16 35
-1 13z"/>
<path d="M11712 10024 c10 -10 20 -16 22 -13 3 3 -5 11 -17 18 -21 13 -21 12
-5 -5z"/>
<path d="M1911 10014 c0 -11 3 -14 6 -6 3 7 2 16 -1 19 -3 4 -6 -2 -5 -13z"/>
<path d="M2903 10023 c9 -2 23 -2 30 0 6 3 -1 5 -18 5 -16 0 -22 -2 -12 -5z"/>
<path d="M2968 10023 c12 -2 30 -2 40 0 9 3 -1 5 -23 4 -22 0 -30 -2 -17 -4z"/>
<path d="M3532 10019 c-43 -16 -89 -59 -115 -106 -23 -44 -57 -175 -57 -223 0
-11 -7 -20 -15 -20 -8 0 -15 -5 -15 -10 0 -6 -21 5 -46 24 -83 64 -150 90
-239 94 -68 2 -85 0 -114 -18 l-34 -21 41 -39 c22 -22 56 -72 76 -114 22 -45
43 -76 52 -76 8 0 30 7 49 14 42 18 43 15 10 -28 -20 -27 -23 -38 -16 -63 9
-29 40 -80 69 -111 6 -7 12 -20 12 -28 0 -8 9 -14 19 -14 11 0 23 -4 26 -10 3
-5 21 -10 40 -10 65 0 119 94 120 212 0 31 3 54 8 51 4 -2 7 1 7 8 0 6 8 1 19
-12 24 -31 147 -89 201 -95 26 -3 74 32 64 47 -3 5 0 18 6 28 7 14 7 33 -1 63
-6 24 -11 51 -13 60 -1 10 -5 21 -9 24 -4 4 -7 15 -7 24 0 18 -49 50 -77 50
-13 0 -9 6 15 21 17 12 32 23 32 26 0 2 -12 30 -27 61 -17 38 -28 80 -31 124
-4 70 -12 81 -50 67z"/>
<path d="M10530 10020 c-18 -12 -2 -12 25 0 13 6 15 9 5 9 -8 0 -22 -4 -30 -9z"/>
<path d="M10631 10014 c0 -11 3 -14 6 -6 3 7 2 16 -1 19 -3 4 -6 -2 -5 -13z"/>
<path d="M2112 9981 c12 -22 24 -38 26 -36 5 4 -37 75 -44 75 -3 0 6 -18 18
-39z"/>
<path d="M2402 9973 c-2 -37 -5 -42 -29 -46 l-28 -4 28 -2 c32 -1 40 13 34 61
-3 30 -4 30 -5 -9z"/>
<path d="M2810 10000 c-9 -6 -10 -10 -3 -10 6 0 15 5 18 10 8 12 4 12 -15 0z"/>
<path d="M11758 10003 c7 -3 16 -2 19 1 4 3 -2 6 -13 5 -11 0 -14 -3 -6 -6z"/>
<path d="M9980 9998 c0 -3 7 -19 15 -34 8 -16 15 -22 15 -14 -1 8 -7 24 -15
34 -8 11 -15 17 -15 14z"/>
<path d="M10469 9983 c-13 -16 -12 -17 4 -4 9 7 17 15 17 17 0 8 -8 3 -21 -13z"/>
<path d="M2195 9969 c-4 -6 -5 -12 -2 -15 2 -3 7 2 10 11 7 17 1 20 -8 4z"/>
<path d="M10195 9938 c22 -27 41 -48 43 -48 7 0 -36 56 -59 75 -12 11 -5 -1
16 -27z"/>
<path d="M11901 9956 c2 -2 15 -9 29 -15 24 -11 24 -11 6 3 -16 13 -49 24 -35
12z"/>
<path d="M10414 9928 l-19 -23 23 19 c21 18 27 26 19 26 -2 0 -12 -10 -23 -22z"/>
<path d="M1910 9928 c0 -4 16 -8 35 -8 19 0 35 2 35 4 0 2 -16 6 -35 8 -19 2
-35 0 -35 -4z"/>
<path d="M10598 9917 c-3 -19 -2 -25 4 -19 6 6 8 18 6 28 -3 14 -5 12 -10 -9z"/>
<path d="M11709 9923 c-13 -16 -12 -17 4 -4 9 7 17 15 17 17 0 8 -8 3 -21 -13z"/>
<path d="M10013 9845 c0 -38 2 -53 4 -32 2 20 2 52 0 70 -2 17 -4 1 -4 -38z"/>
<path d="M12020 9875 c19 -19 36 -35 39 -35 3 0 -10 16 -29 35 -19 19 -36 35
-39 35 -3 0 10 -16 29 -35z"/>
<path d="M11658 9881 c-9 -10 -19 -29 -23 -42 -9 -29 -5 -25 24 24 25 41 24
48 -1 18z"/>
<path d="M2375 9880 c3 -5 8 -10 11 -10 2 0 4 5 4 10 0 6 -5 10 -11 10 -5 0
-7 -4 -4 -10z"/>
<path d="M9681 9850 c-22 -22 -70 -55 -106 -72 -37 -17 -69 -36 -71 -42 -3 -7
2 -29 11 -49 21 -50 19 -52 -16 -23 -43 36 -105 31 -132 -11 -4 -7 -15 -13
-23 -13 -8 0 -17 -7 -20 -15 -4 -8 -13 -15 -20 -15 -8 0 -17 -8 -21 -17 -3
-10 -11 -24 -17 -32 -22 -28 -12 -70 24 -105 42 -41 147 -69 205 -56 20 5 33
4 29 -1 -3 -5 1 -9 8 -9 7 0 1 -10 -14 -23 -33 -27 -85 -131 -94 -187 -6 -34
-3 -44 14 -60 12 -11 28 -20 37 -20 9 0 25 -5 35 -10 11 -6 21 -6 24 -1 3 5
27 12 54 16 26 4 63 14 82 23 29 14 36 24 40 56 l5 38 23 -31 c26 -36 31 -35
118 5 33 16 69 24 103 24 37 0 53 4 57 15 18 46 -75 145 -160 170 -28 9 -84
21 -123 27 -40 5 -70 14 -68 18 3 5 0 10 -7 12 -7 3 5 29 32 68 61 90 94 187
85 254 -8 54 -29 106 -45 106 -5 0 -27 -18 -49 -40z"/>
<path d="M10602 9838 c-2 -35 -6 -48 -19 -51 -17 -4 -17 -5 0 -6 22 -1 29 17
24 65 -3 38 -4 37 -5 -8z"/>
<path d="M10360 9850 c-6 -11 -8 -20 -6 -20 3 0 10 9 16 20 6 11 8 20 6 20 -3
0 -10 -9 -16 -20z"/>
<path d="M2181 9824 c0 -11 3 -14 6 -6 3 7 2 16 -1 19 -3 4 -6 -2 -5 -13z"/>
<path d="M2141 9814 c0 -11 3 -14 6 -6 3 7 2 16 -1 19 -3 4 -6 -2 -5 -13z"/>
<path d="M10276 9817 c3 -10 9 -15 12 -12 3 3 0 11 -7 18 -10 9 -11 8 -5 -6z"/>
<path d="M10306 9802 c-3 -5 1 -9 9 -9 8 0 12 4 9 9 -3 4 -7 8 -9 8 -2 0 -6
-4 -9 -8z"/>
<path d="M12076 9785 c8 -37 14 -45 14 -19 0 10 -5 26 -10 34 -8 11 -9 7 -4
-15z"/>
<path d="M1935 9771 c3 -18 5 -39 5 -46 0 -7 7 -15 15 -19 11 -4 13 -1 5 12
-5 9 -14 33 -20 52 l-10 35 5 -34z"/>
<path d="M2381 9784 c0 -11 3 -14 6 -6 3 7 2 16 -1 19 -3 4 -6 -2 -5 -13z"/>
<path d="M11828 9768 c-10 -10 -14 -18 -9 -18 10 0 36 29 30 34 -2 1 -12 -6
-21 -16z"/>
<path d="M10048 9773 c12 -2 30 -2 40 0 9 3 -1 5 -23 4 -22 0 -30 -2 -17 -4z"/>
<path d="M2109 9753 c-13 -16 -12 -17 4 -4 9 7 17 15 17 17 0 8 -8 3 -21 -13z"/>
<path d="M2210 9766 c0 -2 8 -10 18 -17 15 -13 16 -12 3 4 -13 16 -21 21 -21
13z"/>
<path d="M11740 9760 c14 -4 34 -8 45 -8 16 0 15 2 -5 8 -14 4 -34 8 -45 8
-16 0 -15 -2 5 -8z"/>
<path d="M2372 9740 c0 -14 2 -19 5 -12 2 6 2 18 0 25 -3 6 -5 1 -5 -13z"/>
<path d="M11880 9748 c0 -5 30 -7 68 -7 69 2 62 6 -20 11 -27 2 -48 0 -48 -4z"/>
<path d="M10059 9729 l-24 -20 30 17 c39 24 40 24 28 24 -6 0 -21 -9 -34 -21z"/>
<path d="M10551 9747 c2 -1 13 -9 24 -17 19 -14 19 -14 6 3 -7 9 -18 17 -24
17 -6 0 -8 -1 -6 -3z"/>
<path d="M2084 9719 c-3 -6 -25 -20 -48 -30 -22 -10 -35 -19 -28 -19 18 0 66
26 81 44 8 9 11 16 8 16 -3 0 -9 -5 -13 -11z"/>
<path d="M10031 9684 c0 -11 3 -14 6 -6 3 7 2 16 -1 19 -3 4 -6 -2 -5 -13z"/>
<path d="M10342 9660 c0 -14 2 -19 5 -12 2 6 2 18 0 25 -3 6 -5 1 -5 -13z"/>
<path d="M10292 9650 c0 -14 2 -19 5 -12 2 6 2 18 0 25 -3 6 -5 1 -5 -13z"/>
<path d="M10581 9628 c0 -9 -4 -25 -7 -35 -5 -17 -5 -17 6 0 6 10 9 25 7 35
-4 15 -5 15 -6 0z"/>
<path d="M10271 9597 c-13 -21 -12 -21 5 -5 10 10 16 20 13 22 -3 3 -11 -5
-18 -17z"/>
<path d="M10046 9570 c8 -43 14 -51 14 -19 0 13 -5 31 -10 39 -7 11 -8 5 -4
-20z"/>
<path d="M10385 9580 c10 -11 20 -20 23 -20 3 0 -3 9 -13 20 -10 11 -20 20
-23 20 -3 0 3 -9 13 -20z"/>
<path d="M10239 9553 c-13 -16 -12 -17 4 -4 9 7 17 15 17 17 0 8 -8 3 -21 -13z"/>
<path d="M10571 9564 c-1 -5 -15 -25 -32 -42 -40 -41 -30 -42 11 -2 17 17 29
36 27 43 -3 7 -6 7 -6 1z"/>
<path d="M10433 9525 c16 -15 31 -25 33 -22 3 3 -10 15 -28 27 l-33 23 28 -28z"/>
<path d="M1760 9504 c-7 -20 -12 -53 -12 -73 1 -36 34 -134 53 -157 5 -6 7
-19 3 -28 -5 -12 -20 -16 -68 -16 -99 0 -179 -34 -208 -88 -14 -27 0 -42 41
-42 13 0 47 -14 74 -31 l51 -31 23 26 c26 31 37 33 28 7 -10 -32 6 -52 64 -78
118 -55 168 -7 125 121 -9 26 -23 50 -30 53 -23 9 -17 36 7 30 31 -8 141 12
161 29 29 27 14 72 -38 121 -48 44 -80 53 -103 31 -11 -11 -12 -7 -7 18 6 28
3 33 -36 59 -24 15 -53 40 -66 56 -31 39 -48 36 -62 -7z"/>
<path d="M10180 9500 c-9 -6 -10 -10 -3 -10 6 0 15 5 18 10 8 12 4 12 -15 0z"/>
<path d="M12300 9466 c-13 -27 -48 -73 -87 -111 l-66 -64 27 -41 c27 -42 27
-42 4 -34 -40 15 -83 9 -106 -14 -12 -12 -22 -26 -22 -32 0 -5 -9 -14 -20 -20
-11 -6 -20 -16 -20 -22 0 -6 -6 -16 -14 -22 -14 -10 -21 -53 -17 -104 2 -39
77 -66 167 -60 44 3 83 11 98 22 15 9 26 12 26 6 0 -6 5 -8 13 -3 6 4 3 -6 -7
-22 -28 -43 -47 -201 -29 -237 7 -16 19 -29 26 -29 55 -7 94 -5 106 4 14 12
48 32 71 43 8 4 28 21 43 37 25 25 28 34 22 65 l-7 37 24 -22 c13 -13 31 -23
39 -23 8 0 38 22 67 49 33 31 69 53 97 61 25 7 49 18 55 25 15 18 -23 61 -78
89 -65 32 -131 39 -232 23 -112 -19 -119 -13 -89 75 31 90 32 227 2 283 -11
22 -33 51 -47 64 l-26 24 -20 -47z"/>
<path d="M8855 9414 c-39 -38 -130 -88 -191 -103 -22 -5 -57 -14 -78 -20 -66
-16 -72 -29 -54 -111 8 -38 13 -70 12 -70 -2 0 -22 20 -45 45 -37 40 -46 45
-85 45 -23 0 -46 -4 -49 -10 -3 -5 -15 -10 -27 -10 -11 0 -31 -9 -45 -20 -14
-11 -34 -20 -43 -20 -10 0 -23 -6 -29 -14 -7 -8 -27 -17 -46 -20 -28 -6 -35
-11 -35 -31 0 -13 -8 -30 -19 -37 -12 -8 -21 -31 -25 -63 -7 -53 0 -69 64
-137 41 -43 191 -98 269 -99 36 0 60 -3 54 -6 -7 -2 -13 -9 -13 -14 0 -4 7 -6
15 -3 8 4 15 1 15 -5 0 -6 -6 -11 -14 -11 -7 0 -24 -9 -38 -20 -29 -22 -148
-195 -148 -214 0 -8 -6 -18 -13 -24 -15 -13 -21 -112 -7 -112 6 0 16 -11 22
-25 8 -17 19 -25 36 -25 14 0 36 -10 49 -22 19 -18 26 -20 45 -10 13 7 34 12
48 12 47 0 125 8 163 18 52 14 76 37 89 91 l11 44 22 -50 c21 -47 45 -70 59
-55 4 3 14 7 24 8 34 5 88 21 112 34 15 8 51 12 95 10 177 -6 160 -8 163 24 8
69 -68 189 -161 251 -60 41 -171 85 -275 110 -62 15 -72 20 -67 36 4 11 2 19
-4 19 -22 0 -10 23 41 73 71 72 131 155 169 235 42 87 52 212 23 291 -22 62
-39 65 -89 15z"/>
<path d="M4337 9200 c-136 -53 -227 -178 -285 -391 -22 -82 -30 -99 -44 -96
-9 3 -19 -2 -23 -11 -4 -11 -25 4 -83 60 -145 142 -258 198 -397 198 -83 0
-165 -21 -165 -41 0 -15 33 -63 53 -78 20 -14 77 -132 81 -166 5 -46 38 -135
53 -143 14 -8 60 -3 133 13 21 5 17 -1 -23 -37 -40 -36 -49 -50 -53 -85 -3
-23 0 -44 6 -48 5 -3 10 -18 10 -33 0 -16 8 -32 20 -40 12 -7 20 -23 20 -38 0
-15 7 -32 16 -38 9 -7 19 -27 23 -46 4 -24 13 -36 26 -38 11 -2 29 -12 40 -22
11 -10 43 -21 70 -25 50 -6 51 -6 107 47 48 45 61 66 93 148 30 78 36 104 33
147 -4 41 -2 50 8 42 9 -7 13 -5 17 8 3 14 6 12 16 -12 13 -32 49 -75 63 -75
5 0 39 -22 77 -50 38 -27 75 -50 84 -50 8 0 20 -6 26 -14 6 -7 32 -16 57 -20
41 -5 49 -3 75 23 16 16 29 38 29 49 0 10 9 27 21 38 15 13 19 25 14 44 -4 14
-8 59 -10 100 -7 142 -34 192 -109 208 l-41 8 50 25 c47 22 50 26 48 59 -2 49
-18 117 -31 132 -14 18 -18 91 -8 177 11 98 -3 108 -97 71z"/>
<path d="M6631 9117 c-5 -7 -10 -40 -10 -73 0 -32 1 -75 1 -96 0 -50 -30 -166
-53 -204 -10 -17 -19 -40 -19 -50 0 -11 -9 -34 -20 -52 -11 -18 -20 -48 -20
-67 0 -40 31 -68 120 -108 l55 -25 -55 -1 c-30 -1 -69 -5 -87 -10 -39 -11 -92
-68 -93 -99 0 -12 -7 -34 -16 -47 -10 -16 -14 -34 -10 -51 5 -18 0 -37 -14
-61 -13 -23 -17 -40 -11 -51 10 -20 5 -37 -21 -75 l-20 -27 26 -31 c18 -21 26
-42 26 -70 0 -22 5 -39 11 -39 6 0 26 -16 44 -36 l33 -35 100 -1 101 0 113 67
c125 75 170 113 198 165 16 30 19 32 20 13 0 -26 15 -30 28 -8 5 10 7 -7 4
-44 -4 -49 2 -82 32 -178 20 -65 46 -136 56 -158 11 -22 20 -46 20 -53 0 -8
21 -33 47 -56 44 -40 50 -42 103 -40 46 1 62 6 83 28 14 14 37 26 51 26 31 0
56 24 56 55 0 23 23 55 39 55 4 0 13 18 20 40 6 22 16 40 21 40 17 0 40 31 40
54 0 13 9 31 21 42 18 16 20 28 17 76 -3 47 -11 65 -38 100 -24 30 -29 40 -15
34 39 -15 108 -26 126 -21 20 7 44 48 54 94 3 16 13 35 21 42 8 6 14 23 14 38
0 14 7 37 15 51 7 14 20 39 28 55 8 17 45 59 81 94 79 76 91 94 77 120 -30 54
-138 85 -280 79 -91 -4 -117 -9 -183 -37 -89 -38 -222 -119 -313 -191 -56 -44
-65 -49 -73 -34 -6 11 -17 15 -31 11 -16 -4 -22 0 -25 16 -2 12 -11 71 -21
131 -53 341 -204 553 -436 609 -17 4 -31 2 -38 -6z"/>
<path d="M1425 8509 c-11 -16 -1 -19 13 -3 7 8 8 14 3 14 -5 0 -13 -5 -16 -11z"/>
<path d="M1413 8445 c0 -22 2 -30 4 -17 2 12 2 30 0 40 -3 9 -5 -1 -4 -23z"/>
<path d="M1515 8448 c11 -6 23 -16 27 -22 5 -8 8 -7 8 1 0 7 -9 17 -19 23 -27
14 -41 12 -16 -2z"/>
<path d="M1578 8403 c7 -3 16 -2 19 1 4 3 -2 6 -13 5 -11 0 -14 -3 -6 -6z"/>
<path d="M1420 8396 c0 -11 40 -86 45 -86 3 0 -4 19 -16 43 -23 45 -29 54 -29
43z"/>
<path d="M1648 8355 c12 -15 22 -37 22 -48 0 -11 3 -18 6 -14 12 11 -7 63 -28
76 l-21 13 21 -27z"/>
<path d="M1940 8264 c-68 -62 -120 -194 -120 -309 0 -87 39 -283 75 -377 5
-13 2 -18 -10 -18 -9 0 -19 -9 -22 -20 -3 -11 -6 -20 -8 -20 -1 0 -38 9 -81
19 -134 33 -230 42 -334 32 -81 -9 -107 -16 -178 -52 -83 -42 -162 -115 -162
-150 0 -17 59 -49 90 -49 42 0 127 -59 230 -158 36 -34 73 -65 82 -68 23 -7
52 10 112 65 31 28 47 38 42 26 -5 -11 -15 -44 -24 -73 -14 -48 -14 -55 3 -92
10 -22 26 -42 37 -46 10 -3 26 -16 34 -30 10 -14 26 -24 39 -24 13 0 32 -11
43 -25 11 -14 28 -25 38 -25 11 0 31 -14 45 -31 23 -28 29 -31 55 -22 19 6 40
6 61 0 26 -8 36 -7 51 6 10 10 26 17 34 17 20 0 33 16 51 65 39 106 39 114 18
232 -21 115 -37 160 -75 202 l-21 24 23 -6 c24 -6 28 3 10 21 -8 8 -8 12 -1
12 6 0 16 -7 23 -14 21 -27 74 -36 230 -41 143 -4 158 -2 202 18 34 16 48 28
48 42 0 11 7 30 15 43 14 19 14 24 0 46 -11 17 -14 35 -10 59 6 30 3 37 -24
56 -17 12 -31 31 -31 41 0 10 -11 25 -24 34 -13 8 -27 28 -31 44 -3 17 -16 34
-30 40 -14 7 -25 18 -25 27 0 17 -60 45 -97 45 -13 0 -39 -7 -58 -14 -19 -8
-35 -13 -35 -11 0 1 16 26 35 55 19 29 35 55 35 59 0 3 -27 33 -61 66 -124
122 -159 160 -159 172 0 16 -30 81 -53 116 -24 36 -39 34 -87 -9z"/>
<path d="M1620 8280 c-21 -7 -21 -8 -5 -9 11 0 27 4 35 9 18 11 5 11 -30 0z"/>
<path d="M1335 8260 c-25 -11 1 -11 35 0 20 6 21 8 5 8 -11 0 -29 -3 -40 -8z"/>
<path d="M1548 8263 c6 -2 18 -2 25 0 6 3 1 5 -13 5 -14 0 -19 -2 -12 -5z"/>
<path d="M1546 8217 c3 -10 9 -15 12 -12 3 3 0 11 -7 18 -10 9 -11 8 -5 -6z"/>
<path d="M1253 8195 c-7 -20 -6 -21 42 -28 27 -4 35 -3 25 3 -8 5 -26 10 -39
10 -16 0 -21 4 -17 15 3 8 3 15 0 15 -2 0 -7 -7 -11 -15z"/>
<path d="M1396 8154 c-4 -10 -12 -14 -24 -9 -14 5 -15 4 -4 -6 10 -11 15 -10
29 4 9 9 14 19 11 22 -3 3 -8 -2 -12 -11z"/>
<path d="M1570 8133 c-3 -23 -2 -39 3 -34 5 5 7 24 5 42 -3 33 -4 33 -8 -8z"/>
<path d="M2650 8140 c-13 -24 2 -114 27 -165 54 -106 176 -205 332 -270 63
-26 71 -33 66 -52 -3 -12 0 -23 8 -26 14 -5 19 -1 -68 -64 -143 -105 -232
-219 -260 -333 -18 -74 -16 -173 4 -193 12 -12 67 6 96 32 26 24 83 40 214 57
58 7 109 18 114 23 5 5 7 41 5 80 -1 39 -1 71 2 71 3 0 14 -16 24 -34 28 -53
57 -76 96 -76 19 0 49 1 67 1 17 0 37 6 43 14 7 8 27 15 46 15 18 0 36 5 39
10 3 6 22 10 40 10 28 0 37 6 50 29 8 16 23 32 33 35 11 4 21 23 29 53 10 43
8 53 -13 93 -34 67 -60 92 -149 145 -61 37 -93 49 -132 53 -51 4 -67 15 -40
25 7 3 4 6 -6 6 -27 1 -12 18 23 24 21 5 56 34 113 93 45 47 85 95 89 105 4
10 11 19 15 19 5 0 15 20 22 45 12 40 12 48 -3 64 -9 10 -16 25 -16 34 0 10
-8 17 -20 17 -12 0 -32 12 -45 26 -21 22 -30 25 -59 20 -19 -4 -37 -2 -41 3
-3 6 -19 8 -35 4 -16 -3 -37 -2 -47 2 -28 12 -104 5 -136 -12 -18 -9 -35 -30
-45 -54 -8 -21 -18 -39 -22 -39 -4 0 -10 18 -13 40 -9 73 -5 71 -187 55 -66
-6 -96 -4 -130 8 -88 30 -117 31 -130 7z"/>
<path d="M4224 8013 c-9 -10 -27 -38 -38 -63 -18 -39 -21 -64 -21 -180 0 -131
1 -137 33 -212 38 -87 121 -224 188 -310 25 -32 42 -62 39 -68 -4 -6 -11 -7
-17 -4 -8 5 -9 -3 -5 -24 l6 -30 -62 -7 c-260 -29 -453 -103 -562 -215 -74
-75 -105 -122 -127 -193 -26 -83 -20 -88 106 -86 115 2 251 -28 271 -60 3 -6
16 -11 28 -11 12 0 36 -9 54 -19 17 -11 47 -23 66 -26 44 -8 65 13 112 108
l33 69 4 -82 c3 -81 3 -82 45 -121 24 -22 52 -39 65 -39 13 0 33 -7 45 -15 14
-10 32 -13 47 -9 14 3 37 -1 56 -11 19 -10 44 -15 60 -12 19 4 38 -2 63 -18
l36 -25 29 25 c18 15 42 25 62 25 24 0 42 10 76 44 l44 44 0 78 c0 44 0 90 0
102 0 21 -91 189 -142 264 -10 14 -39 40 -65 57 -25 17 -39 31 -30 31 19 0 22
11 7 25 -6 7 17 10 63 11 53 0 103 10 191 37 65 20 127 43 136 52 9 8 25 15
34 15 10 0 37 19 61 43 41 40 43 45 43 102 0 49 -4 63 -21 77 -12 9 -26 36
-32 59 -9 39 -14 45 -48 54 -22 6 -43 19 -49 28 -5 10 -27 25 -48 33 -21 9
-46 27 -55 40 -9 14 -25 24 -39 24 -12 0 -31 9 -41 20 -13 15 -31 20 -67 20
-55 0 -79 -10 -122 -49 -24 -21 -28 -22 -22 -7 15 44 26 110 21 127 -6 19 -80
59 -108 59 -8 0 -20 7 -27 15 -7 8 -28 17 -49 21 -20 4 -47 15 -60 25 -13 11
-30 19 -37 19 -7 0 -48 36 -90 80 -81 84 -107 96 -140 63z"/>
<path d="M3172 6959 c-57 -58 -77 -177 -52 -308 15 -79 4 -85 -99 -55 -143 41
-259 27 -327 -41 -25 -25 -25 -27 -8 -40 11 -8 27 -15 38 -15 10 0 51 -34 91
-76 76 -80 78 -81 122 -41 28 25 37 18 23 -17 -15 -41 -12 -61 15 -90 13 -14
27 -26 30 -26 3 0 22 -15 41 -34 35 -34 79 -48 126 -39 18 3 32 18 48 50 20
39 22 56 17 120 -3 42 -12 85 -22 99 -9 14 -11 24 -5 24 6 0 8 5 4 11 -3 6 5
3 20 -6 30 -20 153 -43 204 -39 19 1 42 9 50 18 20 20 25 105 8 126 -8 8 -21
30 -31 49 -30 60 -60 84 -100 83 l-36 -1 21 29 21 30 -32 40 c-18 22 -35 40
-39 40 -9 0 -46 78 -54 113 -9 36 -36 35 -74 -4z"/>
<path d="M9624 6623 c-13 -2 -30 -22 -44 -50 -20 -39 -22 -56 -17 -120 3 -42
12 -85 22 -99 9 -14 11 -24 5 -24 -6 0 -8 -5 -4 -11 3 -6 -5 -3 -20 6 -30 20
-153 43 -204 39 -19 -1 -42 -9 -50 -18 -20 -20 -25 -105 -8 -126 8 -8 22 -31
31 -50 10 -19 31 -48 47 -63 24 -23 35 -27 60 -22 l31 7 -22 -31 -22 -31 32
-40 c18 -22 35 -40 39 -40 9 0 46 -78 54 -112 9 -37 36 -36 74 3 57 58 77 177
52 308 -15 79 -4 85 99 55 143 -41 259 -27 327 41 25 25 25 27 8 40 -11 8 -27
15 -38 15 -10 0 -51 34 -91 76 -76 80 -78 81 -122 41 -28 -25 -37 -18 -23 17
5 15 10 35 10 45 0 21 -37 64 -63 74 -9 3 -17 10 -17 15 0 29 -96 65 -146 55z"/>
<path d="M8022 6425 c-18 -15 -42 -25 -61 -25 -22 0 -42 -11 -75 -44 l-45 -43
0 -74 c0 -41 -1 -87 0 -103 0 -17 25 -72 61 -135 84 -145 92 -155 145 -190 25
-17 39 -31 30 -31 -19 0 -22 -11 -7 -26 6 -6 -17 -9 -63 -10 -53 0 -103 -10
-191 -37 -65 -20 -127 -43 -136 -52 -9 -8 -25 -15 -34 -15 -10 0 -37 -19 -61
-42 -41 -41 -43 -46 -43 -103 0 -49 4 -63 21 -77 12 -9 26 -36 32 -59 9 -39
14 -45 48 -54 22 -6 46 -20 55 -31 10 -12 31 -26 49 -33 18 -7 39 -24 48 -37
9 -14 25 -24 39 -24 12 0 31 -9 41 -20 13 -15 31 -20 67 -20 55 0 80 10 121
48 31 30 32 25 12 -43 -21 -69 -14 -91 40 -115 24 -11 50 -20 58 -20 8 0 20
-7 27 -15 7 -8 28 -17 49 -21 20 -4 47 -15 60 -25 13 -11 30 -19 37 -19 7 0
48 -36 90 -80 102 -105 129 -105 178 0 18 39 21 64 21 180 0 131 -1 137 -33
212 -38 87 -121 224 -188 310 -25 32 -42 62 -39 68 4 6 11 7 17 4 8 -5 9 3 5
23 l-6 30 117 16 c267 38 426 109 542 242 60 69 78 101 96 169 19 72 12 77
-110 75 -115 -2 -251 28 -271 60 -3 6 -16 11 -28 11 -12 0 -36 9 -54 19 -17
11 -47 23 -66 26 -44 9 -66 -13 -110 -108 l-32 -68 -5 82 c-6 80 -7 82 -48
120 -23 22 -51 39 -64 39 -13 0 -33 7 -45 15 -14 10 -32 13 -47 9 -14 -3 -37
1 -56 11 -19 10 -44 15 -60 12 -19 -4 -38 2 -63 18 l-36 25 -29 -25z"/>
<path d="M10755 5973 c-16 -9 -37 -19 -45 -23 -14 -7 -37 -58 -60 -135 -9 -33
-8 -59 9 -152 21 -115 37 -160 75 -202 l21 -24 -22 6 c-28 6 -29 0 -5 -26 12
-14 2 -11 -39 12 -54 30 -59 31 -214 35 -148 5 -163 3 -207 -17 -34 -16 -48
-28 -48 -42 0 -11 -7 -30 -15 -43 -14 -19 -14 -24 0 -46 11 -17 14 -35 10 -59
-6 -30 -3 -37 24 -56 17 -12 31 -29 31 -38 0 -8 14 -28 30 -43 17 -15 30 -37
30 -47 0 -11 11 -25 25 -31 14 -6 25 -18 25 -27 0 -17 60 -45 97 -45 13 0 39
7 58 14 42 18 43 15 11 -27 -52 -68 -51 -77 16 -143 123 -122 158 -159 158
-172 0 -7 14 -42 32 -77 39 -81 58 -84 118 -19 67 73 110 188 110 299 0 87
-39 283 -75 378 -5 12 -2 17 10 17 9 0 19 9 22 20 3 11 6 20 8 20 1 0 38 -9
81 -19 214 -53 371 -48 503 14 79 38 171 121 171 154 0 19 -58 51 -90 51 -42
0 -127 59 -230 158 -36 34 -73 65 -83 68 -21 7 -86 -35 -123 -79 -14 -16 -27
-28 -29 -26 -2 2 5 29 15 59 11 30 19 63 20 72 0 22 -31 88 -42 88 -4 0 -22
14 -40 30 -17 17 -39 30 -49 30 -10 0 -26 11 -37 25 -11 14 -28 25 -38 25 -11
0 -31 14 -45 32 -25 29 -29 31 -53 20 -18 -8 -34 -9 -52 -2 -32 13 -33 13 -69
-7z"/>
<path d="M9990 5759 c-14 -6 -34 -19 -45 -29 -26 -23 -84 -39 -214 -56 -59 -8
-108 -19 -113 -26 -5 -7 -7 -43 -6 -80 2 -38 1 -68 -2 -68 -3 0 -14 16 -24 34
-28 53 -57 76 -96 76 -66 0 -99 -5 -111 -17 -7 -7 -28 -13 -45 -13 -18 0 -36
-4 -39 -10 -3 -5 -22 -10 -41 -10 -27 0 -36 -5 -44 -24 -5 -13 -19 -31 -31
-40 -13 -9 -29 -35 -36 -57 -11 -38 -10 -46 12 -88 35 -68 61 -93 150 -146 61
-37 93 -49 133 -53 50 -4 66 -15 40 -25 -8 -3 -5 -6 5 -6 27 -1 12 -18 -23
-24 -21 -5 -56 -34 -113 -93 -45 -47 -85 -95 -89 -105 -4 -10 -11 -19 -15 -19
-5 0 -15 -20 -22 -45 -12 -40 -12 -48 3 -64 9 -10 16 -25 16 -34 0 -10 8 -17
20 -17 12 0 32 -12 45 -26 21 -22 30 -25 59 -20 20 4 37 2 41 -4 4 -6 20 -8
41 -4 19 3 40 2 47 -4 17 -13 108 0 140 21 14 9 30 32 37 52 15 46 26 44 33
-5 8 -64 17 -69 100 -62 117 11 198 7 266 -13 63 -18 64 -18 78 1 29 39 -5
153 -73 245 -43 58 -175 149 -283 194 -63 26 -71 33 -66 52 3 12 0 23 -8 26
-14 5 -19 1 70 65 82 60 181 162 217 224 45 78 67 207 47 278 -8 28 -25 33
-61 19z"/>
<path d="M5401 5258 c-15 -18 -34 -28 -52 -28 -34 0 -59 -23 -59 -55 0 -23
-23 -55 -40 -55 -5 0 -11 -14 -15 -31 -4 -17 -20 -42 -36 -56 -16 -15 -29 -36
-29 -48 0 -12 -9 -30 -21 -41 -18 -16 -20 -28 -17 -76 3 -47 11 -65 38 -100
26 -31 29 -40 14 -34 -47 18 -113 27 -131 18 -10 -6 -27 -34 -37 -64 -10 -29
-25 -60 -32 -69 -8 -8 -14 -26 -14 -40 0 -13 -7 -35 -15 -49 -7 -14 -20 -38
-28 -55 -8 -16 -45 -59 -81 -94 -37 -36 -72 -73 -78 -84 -17 -32 19 -69 93
-95 55 -19 79 -22 179 -19 106 3 121 6 198 39 104 46 170 85 282 169 86 66 88
67 104 47 13 -14 20 -17 30 -9 18 15 26 3 26 -40 0 -51 36 -234 59 -300 72
-210 198 -352 354 -401 88 -27 88 -27 85 164 0 49 30 166 53 204 10 17 19 39
19 47 0 9 9 32 20 52 25 44 26 97 3 117 -10 9 -49 32 -88 51 l-70 36 55 1 c30
0 69 4 87 9 39 11 92 68 93 99 0 12 7 34 16 47 10 16 14 34 10 51 -5 18 0 37
14 61 13 23 17 40 11 51 -10 20 -5 37 21 75 l20 27 -26 31 c-18 21 -26 42 -26
70 0 22 -5 39 -11 39 -6 0 -26 16 -44 36 l-33 35 -100 1 -101 0 -113 -67
c-125 -75 -170 -113 -198 -165 -16 -30 -19 -32 -20 -12 0 26 -15 29 -30 5 -8
-14 -9 -12 -4 12 3 17 8 38 11 48 5 20 -68 262 -97 322 -11 22 -20 46 -20 54
0 7 -21 32 -47 55 -43 37 -52 41 -102 41 -48 0 -59 -4 -80 -27z"/>
<path d="M8878 4658 c-48 -45 -61 -66 -93 -148 -32 -81 -36 -103 -32 -148 5
-44 3 -51 -8 -42 -10 8 -14 7 -17 -7 -3 -13 -9 -8 -22 20 -11 21 -31 46 -45
55 -14 9 -48 33 -76 53 -72 53 -139 87 -190 94 -37 6 -45 4 -54 -14 -7 -12
-18 -21 -26 -21 -10 0 -15 -10 -15 -28 0 -17 -9 -37 -21 -48 -15 -13 -19 -25
-14 -44 4 -14 8 -59 10 -100 7 -142 34 -192 109 -208 l41 -8 -50 -25 c-47 -22
-50 -26 -48 -59 2 -50 18 -117 31 -133 15 -17 18 -96 8 -177 -10 -87 1 -98 76
-76 145 43 245 173 306 397 22 82 30 99 44 96 9 -3 19 2 22 10 5 11 27 -5 86
-61 88 -84 166 -138 250 -173 43 -17 75 -23 142 -23 86 0 168 20 168 41 0 15
-33 63 -53 78 -20 14 -77 132 -81 166 -5 40 -37 134 -50 144 -12 10 -83 3
-141 -16 -11 -3 2 15 32 43 49 46 52 52 48 89 -6 65 -17 99 -37 113 -10 7 -18
25 -18 39 0 14 -7 31 -16 37 -9 7 -19 27 -23 46 -4 24 -13 36 -26 38 -11 2
-29 12 -40 22 -11 10 -43 21 -70 25 -50 6 -51 6 -107 -47z"/>
<path d="M11224 4696 c-3 -8 -4 -27 -2 -43 3 -23 5 -20 9 15 5 43 2 53 -7 28z"/>
<path d="M11402 4658 c-7 -7 -12 -16 -12 -22 0 -5 6 -2 13 9 9 11 19 15 27 10
9 -5 11 -4 6 3 -9 15 -19 15 -34 0z"/>
<path d="M11518 4623 c16 -3 22 -10 18 -19 -3 -9 -1 -12 4 -9 21 13 10 35 -17
34 -25 -2 -26 -2 -5 -6z"/>
<path d="M4365 4550 c-4 -6 -21 -10 -38 -10 -103 1 -198 -18 -228 -46 -11 -10
-25 -38 -31 -63 l-11 -44 -23 52 c-24 53 -24 53 -61 47 -60 -9 -107 -22 -133
-36 -23 -12 -45 -13 -210 -7 -44 2 -45 1 -48 -31 -5 -48 39 -135 100 -196 66
-65 165 -115 305 -153 87 -24 102 -31 97 -45 -3 -10 -1 -18 5 -18 22 0 10 -23
-41 -73 -71 -72 -131 -155 -169 -235 -42 -87 -52 -212 -23 -291 22 -62 39 -65
89 -15 39 38 130 88 191 103 22 5 56 14 77 19 71 18 76 32 53 122 -8 30 -13
56 -11 58 2 2 22 -17 45 -42 38 -41 47 -46 86 -46 23 0 46 5 49 10 3 6 15 10
27 10 11 0 31 9 45 20 14 11 34 20 43 20 10 0 23 6 29 14 7 8 27 17 46 20 28
6 35 11 35 31 0 13 8 30 19 37 12 8 21 31 25 63 7 53 0 69 -65 137 -39 42
-194 98 -271 99 -35 0 -57 3 -50 6 6 2 12 9 12 14 0 4 -7 6 -15 3 -8 -4 -15
-1 -15 5 0 6 6 11 14 11 7 0 25 9 38 20 30 23 148 194 148 214 0 7 6 18 13 24
15 13 21 112 7 112 -6 0 -16 11 -22 25 -8 18 -19 25 -38 25 -15 0 -35 9 -45
20 -20 22 -40 26 -50 10z"/>
<path d="M11430 4540 c-20 -6 -21 -8 -5 -8 11 0 29 3 40 8 25 11 -1 11 -35 0z"/>
<path d="M11228 4533 c6 -2 18 -2 25 0 6 3 1 5 -13 5 -14 0 -19 -2 -12 -5z"/>
<path d="M11140 4512 c-17 -13 -20 -24 -15 -45 4 -15 11 -27 16 -27 6 0 5 9
-1 21 -16 29 -6 47 32 58 23 6 27 9 12 10 -12 1 -32 -7 -44 -17z"/>
<path d="M11352 4445 c12 -24 23 -43 26 -41 4 5 -36 86 -43 86 -3 0 5 -20 17
-45z"/>
<path d="M11208 4393 c7 -3 16 -2 19 1 4 3 -2 6 -13 5 -11 0 -14 -3 -6 -6z"/>
<path d="M11383 4355 c0 -22 2 -30 4 -17 2 12 2 30 0 40 -3 9 -5 -1 -4 -23z"/>
<path d="M11250 4371 c0 -13 39 -35 48 -27 3 3 0 6 -6 6 -6 0 -18 7 -26 16 -9
8 -16 11 -16 5z"/>
<path d="M11325 4320 c10 -11 20 -20 23 -20 3 0 -3 9 -13 20 -10 11 -20 20
-23 20 -3 0 3 -9 13 -20z"/>
<path d="M11362 4294 c-7 -8 -8 -14 -3 -14 10 0 25 19 20 25 -2 1 -10 -3 -17
-11z"/>
<path d="M422 4118 c-11 -11 -45 -32 -78 -47 -12 -5 -31 -22 -43 -37 -18 -23
-21 -36 -16 -64 l7 -35 -24 23 c-13 12 -31 22 -39 22 -8 0 -38 -22 -67 -49
-33 -31 -69 -53 -97 -61 -61 -17 -70 -31 -44 -64 28 -36 105 -74 165 -81 27
-3 87 1 134 8 110 19 116 13 89 -74 -12 -35 -23 -98 -26 -139 -5 -63 -2 -84
16 -127 13 -28 36 -63 52 -79 l29 -27 20 47 c13 27 48 73 87 111 l66 64 -27
41 c-27 42 -27 42 -4 34 40 -15 83 -9 106 14 12 12 22 26 22 32 0 5 9 14 20
20 11 6 20 17 20 24 0 8 6 16 14 19 17 7 26 74 14 109 -14 40 -79 62 -168 56
-40 -3 -80 -12 -95 -22 -14 -9 -25 -12 -25 -6 0 6 -5 8 -10 5 -6 -4 -1 11 10
32 27 52 39 209 18 236 -16 22 -108 33 -126 15z"/>
<path d="M10905 3832 c-33 -7 -55 -33 -55 -67 0 -42 29 -125 46 -132 21 -8 17
-36 -4 -31 -31 8 -145 -11 -163 -28 -30 -27 -16 -72 37 -121 48 -44 80 -53
103 -30 11 10 12 6 7 -19 -7 -29 -4 -34 42 -63 27 -17 55 -42 62 -56 20 -37
46 -32 60 11 17 51 8 130 -22 193 -35 72 -30 81 46 81 99 0 179 34 208 88 14
27 0 42 -41 42 -13 0 -47 14 -74 31 l-51 31 -23 -26 c-28 -32 -35 -33 -27 -1
4 18 -1 30 -21 49 -15 14 -30 25 -34 24 -5 -1 -46 14 -70 26 -3 1 -15 1 -26
-2z"/>
<path d="M3266 3711 c-3 -5 -27 -12 -54 -16 -77 -11 -116 -34 -120 -73 -4 -39
-8 -40 -34 -7 -22 29 -30 28 -114 -11 -33 -16 -69 -24 -103 -24 -37 0 -53 -4
-57 -15 -16 -40 58 -129 133 -160 31 -13 184 -45 215 -45 5 0 7 -4 4 -9 -4 -5
-1 -11 5 -13 7 -2 -5 -29 -31 -66 -60 -89 -94 -190 -85 -256 8 -56 30 -106 46
-106 6 0 26 17 45 39 21 23 63 52 105 71 39 18 73 38 75 44 3 7 -2 29 -11 49
-21 50 -20 52 18 23 19 -15 44 -26 56 -26 24 0 62 19 74 38 4 6 15 12 23 12 8
0 17 7 20 15 4 8 13 15 20 15 8 0 19 11 24 24 5 13 13 27 18 30 20 12 5 67
-27 100 -26 26 -47 37 -105 49 -50 11 -83 13 -104 8 -34 -10 -38 4 -10 36 27
31 77 140 84 183 6 34 3 44 -14 60 -12 11 -28 20 -37 20 -9 0 -25 5 -35 10
-11 6 -21 6 -24 1z"/>
<path d="M5355 3673 c-64 -34 -95 -67 -144 -153 -37 -64 -54 -104 -58 -142 -4
-29 -8 -47 -11 -40 -6 18 -22 15 -23 -5 0 -10 -7 1 -15 24 -16 43 -143 178
-187 198 -12 5 -26 15 -32 21 -5 6 -29 17 -52 24 -37 11 -45 11 -60 -2 -10 -8
-26 -18 -35 -21 -10 -4 -18 -14 -18 -24 0 -9 -10 -27 -22 -40 -18 -20 -23 -38
-25 -96 -2 -40 -5 -97 -7 -127 -5 -82 25 -131 87 -145 38 -9 34 -21 -11 -28
-73 -12 -76 -17 -61 -149 11 -109 11 -120 -10 -197 -31 -114 -12 -131 106 -96
129 38 226 140 313 329 30 64 50 95 60 94 8 -1 21 1 28 6 7 4 14 6 16 5 127
-186 248 -292 371 -324 93 -24 215 -18 215 11 0 18 -32 84 -40 84 -18 0 -50
118 -56 205 -6 80 -21 123 -45 130 -11 4 -48 4 -82 1 -52 -5 -59 -4 -43 6 80
55 94 68 99 97 9 42 -3 118 -19 132 -8 6 -14 26 -14 45 0 18 -4 36 -10 39 -5
3 -10 21 -10 40 0 25 -5 35 -20 40 -11 3 -27 16 -37 29 -18 22 -72 46 -102 46
-9 -1 -29 -8 -46 -17z"/>
<path d="M6230 3533 c0 -5 -20 -19 -43 -31 -24 -12 -56 -33 -72 -48 -23 -21
-26 -31 -22 -60 7 -40 4 -41 -30 -14 -28 22 -26 23 -106 -45 -26 -22 -69 -47
-94 -55 -26 -8 -48 -20 -50 -26 -7 -20 40 -66 91 -90 58 -27 166 -32 255 -13
42 9 53 8 65 -4 13 -13 12 -21 -6 -68 -29 -76 -35 -202 -14 -266 21 -63 68
-112 91 -93 8 7 15 21 15 32 0 11 33 53 75 95 42 43 72 80 68 87 -4 6 -18 26
-31 44 -27 36 -24 39 20 16 45 -23 73 -11 125 56 25 33 50 60 56 60 5 0 7 10
4 23 -4 12 -2 28 2 36 16 26 -11 70 -54 87 -55 22 -158 19 -208 -7 -21 -11
-36 -15 -32 -9 3 5 1 10 -5 10 -6 0 -5 8 4 23 31 48 43 224 17 250 -13 13
-121 23 -121 10z"/>
<path d="M9461 3505 c-36 -41 -54 -99 -56 -178 -2 -69 -9 -78 -34 -46 -24 31
-147 89 -201 95 -26 3 -74 -32 -64 -47 3 -5 0 -18 -6 -28 -7 -14 -7 -33 1 -63
6 -24 11 -51 13 -60 1 -10 5 -21 9 -24 4 -4 7 -15 7 -25 0 -19 46 -49 77 -49
13 0 9 -6 -14 -21 -18 -12 -33 -23 -33 -26 0 -2 12 -30 27 -61 17 -37 28 -80
31 -122 2 -36 9 -68 15 -72 29 -18 114 44 150 109 23 44 57 174 57 221 0 36
38 33 99 -8 83 -57 150 -80 229 -80 50 0 76 5 101 21 l34 20 -41 39 c-22 22
-56 72 -76 114 -22 45 -43 76 -52 76 -8 0 -30 -7 -49 -14 -42 -18 -43 -14 -10
26 19 22 23 36 19 56 -6 26 -46 93 -71 120 -7 7 -13 20 -13 28 0 8 -9 14 -19
14 -11 0 -23 5 -26 10 -3 6 -21 10 -40 10 -25 0 -40 -8 -64 -35z"/>
<path d="M2250 3280 c-16 -16 -30 -35 -30 -41 0 -6 10 1 22 17 13 16 29 34 38
41 8 7 12 13 8 13 -4 0 -21 -13 -38 -30z"/>
<path d="M2605 3300 c-3 -6 1 -7 9 -4 18 7 21 14 7 14 -6 0 -13 -4 -16 -10z"/>
<path d="M2330 3296 c0 -3 15 -15 33 -27 l32 -22 -27 27 c-25 24 -38 32 -38
22z"/>
<path d="M2740 3249 c0 -13 5 -31 10 -39 7 -11 8 -5 4 20 -8 43 -14 51 -14 19z"/>
<path d="M2549 3243 c-13 -16 -12 -17 4 -4 9 7 17 15 17 17 0 8 -8 3 -21 -13z"/>
<path d="M1754 3240 c-5 -5 -27 -11 -48 -14 -44 -6 -76 -30 -76 -60 0 -20 -1
-20 -19 3 l-19 24 -50 -21 c-28 -12 -66 -22 -86 -22 -19 0 -38 -4 -41 -10 -9
-14 20 -65 51 -89 29 -23 118 -51 162 -51 44 0 48 -25 12 -79 -58 -92 -72
-172 -39 -233 10 -19 12 -19 42 10 18 16 56 42 84 56 49 24 52 28 43 52 -16
41 -12 47 16 25 29 -23 47 -19 113 25 41 26 61 73 48 108 -10 24 -66 48 -129
53 -56 6 -70 14 -47 29 17 10 66 121 65 145 0 12 -8 25 -16 29 -8 4 -25 12
-36 18 -13 6 -25 7 -30 2z"/>
<path d="M2405 3220 c10 -11 20 -20 23 -20 3 0 -3 9 -13 20 -10 11 -20 20 -23
20 -3 0 3 -9 13 -20z"/>
<path d="M2216 3205 c-3 -9 -6 -24 -5 -33 0 -9 5 -4 10 12 9 32 6 48 -5 21z"/>
<path d="M2520 3205 c-7 -9 -11 -17 -9 -20 3 -2 10 5 17 15 14 24 10 26 -8 5z"/>
<path d="M2446 3165 c8 -37 14 -45 14 -19 0 10 -5 26 -10 34 -8 11 -9 7 -4
-15z"/>
<path d="M2502 3150 c0 -14 2 -19 5 -12 2 6 2 18 0 25 -3 6 -5 1 -5 -13z"/>
<path d="M2762 3130 c0 -19 2 -27 5 -17 2 9 2 25 0 35 -3 9 -5 1 -5 -18z"/>
<path d="M10744 3111 c-17 -10 -41 -34 -54 -53 -22 -32 -22 -32 11 4 19 21 50
44 69 52 19 9 28 15 20 16 -8 0 -29 -9 -46 -19z"/>
<path d="M12295 3116 c-45 -19 -60 -57 -60 -150 0 -59 5 -90 19 -115 10 -18
13 -30 7 -27 -6 4 -11 2 -11 -4 0 -6 -9 -5 -22 4 -32 20 -166 41 -211 32 -26
-5 -40 -14 -46 -29 -12 -32 -12 -95 -1 -102 6 -4 19 -25 29 -48 11 -23 31 -55
46 -71 22 -24 32 -28 61 -23 39 7 43 -2 14 -28 -11 -10 -20 -21 -20 -24 0 -4
22 -33 49 -65 27 -32 58 -81 68 -109 10 -28 24 -52 31 -55 20 -6 78 62 96 114
18 54 21 167 5 234 -7 31 -7 46 0 48 6 2 11 10 11 17 0 10 20 7 78 -12 141
-45 275 -29 341 41 l22 23 -23 15 c-13 8 -33 18 -44 22 -22 7 -110 90 -126
120 -13 23 -42 20 -76 -9 -40 -33 -45 -32 -25 9 24 51 11 80 -57 133 -33 25
-60 51 -60 56 0 5 -8 7 -19 4 -10 -2 -24 -1 -32 3 -8 5 -28 3 -44 -4z"/>
<path d="M10838 3088 c5 -7 13 -30 17 -51 10 -50 17 -41 9 11 -3 22 -13 43
-22 47 -11 4 -12 2 -4 -7z"/>
<path d="M2725 3069 c-16 -10 -25 -19 -19 -19 7 0 22 9 35 20 30 24 23 24 -16
-1z"/>
<path d="M2222 3064 c10 -10 20 -16 22 -13 3 3 -5 11 -17 18 -21 13 -21 12 -5
-5z"/>
<path d="M10422 3060 c0 -14 2 -19 5 -12 2 6 2 18 0 25 -3 6 -5 1 -5 -13z"/>
<path d="M778 3058 c9 -9 142 -15 142 -6 0 3 -34 8 -75 10 -41 2 -71 0 -67 -4z"/>
<path d="M10580 3035 c13 -14 26 -25 28 -25 3 0 -5 11 -18 25 -13 14 -26 25
-28 25 -3 0 5 -11 18 -25z"/>
<path d="M960 3035 c-19 -22 -8 -25 13 -3 9 10 13 18 8 18 -5 0 -14 -7 -21
-15z"/>
<path d="M1020 3040 c14 -4 34 -8 45 -8 16 0 15 2 -5 8 -14 4 -34 8 -45 8 -16
0 -15 -2 5 -8z"/>
<path d="M711 3030 c0 -8 4 -22 9 -30 12 -18 12 -2 0 25 -6 13 -9 15 -9 5z"/>
<path d="M2718 3023 c12 -2 30 -2 40 0 9 3 -1 5 -23 4 -22 0 -30 -2 -17 -4z"/>
<path d="M10411 3014 c0 -11 3 -14 6 -6 3 7 2 16 -1 19 -3 4 -6 -2 -5 -13z"/>
<path d="M2195 3010 c-3 -6 1 -7 9 -4 18 7 21 14 7 14 -6 0 -13 -4 -16 -10z"/>
<path d="M2783 2955 c0 -38 2 -53 4 -32 2 20 2 52 0 70 -2 17 -4 1 -4 -38z"/>
<path d="M10656 3005 c-3 -9 -6 -22 -5 -28 0 -7 5 -1 10 12 5 13 8 26 5 28 -2
2 -6 -3 -10 -12z"/>
<path d="M2476 2998 c3 -5 10 -6 15 -3 13 9 11 12 -6 12 -8 0 -12 -4 -9 -9z"/>
<path d="M2510 2991 c0 -6 4 -13 10 -16 6 -3 7 1 4 9 -7 18 -14 21 -14 7z"/>
<path d="M10611 2984 c0 -11 3 -14 6 -6 3 7 2 16 -1 19 -3 4 -6 -2 -5 -13z"/>
<path d="M2193 2925 c0 -43 3 -60 7 -45 4 14 4 45 0 70 -6 40 -7 38 -7 -25z"/>
<path d="M1141 2937 c-20 -36 -21 -39 -3 -21 17 18 39 64 30 64 -2 0 -14 -19
-27 -43z"/>
<path d="M11197 2958 c-39 -36 -62 -163 -32 -174 22 -9 18 -22 -7 -26 -20 -3
-24 -10 -28 -63 -3 -33 -11 -70 -18 -82 -21 -38 -15 -53 22 -53 18 0 49 6 68
14 34 15 106 84 127 125 18 33 44 25 69 -22 44 -83 125 -147 187 -147 32 0 36
9 20 47 -8 20 -15 64 -15 99 l0 64 -30 0 c-16 0 -30 5 -30 10 0 6 6 10 14 10
23 0 44 38 39 73 -2 18 -5 44 -6 58 -13 110 -139 91 -193 -29 -13 -30 -34 -36
-34 -11 0 27 -92 129 -116 129 -7 0 -24 -10 -37 -22z"/>
<path d="M2430 2950 c-6 -11 -8 -20 -6 -20 3 0 10 9 16 20 6 11 8 20 6 20 -3
0 -10 -9 -16 -20z"/>
<path d="M770 2925 c19 -19 36 -35 39 -35 3 0 -10 16 -29 35 -19 19 -36 35
-39 35 -3 0 10 -16 29 -35z"/>
<path d="M2560 2906 c0 -2 8 -10 18 -17 15 -13 16 -12 3 4 -13 16 -21 21 -21
13z"/>
<path d="M1079 2873 c-13 -16 -12 -17 4 -4 9 7 17 15 17 17 0 8 -8 3 -21 -13z"/>
<path d="M2374 2868 l-19 -23 23 19 c21 18 27 26 19 26 -2 0 -12 -10 -23 -22z"/>
<path d="M10394 2866 c-3 -8 -4 -29 -1 -48 3 -30 4 -30 5 9 2 37 5 42 30 46
l27 4 -28 2 c-16 0 -30 -5 -33 -13z"/>
<path d="M10820 2876 c0 -2 16 -6 35 -8 19 -2 35 0 35 4 0 4 -16 8 -35 8 -19
0 -35 -2 -35 -4z"/>
<path d="M2610 2845 c13 -14 26 -25 28 -25 3 0 -5 11 -18 25 -13 14 -26 25
-28 25 -3 0 5 -11 18 -25z"/>
<path d="M1040 2850 c-9 -6 -10 -10 -3 -10 6 0 15 5 18 10 8 12 4 12 -15 0z"/>
<path d="M2790 2850 c1 -8 7 -24 15 -34 19 -25 19 -16 0 20 -8 16 -15 22 -15
14z"/>
<path d="M10660 2855 c0 -10 40 -75 47 -75 2 0 -6 17 -18 38 -28 45 -29 47
-29 37z"/>
<path d="M10596 2833 c-6 -14 -5 -15 5 -6 7 7 10 15 7 18 -3 3 -9 -2 -12 -12z"/>
<path d="M2319 2813 c-13 -16 -12 -17 4 -4 16 13 21 21 13 21 -2 0 -10 -8 -17
-17z"/>
<path d="M9975 2800 c-3 -6 1 -7 9 -4 18 7 21 14 7 14 -6 0 -13 -4 -16 -10z"/>
<path d="M10565 2784 c-9 -15 -12 -23 -6 -20 11 7 35 46 28 46 -3 0 -12 -12
-22 -26z"/>
<path d="M1028 2793 c7 -3 16 -2 19 1 4 3 -2 6 -13 5 -11 0 -14 -3 -6 -6z"/>
<path d="M2161 2784 c0 -11 3 -14 6 -6 3 7 2 16 -1 19 -3 4 -6 -2 -5 -13z"/>
<path d="M10881 2784 c0 -11 3 -14 6 -6 3 7 2 16 -1 19 -3 4 -6 -2 -5 -13z"/>
<path d="M1061 2787 c2 -1 13 -9 24 -17 19 -14 19 -14 6 3 -7 9 -18 17 -24 17
-6 0 -8 -1 -6 -3z"/>
<path d="M2245 2780 c-13 -6 -15 -9 -5 -9 8 0 22 4 30 9 18 12 2 12 -25 0z"/>
<path d="M9798 2773 c12 -2 30 -2 40 0 9 3 -1 5 -23 4 -22 0 -30 -2 -17 -4z"/>
<path d="M9873 2773 c9 -2 23 -2 30 0 6 3 -1 5 -18 5 -16 0 -22 -2 -12 -5z"/>
<path d="M10391 2768 c0 -9 -4 -25 -7 -35 -5 -17 -5 -17 6 0 6 10 9 25 7 35
-4 15 -5 15 -6 0z"/>
<path d="M10745 2730 c21 -22 41 -40 44 -40 3 0 -13 18 -34 40 -21 22 -41 40
-44 40 -3 0 13 -18 34 -40z"/>
<path d="M1125 2740 c10 -11 20 -20 23 -20 3 0 -3 9 -13 20 -10 11 -20 20 -23
20 -3 0 3 -9 13 -20z"/>
<path d="M9605 2750 c-27 -7 -27 -8 -5 -8 14 0 39 4 55 8 27 7 27 8 5 8 -14 0
-38 -4 -55 -8z"/>
<path d="M9773 2725 c0 -22 2 -30 4 -17 2 12 2 30 0 40 -3 9 -5 -1 -4 -23z"/>
<path d="M809 2733 c-13 -16 -12 -17 4 -4 9 7 17 15 17 17 0 8 -8 3 -21 -13z"/>
<path d="M9521 2727 c-13 -21 -12 -21 5 -5 10 10 16 20 13 22 -3 3 -11 -5 -18
-17z"/>
<path d="M9721 2745 c0 -5 6 -21 14 -35 8 -14 14 -20 14 -15 0 6 -6 21 -14 35
-8 14 -14 21 -14 15z"/>
<path d="M10519 2723 l-24 -28 28 24 c15 14 27 26 27 28 0 8 -8 1 -31 -24z"/>
<path d="M1156 2697 c3 -10 9 -15 12 -12 3 3 0 11 -7 18 -10 9 -11 8 -5 -6z"/>
<path d="M10906 2697 c3 -10 9 -15 12 -12 3 3 0 11 -7 18 -10 9 -11 8 -5 -6z"/>
<path d="M10435 2680 c-13 -6 -15 -9 -5 -9 8 0 22 4 30 9 18 12 2 12 -25 0z"/>
<path d="M10810 2680 c8 -5 20 -10 25 -10 6 0 3 5 -5 10 -8 5 -19 10 -25 10
-5 0 -3 -5 5 -10z"/>
<path d="M740 2665 c-7 -9 -11 -17 -9 -20 3 -2 10 5 17 15 14 24 10 26 -8 5z"/>
<path d="M10878 2663 c12 -2 30 -2 40 0 9 3 -1 5 -23 4 -22 0 -30 -2 -17 -4z"/>
<path d="M9974 2638 l-19 -23 23 19 c21 18 27 26 19 26 -2 0 -12 -10 -23 -22z"/>
<path d="M1156 2633 c-6 -14 -5 -15 5 -6 7 7 10 15 7 18 -3 3 -9 -2 -12 -12z"/>
<path d="M716 2615 c-3 -9 -6 -22 -5 -28 0 -7 5 -1 10 12 5 13 8 26 5 28 -2 2
-6 -3 -10 -12z"/>
<path d="M921 2603 c-1 -31 -2 -32 -53 -36 l-53 -3 53 -2 c57 -2 67 7 59 50
-3 18 -5 16 -6 -9z"/>
<path d="M951 2624 c-2 -24 27 -47 59 -46 17 0 35 4 39 7 3 4 -5 6 -19 5 -46
-4 -57 0 -68 23 -6 12 -11 17 -11 11z"/>
<path d="M5326 2615 c-12 -9 -32 -12 -60 -9 -38 5 -42 3 -58 -25 -10 -19 -25
-31 -37 -31 -11 0 -25 -9 -31 -21 -7 -11 -24 -25 -40 -31 -16 -5 -36 -20 -45
-34 -8 -13 -21 -24 -29 -24 -7 0 -21 -20 -31 -46 -16 -41 -16 -49 -2 -92 9
-26 15 -48 14 -49 -2 -1 -22 11 -46 28 -24 16 -52 29 -63 29 -10 0 -43 -26
-73 -57 -102 -108 -149 -153 -160 -153 -6 0 -40 -15 -75 -32 -76 -38 -84 -59
-44 -107 57 -68 193 -121 308 -121 88 0 207 21 311 54 75 24 81 25 93 8 7 -9
20 -16 29 -14 12 3 14 -2 9 -20 -44 -162 -59 -349 -36 -466 15 -80 75 -186
134 -238 28 -24 56 -44 63 -44 15 0 53 80 53 112 1 13 14 41 30 63 16 22 34
50 39 61 5 12 21 30 35 41 42 34 116 126 116 146 0 10 -26 46 -57 79 -48 50
-54 60 -33 54 108 -29 119 -30 159 -11 23 10 43 26 46 36 4 11 15 23 25 29 10
5 21 24 25 40 4 17 18 38 31 46 13 9 24 26 24 38 0 11 14 32 30 46 28 23 30
27 20 57 -9 23 -8 37 0 53 9 17 6 31 -14 73 -23 49 -28 53 -83 71 -32 10 -68
22 -80 27 -15 5 -61 1 -130 -11 -150 -27 -146 -26 -198 -66 -40 -30 -46 -32
-40 -14 6 20 5 21 -15 10 -21 -11 -20 -9 6 36 31 53 35 98 33 354 0 14 -9 44
-20 68 -14 31 -25 42 -42 42 -12 0 -31 7 -41 15 -24 18 -26 18 -50 0z"/>
<path d="M9919 2583 l-24 -28 28 24 c15 14 27 26 27 28 0 8 -8 1 -31 -24z"/>
<path d="M1936 2593 c-13 -13 -5 -75 14 -113 19 -37 81 -95 128 -119 30 -16
21 -30 -55 -81 -70 -46 -96 -77 -111 -133 -14 -50 -6 -71 22 -61 11 4 55 10
96 13 75 6 75 6 87 41 7 19 12 28 12 19 1 -9 10 -24 20 -33 28 -26 137 -12
169 21 36 39 29 70 -28 125 -27 26 -57 48 -65 48 -23 0 -18 19 8 29 31 12 117
94 117 113 0 32 -47 67 -109 79 -58 12 -61 12 -86 -11 l-25 -23 0 26 c0 24 -4
27 -32 28 -18 1 -38 1 -45 0 -6 -1 -34 7 -61 18 -27 11 -53 17 -56 14z"/>
<path d="M9530 2566 c0 -2 8 -10 18 -17 15 -13 16 -12 3 4 -13 16 -21 21 -21
13z"/>
<path d="M711 2534 c0 -11 3 -14 6 -6 3 7 2 16 -1 19 -3 4 -6 -2 -5 -13z"/>
<path d="M740 2540 c-9 -6 -10 -10 -3 -10 6 0 15 5 18 10 8 12 4 12 -15 0z"/>
<path d="M9570 2536 c0 -2 8 -10 18 -17 15 -13 16 -12 3 4 -13 16 -21 21 -21
13z"/>
<path d="M9828 2524 c-38 -20 -36 -28 2 -9 17 9 30 18 30 20 0 7 -1 6 -32 -11z"/>
<path d="M2683 2400 c0 -25 2 -35 4 -22 2 12 2 32 0 45 -2 12 -4 2 -4 -23z"/>
<path d="M9830 2436 c0 -3 9 -10 20 -16 11 -6 20 -8 20 -6 0 3 -9 10 -20 16
-11 6 -20 8 -20 6z"/>
<path d="M2740 2410 c8 -5 24 -10 34 -10 26 0 18 6 -19 14 -22 5 -26 4 -15 -4z"/>
<path d="M9564 2398 l-19 -23 23 19 c21 18 27 26 19 26 -2 0 -12 -10 -23 -22z"/>
<path d="M370 2370 c0 -62 21 -101 90 -162 34 -31 60 -62 58 -68 -2 -6 -35
-28 -73 -49 -79 -42 -123 -95 -127 -151 -3 -30 0 -34 17 -31 11 3 56 5 100 6
l80 0 3 33 c3 30 22 47 22 19 0 -7 6 -21 13 -31 11 -15 27 -18 83 -17 38 0 70
5 72 11 2 5 10 10 18 10 20 0 28 46 14 80 -14 35 -83 100 -105 100 -8 0 -15 7
-15 15 0 8 8 15 18 15 25 0 109 56 128 85 16 25 16 27 -3 53 -37 50 -183 76
-183 32 0 -23 -19 -8 -22 18 -3 24 -8 28 -53 33 -28 4 -65 14 -82 23 -46 23
-53 20 -53 -24z"/>
<path d="M2805 2405 c23 -8 85 -10 85 -3 0 4 -21 8 -47 7 -27 0 -43 -2 -38 -4z"/>
<path d="M9880 2406 c0 -2 8 -10 18 -17 15 -13 16 -12 3 4 -13 16 -21 21 -21
13z"/>
<path d="M2951 2396 c2 -2 27 -6 54 -9 34 -4 42 -3 25 3 -25 8 -87 13 -79 6z"/>
<path d="M2925 2379 c-4 -6 -5 -12 -2 -15 2 -3 7 2 10 11 7 17 1 20 -8 4z"/>
<path d="M9525 2369 c-4 -6 -5 -12 -2 -15 2 -3 7 2 10 11 7 17 1 20 -8 4z"/>
<path d="M9950 2345 c19 -19 36 -35 39 -35 3 0 -10 16 -29 35 -19 19 -36 35
-39 35 -3 0 10 -16 29 -35z"/>
<path d="M3121 2340 c14 -31 19 -36 19 -24 0 6 -7 19 -16 30 -14 18 -14 18 -3
-6z"/>
<path d="M10294 2317 c-15 -13 -28 -33 -29 -43 -2 -10 -7 -38 -13 -62 -8 -36
-7 -45 9 -66 19 -24 19 -25 -3 -28 -20 -3 -24 -10 -28 -63 -3 -33 -11 -70 -18
-82 -21 -38 -15 -53 22 -53 19 0 47 5 63 11 33 12 96 71 124 117 27 43 50 41
73 -7 42 -89 119 -151 187 -151 29 0 31 2 24 28 -4 15 -10 61 -14 102 -6 73
-7 75 -36 80 l-29 5 28 18 c27 18 28 21 24 87 -4 60 -8 73 -32 95 -15 14 -32
25 -37 25 -36 0 -110 -65 -128 -112 -13 -34 -27 -36 -35 -4 -7 27 -96 126
-113 126 -7 0 -24 -11 -39 -23z"/>
<path d="M2700 2323 c0 -6 8 -17 18 -24 16 -13 16 -13 2 6 -8 11 -16 22 -17
24 -2 2 -3 0 -3 -6z"/>
<path d="M9483 2304 c-3 -8 -2 -19 3 -24 5 -5 9 1 9 16 0 28 -3 30 -12 8z"/>
<path d="M2765 2250 c10 -11 20 -20 23 -20 3 0 -3 9 -13 20 -10 11 -20 20 -23
20 -3 0 3 -9 13 -20z"/>
<path d="M3089 2253 c-13 -16 -12 -17 4 -4 9 7 17 15 17 17 0 8 -8 3 -21 -13z"/>
<path d="M11582 2258 c-7 -7 -12 -23 -12 -35 0 -31 37 -103 53 -103 8 0 9 2 1
8 -18 12 -44 69 -44 97 0 17 7 29 23 35 13 5 16 9 7 9 -9 1 -21 -4 -28 -11z"/>
<path d="M9723 2223 c-12 -13 -19 -23 -14 -23 10 0 46 39 40 43 -2 2 -14 -7
-26 -20z"/>
<path d="M9770 2229 c0 -13 5 -31 10 -39 7 -11 8 -5 4 20 -8 43 -14 51 -14 19z"/>
<path d="M3044 2218 l-19 -23 23 19 c21 18 27 26 19 26 -2 0 -12 -10 -23 -22z"/>
<path d="M2800 2226 c0 -3 9 -10 20 -16 11 -6 20 -8 20 -6 0 3 -9 10 -20 16
-11 6 -20 8 -20 6z"/>
<path d="M10020 2194 c0 -34 -1 -36 -27 -30 -21 5 -24 4 -13 -4 33 -22 50 -12
50 30 0 22 -2 40 -5 40 -3 0 -5 -16 -5 -36z"/>
<path d="M11722 2210 c0 -14 2 -19 5 -12 2 6 2 18 0 25 -3 6 -5 1 -5 -13z"/>
<path d="M9598 2213 c6 -2 18 -2 25 0 6 3 1 5 -13 5 -14 0 -19 -2 -12 -5z"/>
<path d="M9648 2203 c6 -2 18 -2 25 0 6 3 1 5 -13 5 -14 0 -19 -2 -12 -5z"/>
<path d="M11869 2133 l-24 -28 28 24 c25 23 32 31 24 31 -2 0 -14 -12 -28 -27z"/>
<path d="M2998 2143 c7 -3 16 -2 19 1 4 3 -2 6 -13 5 -11 0 -14 -3 -6 -6z"/>
<path d="M2819 2109 l-24 -20 28 17 c15 9 27 18 27 20 0 8 -8 4 -31 -17z"/>
<path d="M3050 2126 c0 -2 8 -10 18 -17 15 -13 16 -12 3 4 -13 16 -21 21 -21
13z"/>
<path d="M11805 2100 c-13 -6 -15 -9 -5 -9 8 0 22 4 30 9 18 12 2 12 -25 0z"/>
<path d="M3090 2096 c0 -2 8 -10 18 -17 15 -13 16 -12 3 4 -13 16 -21 21 -21
13z"/>
<path d="M3520 2083 c-15 -7 -41 -31 -59 -53 -28 -35 -32 -48 -28 -76 5 -31 4
-33 -14 -24 -24 14 -35 7 -55 -33 -9 -18 -34 -48 -57 -68 l-41 -36 29 -19 c46
-30 128 -25 204 13 35 17 70 29 76 26 8 -2 14 -35 17 -87 3 -67 9 -92 32 -129
15 -26 40 -54 56 -62 29 -15 30 -15 35 10 3 14 7 37 10 51 3 14 17 44 32 67
l26 41 -27 22 c-31 27 -33 38 -6 29 33 -10 56 11 79 73 21 55 21 62 7 96 -14
33 -18 36 -56 36 -41 0 -130 -35 -130 -51 0 -5 -7 -9 -15 -9 -11 0 -15 12 -15
48 0 27 -7 69 -16 94 -17 51 -41 63 -84 41z"/>
<path d="M2745 2048 l-40 -43 43 40 c39 36 47 45 39 45 -2 0 -21 -19 -42 -42z"/>
<path d="M11548 2083 c7 -3 16 -2 19 1 4 3 -2 6 -13 5 -11 0 -14 -3 -6 -6z"/>
<path d="M11713 2083 c9 -2 25 -2 35 0 9 3 1 5 -18 5 -19 0 -27 -2 -17 -5z"/>
<path d="M11485 2059 c-4 -6 -5 -12 -2 -15 2 -3 7 2 10 11 7 17 1 20 -8 4z"/>
<path d="M3126 2047 c3 -10 9 -15 12 -12 3 3 0 11 -7 18 -10 9 -11 8 -5 -6z"/>
<path d="M11680 2051 c0 -6 4 -13 10 -16 6 -3 7 1 4 9 -7 18 -14 21 -14 7z"/>
<path d="M3136 2003 c-6 -14 -5 -15 5 -6 7 7 10 15 7 18 -3 3 -9 -2 -12 -12z"/>
<path d="M11706 2007 c3 -10 9 -15 12 -12 3 3 0 11 -7 18 -10 9 -11 8 -5 -6z"/>
<path d="M2892 1955 c0 -16 2 -22 5 -12 2 9 2 23 0 30 -3 6 -5 -1 -5 -18z"/>
<path d="M2920 1977 c0 -16 21 -47 33 -47 8 0 9 3 1 8 -6 4 -16 16 -22 27 -6
11 -12 16 -12 12z"/>
<path d="M11547 1959 c7 -7 15 -10 18 -7 3 3 -2 9 -12 12 -14 6 -15 5 -6 -5z"/>
<path d="M3090 1950 c-9 -6 -10 -10 -3 -10 6 0 15 5 18 10 8 12 4 12 -15 0z"/>
<path d="M11731 1944 c0 -11 3 -14 6 -6 3 7 2 16 -1 19 -3 4 -6 -2 -5 -13z"/>
<path d="M2683 1910 c0 -25 2 -35 4 -22 2 12 2 32 0 45 -2 12 -4 2 -4 -23z"/>
<path d="M9846 1940 c-41 -7 -69 -58 -70 -126 -1 -53 -17 -78 -33 -49 -10 17
-111 65 -139 65 -43 0 -57 -45 -41 -135 7 -41 37 -75 64 -75 11 0 8 -6 -8 -19
l-24 -19 19 -38 c10 -22 21 -61 25 -89 5 -43 9 -50 26 -47 54 9 109 97 123
197 9 62 26 67 83 25 76 -54 170 -70 233 -38 17 9 16 12 -12 41 -16 18 -42 55
-56 84 -25 51 -26 52 -58 42 -18 -5 -34 -9 -36 -9 -2 0 6 12 17 26 27 34 27
37 -9 89 -16 24 -30 47 -30 52 0 15 -44 29 -74 23z"/>
<path d="M12110 1943 c-33 -5 -80 -24 -80 -32 -1 -3 -5 -26 -9 -50 -11 -54 18
-156 56 -202 14 -16 23 -29 21 -30 -1 0 -50 -2 -108 -4 -138 -5 -132 -4 -157
-23 -23 -19 -38 -68 -23 -77 5 -3 10 -15 10 -25 0 -11 28 -47 61 -80 64 -62
95 -73 140 -49 20 10 20 10 4 -21 -9 -18 -14 -37 -12 -44 3 -7 31 -30 62 -51
36 -23 69 -56 88 -86 16 -27 33 -49 37 -49 19 0 51 53 65 107 14 55 14 68 1
126 -8 35 -27 91 -41 123 -16 35 -22 60 -15 62 5 2 10 9 10 15 0 9 25 11 87 9
109 -5 177 10 237 50 42 27 76 71 76 97 0 5 -24 15 -54 21 -30 6 -75 25 -101
43 -92 64 -107 65 -135 13 -20 -38 -28 -32 -23 17 2 25 -2 48 -9 57 -13 16
-99 60 -117 60 -5 0 -14 7 -21 15 -7 8 -15 14 -19 14 -3 -1 -17 -4 -31 -6z"/>
<path d="M2798 1913 c7 -3 16 -2 19 1 4 3 -2 6 -13 5 -11 0 -14 -3 -6 -6z"/>
<path d="M2853 1913 c9 -2 23 -2 30 0 6 3 -1 5 -18 5 -16 0 -22 -2 -12 -5z"/>
<path d="M11610 1916 c0 -2 7 -7 16 -10 8 -3 12 -2 9 4 -6 10 -25 14 -25 6z"/>
<path d="M2710 1890 c-9 -6 -10 -10 -3 -10 6 0 15 5 18 10 8 12 4 12 -15 0z"/>
<path d="M11685 1870 c10 -11 20 -20 23 -20 3 0 -3 9 -13 20 -10 11 -20 20
-23 20 -3 0 3 -9 13 -20z"/>
<path d="M11731 1874 c0 -11 3 -14 6 -6 3 7 2 16 -1 19 -3 4 -6 -2 -5 -13z"/>
<path d="M2587 1693 c-12 -11 -8 -59 7 -95 15 -34 84 -106 125 -127 35 -19 26
-45 -26 -74 -87 -47 -133 -110 -133 -183 0 -39 -3 -38 43 -19 20 8 64 15 97
15 60 0 61 0 67 31 l6 32 14 -27 c7 -14 18 -26 23 -27 58 -7 134 9 159 32 34
32 28 72 -19 119 -23 23 -52 45 -65 50 -25 10 -34 30 -14 30 13 0 85 55 112
84 22 25 15 64 -16 85 -24 17 -31 19 -104 28 -43 5 -54 3 -59 -11 -9 -23 -22
-20 -26 7 -3 19 -10 22 -58 25 -30 1 -69 9 -87 17 -36 17 -37 17 -46 8z"/>
<path d="M4526 1677 c3 -10 9 -15 12 -12 3 3 0 11 -7 18 -10 9 -11 8 -5 -6z"/>
<path d="M4431 1638 c-14 -23 -14 -23 8 -4 22 20 25 26 13 26 -4 0 -13 -10
-21 -22z"/>
<path d="M4541 1634 c0 -11 3 -14 6 -6 3 7 2 16 -1 19 -3 4 -6 -2 -5 -13z"/>
<path d="M4410 1596 c0 -8 4 -17 9 -20 5 -4 7 3 4 14 -6 23 -13 26 -13 6z"/>
<path d="M4552 1580 c0 -14 2 -19 5 -12 2 6 2 18 0 25 -3 6 -5 1 -5 -13z"/>
<path d="M4660 1596 c0 -2 15 -6 34 -8 19 -2 32 0 30 4 -5 8 -64 12 -64 4z"/>
<path d="M4609 1569 l-24 -20 30 17 c39 24 40 24 28 24 -6 0 -21 -9 -34 -21z"/>
<path d="M4731 1544 c0 -11 3 -14 6 -6 3 7 2 16 -1 19 -3 4 -6 -2 -5 -13z"/>
<path d="M800 1512 c-64 -16 -80 -27 -80 -55 0 -19 -1 -19 -18 -4 -24 22 -30
21 -83 -3 -24 -11 -61 -20 -81 -20 -42 0 -46 -9 -22 -50 26 -42 88 -77 164
-91 41 -7 71 -18 74 -26 3 -8 -7 -33 -23 -56 -42 -61 -63 -131 -55 -183 9 -62
28 -75 61 -40 13 15 49 38 79 52 57 26 57 26 36 82 -3 8 6 6 27 -5 30 -18 31
-17 74 6 70 38 78 47 84 89 4 33 2 42 -21 60 -30 23 -112 44 -143 36 -24 -7
-41 13 -19 22 19 7 66 97 71 134 7 54 -41 74 -125 52z"/>
<path d="M4356 1513 c-6 -14 -5 -15 5 -6 7 7 10 15 7 18 -3 3 -9 -2 -12 -12z"/>
<path d="M4716 1505 c-3 -9 -6 -22 -5 -28 0 -7 5 -1 10 12 5 13 8 26 5 28 -2
2 -6 -3 -10 -12z"/>
<path d="M4488 1474 c-38 -20 -36 -28 2 -9 17 9 30 18 30 20 0 7 -1 6 -32 -11z"/>
<path d="M4310 1465 c-19 -22 -8 -25 13 -3 9 10 13 18 8 18 -5 0 -14 -7 -21
-15z"/>
<path d="M4420 1440 c-8 -5 -10 -10 -5 -10 6 0 17 5 25 10 8 5 11 10 5 10 -5
0 -17 -5 -25 -10z"/>
<path d="M4552 1405 c0 -16 2 -22 5 -12 2 9 2 23 0 30 -3 6 -5 -1 -5 -18z"/>
<path d="M4676 1406 c3 -8 0 -25 -6 -38 -11 -22 -10 -22 4 -4 18 23 20 42 6
51 -5 3 -7 0 -4 -9z"/>
<path d="M4570 1333 c0 -6 8 -17 18 -24 16 -13 16 -13 2 6 -8 11 -16 22 -17
24 -2 2 -3 0 -3 -6z"/>
<path d="M2034 1304 c-18 -14 -18 -15 4 -4 12 6 22 13 22 15 0 8 -5 6 -26 -11z"/>
<path d="M2083 1304 c5 -7 12 -25 17 -41 7 -23 8 -24 9 -7 1 12 -7 30 -16 41
-10 10 -14 13 -10 7z"/>
<path d="M4642 1285 c0 -16 2 -22 5 -12 2 9 2 23 0 30 -3 6 -5 -1 -5 -18z"/>
<path d="M1982 1248 c-14 -14 -16 -44 -3 -52 5 -4 7 3 4 14 -3 11 0 27 7 35
15 18 9 20 -8 3z"/>
<path d="M2112 1200 c0 -14 2 -19 5 -12 2 6 2 18 0 25 -3 6 -5 1 -5 -13z"/>
<path d="M2210 1216 c0 -2 18 -6 39 -8 22 -2 37 0 35 4 -5 8 -74 11 -74 4z"/>
<path d="M1950 1180 c8 -5 20 -10 25 -10 6 0 3 5 -5 10 -8 5 -19 10 -25 10 -5
0 -3 -5 5 -10z"/>
<path d="M10101 1161 c-10 -7 -7 -9 12 -8 14 1 23 5 20 10 -6 9 -15 9 -32 -2z"/>
<path d="M9808 1153 c7 -3 16 -2 19 1 4 3 -2 6 -13 5 -11 0 -14 -3 -6 -6z"/>
<path d="M10150 1153 c0 -6 7 -16 15 -23 7 -6 17 -32 21 -56 3 -24 10 -46 14
-49 14 -9 -13 90 -31 114 -11 13 -19 19 -19 14z"/>
<path d="M1892 1109 c-24 -28 -29 -39 -20 -45 7 -4 10 -3 5 1 -4 5 7 24 25 42
17 18 30 34 27 36 -2 2 -19 -13 -37 -34z"/>
<path d="M10054 1134 c-18 -14 -18 -15 4 -4 12 6 22 13 22 15 0 8 -5 6 -26
-11z"/>
<path d="M9760 1115 c-6 -8 -10 -19 -8 -24 1 -6 8 1 15 14 13 28 11 31 -7 10z"/>
<path d="M9880 1105 c13 -14 26 -25 28 -25 3 0 -5 11 -18 25 -13 14 -26 25
-28 25 -3 0 5 -11 18 -25z"/>
<path d="M10019 1093 c-13 -16 -12 -17 4 -4 16 13 21 21 13 21 -2 0 -10 -8
-17 -17z"/>
<path d="M2020 1080 c-9 -6 -10 -10 -3 -10 6 0 15 5 18 10 8 12 4 12 -15 0z"/>
<path d="M2255 1080 c-3 -5 -1 -10 4 -10 6 0 11 5 11 10 0 6 -2 10 -4 10 -3 0
-8 -4 -11 -10z"/>
<path d="M1965 1060 c-13 -6 -15 -9 -5 -9 8 0 22 4 30 9 18 12 2 12 -25 0z"/>
<path d="M9741 1058 c0 -9 -4 -25 -7 -35 -5 -17 -5 -17 6 0 6 10 9 25 7 35 -4
15 -5 15 -6 0z"/>
<path d="M9995 1059 c-4 -6 -5 -12 -2 -15 2 -3 7 2 10 11 7 17 1 20 -8 4z"/>
<path d="M1898 1053 c6 -2 18 -2 25 0 6 3 1 5 -13 5 -14 0 -19 -2 -12 -5z"/>
<path d="M2112 1025 c0 -16 2 -22 5 -12 2 9 2 23 0 30 -3 6 -5 -1 -5 -18z"/>
<path d="M2231 1033 c7 -12 15 -20 18 -17 3 2 -3 12 -13 22 -17 16 -18 16 -5
-5z"/>
<path d="M9937 1029 c4 -13 8 -18 11 -10 2 7 -1 18 -6 23 -8 8 -9 4 -5 -13z"/>
<path d="M11516 991 c-23 -24 -29 -41 -33 -95 -5 -62 -14 -79 -28 -56 -10 16
-128 65 -150 61 -24 -4 -46 -21 -41 -30 3 -4 1 -13 -3 -20 -9 -14 14 -118 31
-138 6 -7 19 -13 29 -13 23 0 25 -16 4 -24 -20 -7 -18 -32 5 -81 11 -22 19
-57 20 -77 0 -42 7 -45 50 -23 40 21 77 87 92 167 7 37 19 70 26 73 7 3 28 -6
46 -20 77 -59 196 -84 241 -51 18 13 18 15 -12 49 -18 20 -41 57 -52 82 -21
48 -26 50 -65 35 -29 -10 -35 0 -11 20 22 18 18 50 -11 95 -54 81 -93 94 -138
46z"/>
<path d="M9731 989 c-1 -23 24 -52 40 -46 11 4 10 6 -3 6 -9 1 -21 13 -26 29
-6 15 -11 20 -11 11z"/>
<path d="M1554 979 c-3 -5 -14 -9 -26 -9 -25 0 -133 -110 -142 -145 -4 -14 -2
-34 4 -45 15 -29 13 -30 -25 -14 -35 14 -36 14 -53 -16 -9 -16 -20 -30 -24
-30 -5 0 -8 -6 -8 -12 -1 -19 -40 -59 -88 -91 -24 -16 -42 -34 -39 -40 6 -20
79 -56 125 -63 57 -9 141 9 222 47 38 18 66 26 68 20 2 -6 9 -11 15 -11 9 0
12 -35 12 -118 1 -136 18 -185 86 -246 55 -50 79 -45 79 16 0 28 28 85 67 137
18 24 33 49 33 55 0 6 -17 25 -37 43 l-38 31 46 -5 c44 -5 48 -3 73 29 14 19
26 40 26 46 0 6 10 30 23 54 40 78 14 144 -64 159 -53 10 -153 -19 -199 -58
-33 -27 -34 -26 -31 48 3 58 -16 168 -34 195 -14 22 -62 37 -71 23z"/>
<path d="M2215 969 c-4 -6 -5 -12 -2 -15 2 -3 7 2 10 11 7 17 1 20 -8 4z"/>
<path d="M2130 953 c0 -5 12 -20 28 -34 l27 -24 -25 30 c-14 17 -26 32 -27 34
-2 2 -3 0 -3 -6z"/>
<path d="M2198 915 c-3 -14 -1 -28 3 -31 5 -3 9 9 9 25 0 38 -6 40 -12 6z"/>
<path d="M9758 913 c7 -3 16 -2 19 1 4 3 -2 6 -13 5 -11 0 -14 -3 -6 -6z"/>
<path d="M10163 913 c9 -2 23 -2 30 0 6 3 -1 5 -18 5 -16 0 -22 -2 -12 -5z"/>
<path d="M10212 880 c0 -19 2 -27 5 -17 2 9 2 25 0 35 -3 9 -5 1 -5 -18z"/>
<path d="M10000 870 c6 -11 13 -20 16 -20 2 0 0 9 -6 20 -6 11 -13 20 -16 20
-2 0 0 -9 6 -20z"/>
<path d="M9721 844 c0 -11 3 -14 6 -6 3 7 2 16 -1 19 -3 4 -6 -2 -5 -13z"/>
<path d="M9905 834 c-9 -15 -12 -23 -6 -20 11 7 35 46 28 46 -3 0 -12 -12 -22
-26z"/>
<path d="M2750 831 c0 -5 -21 -20 -46 -33 -74 -37 -97 -63 -91 -104 5 -32 -5
-46 -18 -24 -3 5 -14 14 -24 20 -15 7 -30 -1 -80 -44 -41 -35 -77 -58 -106
-65 -24 -6 -47 -16 -51 -22 -11 -18 29 -62 82 -91 43 -24 60 -28 139 -28 50 0
109 5 133 10 66 16 76 0 50 -76 -46 -132 -31 -279 34 -344 28 -29 31 -30 44
-13 7 10 14 26 14 36 0 11 34 53 75 94 41 42 75 77 75 77 0 1 -11 17 -25 36
-33 44 -32 52 5 33 44 -22 72 -10 121 49 23 29 49 58 57 65 8 6 12 18 9 25 -2
7 -1 20 4 29 16 30 -12 77 -56 95 -55 22 -158 19 -208 -7 -21 -11 -36 -15 -32
-9 3 5 1 10 -5 10 -6 0 -5 9 4 23 20 30 40 167 32 212 -5 26 -14 39 -32 45
-32 13 -104 13 -104 1z"/>
<path d="M10211 824 c0 -11 3 -14 6 -6 3 7 2 16 -1 19 -3 4 -6 -2 -5 -13z"/>
<path d="M8980 817 c-43 -22 -62 -73 -57 -159 2 -49 10 -85 21 -102 9 -15 12
-26 6 -26 -6 0 -8 -5 -3 -12 4 -7 -6 -4 -22 7 -19 12 -63 24 -120 31 -107 13
-142 5 -148 -34 -9 -49 -7 -91 3 -97 5 -3 19 -25 30 -48 36 -75 70 -102 117
-91 l27 7 -23 -31 -22 -32 55 -68 c31 -38 56 -74 56 -81 0 -6 7 -28 15 -47
l15 -36 27 18 c39 25 60 53 78 103 17 51 20 154 5 230 -15 79 -3 86 94 55 103
-32 196 -33 268 -1 64 29 86 52 71 75 -5 10 -20 19 -33 20 -13 2 -56 37 -97
78 -75 77 -79 78 -120 41 -28 -25 -37 -18 -23 19 6 15 8 39 5 51 -6 25 -39 63
-55 63 -5 0 -14 9 -20 20 -6 11 -16 20 -22 20 -6 0 -16 6 -22 14 -15 19 -79
27 -106 13z"/>
<path d="M9721 794 c0 -11 3 -14 6 -6 3 7 2 16 -1 19 -3 4 -6 -2 -5 -13z"/>
<path d="M10055 790 c10 -11 20 -20 23 -20 3 0 -3 9 -13 20 -10 11 -20 20 -23
20 -3 0 3 -9 13 -20z"/>
<path d="M9856 771 c-16 -16 -41 -35 -57 -42 -17 -6 -28 -14 -25 -16 8 -8 60
25 90 56 17 17 27 31 25 31 -3 0 -18 -13 -33 -29z"/>
<path d="M10222 780 c0 -14 2 -19 5 -12 2 6 2 18 0 25 -3 6 -5 1 -5 -13z"/>
<path d="M10485 742 c-23 -19 -59 -131 -49 -155 3 -8 13 -19 22 -23 13 -6 10
-8 -13 -13 -27 -6 -31 -11 -36 -56 -4 -28 -15 -67 -25 -87 -9 -21 -14 -41 -10
-45 15 -15 89 -3 132 22 24 14 59 46 77 70 43 59 60 57 93 -7 52 -103 105
-148 173 -148 29 0 30 1 20 28 -6 15 -9 58 -7 96 l3 70 -35 9 -35 9 32 16 c35
17 40 34 35 114 -5 65 -39 100 -84 87 -35 -9 -104 -72 -114 -101 -9 -29 -21
-21 -45 28 -28 56 -73 104 -97 104 -9 -1 -26 -8 -37 -18z"/>
<path d="M10119 731 c13 -12 28 -21 34 -21 12 0 11 0 -28 24 l-30 17 24 -20z"/>
<path d="M10236 737 c3 -10 9 -15 12 -12 3 3 0 11 -7 18 -10 9 -11 8 -5 -6z"/>
<path d="M9699 707 c5 -5 19 -7 32 -5 20 3 19 5 -9 9 -20 3 -29 2 -23 -4z"/>
<path d="M10178 703 c7 -3 16 -2 19 1 4 3 -2 6 -13 5 -11 0 -14 -3 -6 -6z"/>
<path d="M10238 703 c7 -3 16 -2 19 1 4 3 -2 6 -13 5 -11 0 -14 -3 -6 -6z"/>
</g>
</svg>
